<svg width="333" height="50" viewBox="0 0 333 50" fill="none" xmlns="http://www.w3.org/2000/svg">
<rect x="0.5" y="0.5" width="332" height="49" rx="24.5" fill="white"/>
<rect x="0.5" y="0.5" width="332" height="49" rx="24.5" stroke="#FF7417"/>
<path d="M27.2178 20.9863V23.9443H28.7412V19.9199H29.8965V30.5205H28.7412V24.9346H27.2178V28.083H22.7998V20.9863H27.2178ZM23.9424 27.1182H26.0879V21.9385H23.9424V27.1182ZM31.0518 31.0791V19.7041H32.207V31.0791H31.0518ZM37.8311 22.5986C37.8184 24.6743 39.0752 26.769 40.8398 27.5498L40.1162 28.502C38.8086 27.8799 37.7739 26.604 37.2407 25.0488C36.7139 26.7183 35.6665 28.0894 34.3018 28.7559L33.5654 27.7402C35.3555 26.9468 36.6123 24.7695 36.6123 22.5986V20.6562H37.8311V22.5986ZM41.8682 31.1045V19.7041H43.0742V31.1045H41.8682ZM49.0791 23.0557C49.0728 24.96 50.3232 26.9277 52.0752 27.6768L51.415 28.6162C50.0757 28.0259 49.0093 26.769 48.4824 25.252C47.9556 26.877 46.8892 28.2607 45.5625 28.9082L44.8643 27.9561C46.5781 27.1499 47.8477 25.0171 47.8604 23.0557V21.8496H45.2578V20.8467H51.6689V21.8496H49.0791V23.0557ZM53.1035 31.0791V19.7041H54.3096V31.0791H53.1035ZM66.5225 24.9219V25.8486H56.1123V24.9219H66.5225ZM57.3438 27.5117V26.6484H65.2402V29.1494H58.5625V30.0889H65.5957V30.9395H57.3564V28.3496H64.0469V27.5117H57.3438ZM57.4199 20.8467V19.9961H65.2148V22.459H58.6387V23.3223H65.4053V24.1729H57.4453V21.6592H64.0088V20.8467H57.4199ZM79.9668 19.7041V25.8105H78.7607V19.7041H79.9668ZM70.7627 22.8652C70.769 21.3037 72.0513 20.2183 73.7969 20.2246C75.5361 20.2183 76.8184 21.3037 76.8184 22.8652C76.8184 24.4204 75.5361 25.5059 73.7969 25.4932C72.0513 25.5059 70.769 24.4204 70.7627 22.8652ZM71.9434 22.8652C71.937 23.8491 72.7178 24.5029 73.7969 24.5029C74.8633 24.5029 75.6377 23.8491 75.6377 22.8652C75.6377 21.894 74.8633 21.2339 73.7969 21.2402C72.7178 21.2339 71.937 21.894 71.9434 22.8652ZM72.5273 30.9395V26.3564H73.708V27.6387H78.7734V26.3564H79.9668V30.9395H72.5273ZM73.708 29.9492H78.7734V28.5908H73.708V29.9492ZM87.1904 20.3896V23.7031H83.4326V25.2773C85.4131 25.2773 86.4922 25.2329 87.7744 24.998L87.8887 25.9756C86.4985 26.2104 85.3306 26.2485 83.0645 26.2549H82.2393V22.7891H85.9844V21.3545H82.2266V20.3896H87.1904ZM83.5342 28.2607V27.2832H91.2529V31.0918H90.0469V28.2607H83.5342ZM87.9141 24.7061V23.7412H90.0469V22.332H87.9141V21.3672H90.0469V19.7168H91.2529V26.7119H90.0469V24.7061H87.9141ZM98.6289 21.583V22.5605H92.9795V21.583H95.2139V20.0342H96.4072V21.583H98.6289ZM93.3477 25.8613C93.3413 24.3315 94.3823 23.2461 95.8105 23.2461C97.2515 23.2461 98.2798 24.3315 98.2861 25.8613C98.2798 27.4165 97.2515 28.5083 95.8105 28.502C94.3823 28.5083 93.3413 27.4165 93.3477 25.8613ZM94.4141 25.8613C94.4077 26.8262 94.9917 27.4736 95.8105 27.4736C96.6294 27.4736 97.2197 26.8262 97.2197 25.8613C97.2197 24.9155 96.6294 24.2554 95.8105 24.249C94.9917 24.2554 94.4077 24.9155 94.4141 25.8613ZM99.1494 30.5459V19.958H100.292V24.4395H101.6V19.7041H102.742V31.0791H101.6V25.4297H100.292V30.5459H99.1494ZM114.612 26.1152V27.0928H109.991V31.0664H108.811V27.0928H104.24V26.1152H114.612ZM104.824 24.2998C106.944 24.0078 108.709 22.7446 108.747 21.3418H105.205V20.377H113.635V21.3418H110.118C110.137 22.7446 111.889 24.0078 114.041 24.2998L113.597 25.252C111.73 24.96 110.118 24.0396 109.426 22.7446C108.728 24.0396 107.122 24.96 105.281 25.252L104.824 24.2998ZM118.941 22.8145C118.941 24.6299 119.703 26.5659 121.227 27.499L120.554 28.4258C119.487 27.7847 118.77 26.6484 118.376 25.3345C117.964 26.7754 117.177 28.0068 116.072 28.6797L115.323 27.7783C116.929 26.8135 117.78 24.8013 117.773 22.8652V20.7451H118.941V22.8145ZM119.995 24.7061V23.7031H121.76V19.9199H122.902V30.5205H121.76V24.7061H119.995ZM124.108 31.0791V19.7041H125.264V31.0791H124.108ZM137.121 28.6543V29.6572H126.711V28.6543H129.199V25.6836C128.266 25.1694 127.695 24.3569 127.701 23.335C127.695 21.5449 129.453 20.3706 131.891 20.3643C134.334 20.3706 136.093 21.5449 136.093 23.335C136.093 24.3379 135.547 25.144 134.633 25.6582V28.6543H137.121ZM128.869 23.335C128.869 24.5537 130.107 25.3472 131.891 25.3535C133.662 25.3472 134.918 24.5537 134.925 23.335C134.918 22.1099 133.662 21.3291 131.891 21.3291C130.107 21.3291 128.869 22.1099 128.869 23.335ZM130.393 28.6543H133.414V26.1279C132.951 26.2358 132.437 26.293 131.891 26.293C131.357 26.293 130.85 26.2358 130.393 26.1279V28.6543ZM139.241 30.0889C138.746 30.0825 138.333 29.6826 138.34 29.1875C138.333 28.6924 138.746 28.2861 139.241 28.2861C139.73 28.2861 140.136 28.6924 140.143 29.1875C140.136 29.6826 139.73 30.0825 139.241 30.0889Z" fill="#A2A2A2"/>
<path d="M311.07 24.5099L302.51 20.2299C296.76 17.3499 294.4 19.7099 297.28 25.4599L298.15 27.1999C298.4 27.7099 298.4 28.2999 298.15 28.8099L297.28 30.5399C294.4 36.2899 296.75 38.6499 302.51 35.7699L311.07 31.4899C314.91 29.5699 314.91 26.4299 311.07 24.5099ZM307.84 28.7499H302.44C302.03 28.7499 301.69 28.4099 301.69 27.9999C301.69 27.5899 302.03 27.2499 302.44 27.2499H307.84C308.25 27.2499 308.59 27.5899 308.59 27.9999C308.59 28.4099 308.25 28.7499 307.84 28.7499Z" fill="#FF7417"/>
<path d="M274 31.5C276.21 31.5 278 29.71 278 27.5V22C278 19.79 276.21 18 274 18C271.79 18 270 19.79 270 22V27.5C270 29.71 271.79 31.5 274 31.5Z" stroke="#CECECE" stroke-width="1.5" stroke-linecap="round" stroke-linejoin="round"/>
<path d="M266.35 25.6499V27.3499C266.35 31.5699 269.78 34.9999 274 34.9999C278.22 34.9999 281.65 31.5699 281.65 27.3499V25.6499" stroke="#CECECE" stroke-width="1.5" stroke-linecap="round" stroke-linejoin="round"/>
<path d="M272.61 22.4301C273.51 22.1001 274.49 22.1001 275.39 22.4301" stroke="#CECECE" stroke-width="1.5" stroke-linecap="round" stroke-linejoin="round"/>
<path d="M273.2 24.5501C273.73 24.4101 274.28 24.4101 274.81 24.5501" stroke="#CECECE" stroke-width="1.5" stroke-linecap="round" stroke-linejoin="round"/>
<path d="M274 35V38" stroke="#CECECE" stroke-width="1.5" stroke-linecap="round" stroke-linejoin="round"/>
</svg>
