<svg width="324" height="558" viewBox="0 0 324 558" fill="none" xmlns="http://www.w3.org/2000/svg">
<rect x="0.5" y="0.5" width="323" height="261" rx="4.5" stroke="#FF7417"/>
<rect x="16" y="25.5" width="66" height="25" rx="12.5" fill="#FF7417"/>
<path d="M24.5664 42.5L24.9834 39.9434H22.8506L22.4336 42.5H21.0801L21.4971 39.9434H20.1094L20.3281 38.6035H21.7227L22.0645 36.498H20.6836L20.9023 35.1582H22.29L22.707 32.6016H24.0605L23.6436 35.1582H25.7764L26.1934 32.6016H27.5332L27.1162 35.1582H28.5176L28.2852 36.498H26.8906L26.5488 38.6035H27.9434L27.7246 39.9434H26.3232L25.9062 42.5H24.5664ZM23.0762 38.6035H25.209L25.5508 36.498H23.418L23.0762 38.6035ZM35.4082 35.7734V37.3457H40.3027V38.5762H29.0371V37.3457H33.9043V35.7734H35.4082ZM29.5703 35.2539C31.8535 35.0283 33.3369 34.1328 33.5898 33.1211H30.0625V31.9043H39.291V33.1211H35.7295C35.9824 34.126 37.4658 35.0283 39.7695 35.2539L39.2227 36.4434C36.9805 36.2109 35.3262 35.3359 34.6562 34.0918C33.9863 35.3359 32.3457 36.2109 30.1035 36.4434L29.5703 35.2539ZM30.3496 41.5293C30.3496 40.1416 31.9561 39.3691 34.6562 39.3691C37.3359 39.3691 38.9287 40.1416 38.9355 41.5293C38.9287 42.9307 37.3359 43.7031 34.6562 43.7031C31.9561 43.7031 30.3496 42.9307 30.3496 41.5293ZM31.8945 41.5293C31.8877 42.2061 32.8379 42.5547 34.6562 42.5547C36.4404 42.5547 37.4043 42.2061 37.418 41.5293C37.4043 40.873 36.4404 40.5381 34.6562 40.5312C32.8379 40.5381 31.8877 40.873 31.8945 41.5293ZM50.8848 31.3574V34.4062H52.6074V35.6641H50.8848V38.5762H49.3672V31.3574H50.8848ZM41.1504 33.7227V32.5059H44.0625V31.2617H45.5801V32.5059H48.4785V33.7227H41.1504ZM41.7793 36.3203C41.7793 35.0078 43.0098 34.1465 44.8145 34.1465C46.5986 34.1465 47.8291 35.0078 47.8359 36.3203C47.8291 37.6328 46.5986 38.501 44.8145 38.4941C43.0098 38.501 41.7793 37.6328 41.7793 36.3203ZM42.9004 43.5664V39.0684H44.4043V40.1348H49.3672V39.0684H50.8848V43.5664H42.9004ZM43.2559 36.3203C43.249 36.9902 43.8779 37.373 44.8145 37.373C45.751 37.373 46.3867 36.9902 46.3867 36.3203C46.3867 35.6709 45.751 35.2676 44.8145 35.2676C43.8779 35.2676 43.249 35.6709 43.2559 36.3203ZM44.4043 42.3633H49.3672V41.3105H44.4043V42.3633ZM64.5293 40.9824V42.2266H53.2363V40.9824H58.1035V38.5762H54.4805V32.1777H55.998V34.2012H61.7266V32.1777H63.2441V38.5762H59.6074V40.9824H64.5293ZM55.998 37.3457H61.7266V35.418H55.998V37.3457ZM75.6855 31.3574V38.8359H74.168V36.2793H72.4043V35.0215H74.168V31.3574H75.6855ZM65.3633 33.7363V32.5059H68.2344V31.2617H69.7383V32.5059H72.6094V33.7363H65.3633ZM66.0605 36.4297C66.0537 35.1309 67.2773 34.2148 68.9863 34.2148C70.709 34.2148 71.9189 35.1309 71.9258 36.4297C71.9189 37.7627 70.709 38.6445 68.9863 38.6445C67.2773 38.6445 66.0537 37.7627 66.0605 36.4297ZM67.4688 43.5664V39.3965H75.6855V43.5664H67.4688ZM67.5098 36.4297C67.5098 37.1133 68.0977 37.5098 68.9863 37.5098C69.8682 37.5098 70.4629 37.1133 70.4629 36.4297C70.4629 35.7666 69.8682 35.3633 68.9863 35.3633C68.0977 35.3633 67.5098 35.7666 67.5098 36.4297ZM68.9863 42.3359H74.1953V40.5996H68.9863V42.3359Z" fill="white"/>
<path d="M30.5117 58.6016V64.1484H32.9727V65.9453H30.5117V71.7852H28.3438V58.6016H30.5117ZM16.6055 62.293V60.5547H20.7656V58.582H22.9336V60.5547H27.0742V62.293H16.6055ZM17.5039 66.3945C17.5039 64.3633 19.2715 63.0156 21.8398 63.0156C24.3887 63.0156 26.1465 64.3633 26.1562 66.3945C26.1465 68.416 24.3887 69.7344 21.8398 69.7344C19.2715 69.7344 17.5039 68.416 17.5039 66.3945ZM19.2031 75.8867V70.75H21.3711V74.1289H31.2148V75.8867H19.2031ZM19.6133 66.3945C19.6035 67.459 20.502 68.0645 21.8398 68.0547C23.1777 68.0645 24.0859 67.459 24.0859 66.3945C24.0859 65.3203 23.1777 64.6953 21.8398 64.6953C20.502 64.6953 19.6035 65.3203 19.6133 66.3945ZM47.8359 58.582V65.8672H50.3164V67.6836H47.8359V76.2383H45.6484V58.582H47.8359ZM33.6562 71.3359C34.9941 71.3359 36.5469 71.3359 38.168 71.2969V69.6465C36.2441 69.3145 34.9941 68.1133 35.0039 66.4531C34.9941 64.4609 36.7422 63.1426 39.2812 63.1328C41.791 63.1426 43.5586 64.4609 43.5781 66.4531C43.5586 68.123 42.2793 69.3242 40.3555 69.6465V71.2188C41.8398 71.1406 43.3242 71.0234 44.7109 70.8281L44.8477 72.4102C41.0586 73.1035 36.9766 73.1328 33.9688 73.1328L33.6562 71.3359ZM33.9883 62.332V60.6133H38.168V58.6602H40.3555V60.6133H44.5156V62.332H33.9883ZM37.0547 66.4531C37.0449 67.4688 37.9434 68.0645 39.2812 68.0547C40.5996 68.0645 41.4883 67.4688 41.4883 66.4531C41.4883 65.4277 40.5996 64.8027 39.2812 64.793C37.9434 64.8027 37.0449 65.4277 37.0547 66.4531ZM69.7305 58.582V65.3594H72.4453V67.1758H69.7305V76.2578H67.582V58.582H69.7305ZM56.6055 61.8828V60.125H64.7305V66.7852H58.793V70.3008C61.5957 70.2812 63.7734 70.1641 66.2344 69.7344L66.4297 71.4922C63.7051 71.9805 61.3027 72.0977 58.0898 72.0977H56.6445V65.0469H62.5625V61.8828H56.6055ZM87.875 58.582V76.2578H85.6875V58.582H87.875ZM73.7539 66.1016C73.7441 62.293 75.6875 59.8711 78.3633 59.8711C81.0098 59.8711 82.9629 62.293 82.9727 66.1016C82.9629 69.9395 81.0098 72.3516 78.3633 72.3516C75.6875 72.3516 73.7441 69.9395 73.7539 66.1016ZM75.8438 66.1016C75.8438 68.8164 76.8691 70.3887 78.3633 70.3984C79.8477 70.3887 80.8633 68.8164 80.8633 66.1016C80.8633 63.4062 79.8477 61.8242 78.3633 61.8242C76.8691 61.8242 75.8438 63.4062 75.8438 66.1016ZM106.605 72.293V74.1094H90.4727V72.293H106.605ZM91.8008 61.9609V60.2227H105.199V61.9609H102.621V67.5859H105.141V69.3047H91.8594V67.5859H94.3398V61.9609H91.8008ZM96.5078 67.5859H100.473V61.9609H96.5078V67.5859ZM122.367 59.0898V60.7305H119.945V63.4062H122.27V65.0469H109.301V63.4062H111.625V60.7305H109.203V59.0898H122.367ZM107.758 67.8789V66.1602H123.852V67.8789H107.758ZM109.652 70.6523V69.0703H121.84V73.2695H111.801V74.4609H122.328V76.082H109.672V71.7656H119.711V70.6523H109.652ZM113.793 63.4062H117.758V60.7305H113.793V63.4062ZM139.828 58.582V76.2578H137.66V66.8633H134.633V65.0859H137.66V58.582H139.828ZM125.629 61.8828V60.125H133.617V66.5898H127.836V70.3008C130.463 70.291 132.572 70.2031 134.945 69.7734L135.121 71.5508C132.494 72.0098 130.131 72.1074 127.094 72.1172H125.688V64.832H131.488V61.8828H125.629ZM151.449 61.0039C151.449 63.7285 154.115 66.4727 157.816 67.1172L156.84 68.9336C153.881 68.3184 151.459 66.5215 150.307 64.1484C149.145 66.502 146.723 68.3086 143.773 68.9336L142.816 67.1172C146.459 66.4531 149.135 63.7188 149.145 61.0039V59.6953H151.449V61.0039ZM142.328 73.9922V72.1953H158.461V73.9922H142.328ZM173.461 64.8906V67.1367H180.453V68.8945H164.359V67.1367H171.312V64.8906H173.461ZM165.121 64.1484C168.383 63.8262 170.502 62.5469 170.863 61.1016H165.824V59.3633H179.008V61.1016H173.92C174.281 62.5371 176.4 63.8262 179.691 64.1484L178.91 65.8477C175.707 65.5156 173.344 64.2656 172.387 62.4883C171.43 64.2656 169.086 65.5156 165.883 65.8477L165.121 64.1484ZM166.234 73.1133C166.234 71.1309 168.529 70.0273 172.387 70.0273C176.215 70.0273 178.49 71.1309 178.5 73.1133C178.49 75.1152 176.215 76.2188 172.387 76.2188C168.529 76.2188 166.234 75.1152 166.234 73.1133ZM168.441 73.1133C168.432 74.0801 169.789 74.5781 172.387 74.5781C174.936 74.5781 176.312 74.0801 176.332 73.1133C176.312 72.1758 174.936 71.6973 172.387 71.6875C169.789 71.6973 168.432 72.1758 168.441 73.1133ZM195.57 58.582V62.9375H198.031V64.7344H195.57V68.8945H193.402V58.582H195.57ZM181.664 61.9609V60.2227H185.824V58.4453H187.992V60.2227H192.133V61.9609H181.664ZM182.562 65.6719C182.562 63.7969 184.32 62.5664 186.898 62.5664C189.447 62.5664 191.205 63.7969 191.215 65.6719C191.205 67.5469 189.447 68.7871 186.898 68.7773C184.32 68.7871 182.562 67.5469 182.562 65.6719ZM184.164 76.0234V69.5977H186.312V71.1211H193.402V69.5977H195.57V76.0234H184.164ZM184.672 65.6719C184.662 66.6289 185.561 67.1758 186.898 67.1758C188.236 67.1758 189.145 66.6289 189.145 65.6719C189.145 64.7441 188.236 64.168 186.898 64.168C185.561 64.168 184.662 64.7441 184.672 65.6719ZM186.312 74.3047H193.402V72.8008H186.312V74.3047ZM215.062 72.332V74.1094H198.93V72.332H205.883V68.8945H200.707V59.7539H202.875V62.6445H211.059V59.7539H213.227V68.8945H208.031V72.332H215.062ZM202.875 67.1367H211.059V64.3828H202.875V67.1367ZM231 58.582V69.2656H228.832V65.6133H226.312V63.8164H228.832V58.582H231ZM216.254 61.9805V60.2227H220.355V58.4453H222.504V60.2227H226.605V61.9805H216.254ZM217.25 65.8281C217.24 63.9727 218.988 62.6641 221.43 62.6641C223.891 62.6641 225.619 63.9727 225.629 65.8281C225.619 67.7324 223.891 68.9922 221.43 68.9922C218.988 68.9922 217.24 67.7324 217.25 65.8281ZM219.262 76.0234V70.0664H231V76.0234H219.262ZM219.32 65.8281C219.32 66.8047 220.16 67.3711 221.43 67.3711C222.689 67.3711 223.539 66.8047 223.539 65.8281C223.539 64.8809 222.689 64.3047 221.43 64.3047C220.16 64.3047 219.32 64.8809 219.32 65.8281ZM221.43 74.2656H228.871V71.7852H221.43V74.2656Z" fill="black"/>
<path d="M301.192 54.4423L294.942 60.6923C294.884 60.7504 294.815 60.7964 294.739 60.8278C294.663 60.8593 294.582 60.8755 294.5 60.8755C294.418 60.8755 294.336 60.8593 294.261 60.8278C294.185 60.7964 294.116 60.7504 294.058 60.6923C294 60.6342 293.954 60.5653 293.922 60.4894C293.891 60.4135 293.875 60.3322 293.875 60.2501C293.875 60.168 293.891 60.0867 293.922 60.0108C293.954 59.9349 294 59.866 294.058 59.8079L299.866 54.0001L294.058 48.1923C293.94 48.075 293.875 47.916 293.875 47.7501C293.875 47.5843 293.94 47.4252 294.058 47.3079C294.175 47.1906 294.334 47.1248 294.5 47.1248C294.666 47.1248 294.825 47.1906 294.942 47.3079L301.192 53.5579C301.25 53.616 301.296 53.6849 301.328 53.7608C301.359 53.8366 301.375 53.918 301.375 54.0001C301.375 54.0822 301.359 54.1636 301.328 54.2394C301.296 54.3153 301.25 54.3842 301.192 54.4423Z" fill="black"/>
<rect x="16" y="98.5" width="58" height="22" rx="11" fill="#EEEEEE"/>
<path d="M33.0117 104.031V114.473H32.0859V104.031H33.0117ZM25.0312 111.953V104.922H25.9453V107.676H29.0508V104.922H29.9531V111.953H25.0312ZM25.9453 111.18H29.0508V108.414H25.9453V111.18ZM43.6406 104.043V110.43H42.7617V107.547H41.3438V110.09H40.4648V104.242H41.3438V106.785H42.7617V104.043H43.6406ZM34.8633 109.715C36.9961 108.83 38.2324 107.424 38.4141 105.648H35.3086V104.887H39.375C39.3691 107.395 37.957 109.293 35.332 110.406L34.8633 109.715ZM36.6445 112.48C36.6445 111.273 37.998 110.547 40.1953 110.547C42.3926 110.547 43.7578 111.273 43.7578 112.48C43.7578 113.699 42.3926 114.402 40.1953 114.402C37.998 114.402 36.6445 113.699 36.6445 112.48ZM37.5586 112.48C37.5645 113.236 38.5723 113.682 40.1953 113.688C41.8066 113.682 42.832 113.236 42.832 112.48C42.832 111.725 41.8066 111.273 40.1953 111.273C38.5723 111.273 37.5645 111.725 37.5586 112.48ZM53.7656 104.043V111.684H52.8516V104.043H53.7656ZM45.2695 109.457C46.8457 108.842 47.918 107.318 47.918 105.672V104.629H48.8555V105.672C48.8438 107.26 49.9277 108.684 51.4805 109.246L51 109.984C49.793 109.521 48.8555 108.584 48.3926 107.383C47.9414 108.66 46.9922 109.686 45.7734 110.172L45.2695 109.457ZM47.0391 114.227V110.98H47.9531V113.453H54.0938V114.227H47.0391ZM61.4414 105.203V105.953H55.5469V105.203H58.0781V103.949H58.9922V105.203H61.4414ZM56.168 108.414C56.1562 107.254 57.1172 106.486 58.5234 106.492C59.918 106.486 60.8965 107.254 60.9023 108.414C60.8965 109.58 59.918 110.342 58.5234 110.348C57.1172 110.342 56.1562 109.58 56.168 108.414ZM57.0234 108.414C57.0176 109.146 57.6152 109.639 58.5234 109.633C59.4199 109.639 60.0352 109.146 60.0469 108.414C60.0352 107.682 59.4199 107.195 58.5234 107.184C57.6152 107.195 57.0176 107.682 57.0234 108.414ZM57.2344 112.656C57.2344 111.52 58.5527 110.875 60.7383 110.875C62.9121 110.875 64.2305 111.52 64.2305 112.656C64.2305 113.775 62.9121 114.426 60.7383 114.426C58.5527 114.426 57.2344 113.775 57.2344 112.656ZM58.1836 112.656C58.1895 113.318 59.1562 113.717 60.7383 113.711C62.2969 113.717 63.2578 113.318 63.2578 112.656C63.2578 111.977 62.2969 111.596 60.7383 111.59C59.1562 111.596 58.1895 111.977 58.1836 112.656ZM61.4297 109.328V108.566H63.2461V107.301H61.4414V106.539H63.2461V104.031H64.1719V110.77H63.2461V109.328H61.4297Z" fill="#666666"/>
<rect x="80" y="98.5" width="69" height="22" rx="11" fill="#EEEEEE"/>
<path d="M95.7773 105.086V106.129C95.7656 107.406 95.7656 108.836 95.3906 110.934L94.4531 110.828C94.8457 108.836 94.8457 107.377 94.8516 106.129V105.848H88.4297V105.086H95.7773ZM87.4219 112.973V112.211H91.1484V108.484H92.0508V112.211H96.9141V112.973H87.4219ZM106.43 104.031V110.242H105.504V107.512H103.406V106.75H105.504V104.031H106.43ZM97.8398 109.41C99.3867 108.854 100.488 107.441 100.488 105.953V105.566H98.1328V104.793H103.746V105.566H101.414V105.941C101.414 107.301 102.457 108.596 103.98 109.117L103.5 109.855C102.334 109.434 101.426 108.555 100.975 107.482C100.529 108.701 99.5625 109.674 98.3203 110.148L97.8398 109.41ZM99.4805 112.504C99.4746 111.279 100.805 110.564 102.973 110.57C105.135 110.564 106.465 111.279 106.465 112.504C106.465 113.734 105.135 114.438 102.973 114.449C100.805 114.438 99.4746 113.734 99.4805 112.504ZM100.395 112.504C100.389 113.26 101.373 113.717 102.973 113.711C104.566 113.717 105.551 113.26 105.551 112.504C105.551 111.742 104.566 111.285 102.973 111.285C101.373 111.285 100.389 111.742 100.395 112.504ZM120.715 112.352V113.113H111.176V112.352H115.465V110.102H112.301V104.77H113.227V106.656H118.641V104.77H119.543V110.102H116.367V112.352H120.715ZM113.227 109.352H118.641V107.406H113.227V109.352ZM130.184 104.031V110.348H129.258V107.969H127.488V107.207H129.258V104.031H130.184ZM121.559 105.883V105.133H124.148V103.938H125.051V105.133H127.641V105.883H121.559ZM122.18 108.273C122.18 107.184 123.182 106.422 124.594 106.422C126.012 106.422 127.008 107.184 127.02 108.273C127.008 109.398 126.012 110.137 124.594 110.137C123.182 110.137 122.18 109.398 122.18 108.273ZM123.059 108.273C123.059 108.965 123.686 109.422 124.594 109.434C125.502 109.422 126.129 108.965 126.129 108.273C126.129 107.605 125.502 107.137 124.594 107.137C123.686 107.137 123.059 107.605 123.059 108.273ZM123.375 114.309V110.91H130.184V114.309H123.375ZM124.289 113.559H129.281V111.648H124.289V113.559ZM141.457 112.387V113.16H131.918V112.387H134.602V110.406H133.113V107.195H139.348V105.566H133.09V104.805H140.25V107.957H134.027V109.645H140.496V110.406H138.867V112.387H141.457ZM135.504 112.387H137.965V110.406H135.504V112.387Z" fill="#666666"/>
<line x1="16" y1="136" x2="305" y2="136" stroke="#D5D5D5"/>
<g clip-path="url(#clip0_15_680)">
<path d="M29.375 168.766V170.188H16.4688V168.766H22.0312V166.016H17.8906V158.703H19.625V161.016H26.1719V158.703H27.9062V166.016H23.75V168.766H29.375ZM19.625 164.609H26.1719V162.406H19.625V164.609ZM35.3594 160.312C35.3594 162.047 36.4844 163.672 38.6875 164.344L37.8594 165.703C36.2734 165.211 35.1484 164.203 34.5312 162.922C33.9062 164.406 32.7109 165.586 31.0156 166.156L30.1406 164.781C32.4219 164.031 33.6094 162.203 33.6094 160.328V160.156H30.625V158.75H38.2969V160.156H35.3594V160.312ZM41.4375 157.766V161.156H43.4062V162.578H41.4375V166.188H39.7031V157.766H41.4375ZM36.8438 166.5C39.7656 166.5 41.5625 167.484 41.5781 169.172C41.5625 170.875 39.7656 171.875 36.8438 171.875C33.8906 171.875 32.0625 170.875 32.0625 169.172C32.0625 167.484 33.8906 166.5 36.8438 166.5ZM36.8438 167.859C34.9062 167.859 33.7969 168.312 33.7969 169.172C33.7969 170.047 34.9062 170.516 36.8438 170.516C38.7812 170.516 39.8594 170.047 39.8594 169.172C39.8594 168.312 38.7812 167.859 36.8438 167.859ZM52.3281 161.469C52.3281 163.75 53.125 166.125 55.0312 167.328L54.0781 168.656C52.8047 167.891 51.9766 166.57 51.5156 165.016C51 166.727 50.0938 168.172 48.7656 168.984L47.6875 167.688C49.7344 166.438 50.6562 163.953 50.6562 161.547V159.016H52.3281V161.469ZM60.1094 157.766V171.891H58.4375V157.766H60.1094ZM57.1719 158.016V171.203H55.5312V164.062H53.5156V162.625H55.5312V158.016H57.1719ZM74.6406 165.984V167.359H69.0156V171.891H67.2969V167.359H61.7344V165.984H74.6406ZM65.0156 158.328V160.062H71.3281V158.328H73.0781V164.516H63.2969V158.328H65.0156ZM65.0156 163.109H71.3281V161.438H65.0156V163.109ZM84.4219 161.156C84.4062 163.672 85.6719 166.234 87.8594 167.281L86.7969 168.672C85.2656 167.898 84.1641 166.406 83.5625 164.609C82.9453 166.531 81.7891 168.125 80.1719 168.938L79.1094 167.547C81.375 166.469 82.6719 163.766 82.6875 161.156V158.906H84.4219V161.156ZM90.4375 157.766V163.297H92.6094V164.781H90.4375V171.891H88.7031V157.766H90.4375ZM104.344 157.766V161.484H106.312V162.938H104.344V166.781H102.609V157.766H104.344ZM99.7812 166.906C102.672 166.906 104.5 167.828 104.5 169.391C104.5 170.938 102.672 171.875 99.7812 171.875C96.8438 171.875 95.0469 170.938 95.0625 169.391C95.0469 167.828 96.8438 166.906 99.7812 166.906ZM99.7812 168.234C97.8438 168.234 96.7656 168.609 96.7812 169.391C96.7656 170.141 97.8438 170.562 99.7812 170.562C101.688 170.562 102.766 170.141 102.766 169.391C102.766 168.609 101.688 168.234 99.7812 168.234ZM101.594 159.203V160.562H93.2188V159.203H96.5469V157.672H98.2812V159.203H101.594ZM97.4062 161.125C99.4531 161.125 100.844 162.141 100.859 163.656C100.844 165.172 99.4531 166.172 97.4062 166.172C95.3438 166.172 93.9375 165.172 93.9375 163.656C93.9375 162.141 95.3438 161.125 97.4062 161.125ZM97.4062 162.406C96.3281 162.406 95.625 162.875 95.625 163.656C95.625 164.422 96.3281 164.859 97.4062 164.859C98.4844 164.859 99.2031 164.422 99.2031 163.656C99.2031 162.875 98.4844 162.406 97.4062 162.406Z" fill="black"/>
<path d="M237.996 168.189H228.387V167.275H237.996V168.189ZM233.713 167.533H232.623V164.826H233.713V167.533ZM230.602 161.521H235.758V159.711H236.854V165.119H229.482V159.711H230.602V161.521ZM235.758 164.217V162.418H230.602V164.217H235.758ZM242.215 160.941C242.215 161.586 242.096 162.191 241.857 162.758C241.623 163.32 241.283 163.812 240.838 164.234C240.393 164.652 239.861 164.969 239.244 165.184L238.682 164.299C239.217 164.115 239.682 163.854 240.076 163.514C240.475 163.17 240.781 162.777 240.996 162.336C241.211 161.891 241.318 161.426 241.318 160.941V160.139H242.215V160.941ZM242.42 160.936C242.42 161.377 242.521 161.801 242.725 162.207C242.928 162.609 243.217 162.965 243.592 163.273C243.971 163.578 244.422 163.816 244.945 163.988L244.418 164.861C243.816 164.662 243.299 164.369 242.865 163.982C242.432 163.596 242.098 163.141 241.863 162.617C241.633 162.094 241.518 161.533 241.518 160.936V160.139H242.42V160.936ZM244.693 160.648H239.004V159.746H244.693V160.648ZM247.008 165.295H245.9V158.99H247.008V165.295ZM248.537 162.512H246.697V161.592H248.537V162.512ZM243.615 165.553C244.334 165.553 244.955 165.629 245.479 165.781C246.006 165.934 246.408 166.156 246.686 166.449C246.963 166.742 247.102 167.094 247.102 167.504C247.102 167.914 246.963 168.266 246.686 168.559C246.408 168.855 246.006 169.082 245.479 169.238C244.955 169.398 244.334 169.479 243.615 169.479C242.893 169.479 242.266 169.398 241.734 169.238C241.207 169.082 240.801 168.855 240.516 168.559C240.234 168.266 240.094 167.914 240.094 167.504C240.094 167.094 240.234 166.742 240.516 166.449C240.801 166.156 241.207 165.934 241.734 165.781C242.266 165.629 242.893 165.553 243.615 165.553ZM243.615 166.432C243.119 166.432 242.689 166.473 242.326 166.555C241.963 166.637 241.686 166.758 241.494 166.918C241.307 167.078 241.213 167.273 241.213 167.504C241.213 167.73 241.307 167.928 241.494 168.096C241.686 168.26 241.961 168.385 242.32 168.471C242.68 168.557 243.111 168.6 243.615 168.6C244.127 168.6 244.561 168.557 244.916 168.471C245.275 168.385 245.549 168.26 245.736 168.096C245.924 167.928 246.018 167.73 246.018 167.504C246.018 167.273 245.924 167.078 245.736 166.918C245.549 166.758 245.273 166.637 244.91 166.555C244.551 166.473 244.119 166.432 243.615 166.432ZM257.121 160.438H250.33V159.529H257.121V160.438ZM258.738 164.27H249.129V163.361H258.738V164.27ZM257.52 160.332C257.52 160.938 257.5 161.486 257.461 161.979C257.422 162.471 257.33 163.033 257.186 163.666L256.072 163.613C256.182 163.176 256.26 162.766 256.307 162.383C256.354 161.996 256.383 161.658 256.395 161.369C256.406 161.076 256.412 160.73 256.412 160.332V159.529H257.52V160.332ZM257.537 169.361H250.295V165.605H257.537V169.361ZM251.396 168.459H256.436V166.479H251.396V168.459ZM261.996 159.641C262.453 159.641 262.865 159.748 263.232 159.963C263.6 160.174 263.887 160.471 264.094 160.854C264.305 161.232 264.41 161.666 264.41 162.154C264.41 162.639 264.305 163.068 264.094 163.443C263.887 163.818 263.6 164.111 263.232 164.322C262.865 164.533 262.453 164.639 261.996 164.639C261.531 164.639 261.115 164.533 260.748 164.322C260.385 164.111 260.102 163.818 259.898 163.443C259.695 163.068 259.594 162.639 259.594 162.154C259.594 161.666 259.695 161.232 259.898 160.854C260.105 160.471 260.391 160.174 260.754 159.963C261.117 159.748 261.531 159.641 261.996 159.641ZM261.996 160.602C261.73 160.602 261.49 160.668 261.275 160.801C261.061 160.93 260.893 161.111 260.771 161.346C260.654 161.576 260.596 161.846 260.596 162.154C260.596 162.451 260.654 162.719 260.771 162.957C260.893 163.195 261.061 163.381 261.275 163.514C261.49 163.646 261.73 163.713 261.996 163.713C262.266 163.713 262.506 163.646 262.717 163.514C262.932 163.381 263.098 163.195 263.215 162.957C263.336 162.719 263.396 162.451 263.396 162.154C263.396 161.846 263.336 161.574 263.215 161.34C263.098 161.102 262.934 160.92 262.723 160.795C262.512 160.666 262.27 160.602 261.996 160.602ZM268.453 165.26H267.393V159.002H268.453V165.26ZM267.715 162.559H265.805V161.656H267.715V162.559ZM266.18 165.195H265.137V159.195H266.18V165.195ZM268.453 169.49H267.357V166.695H261.316V165.805H268.453V169.49ZM280.84 161.791H277.904V160.871H280.84V161.791ZM280.881 164.029H277.904V163.121H280.881V164.029ZM281.555 166.766H280.441V159.002H281.555V166.766ZM281.789 169.285H274.693V168.365H281.789V169.285ZM275.818 168.846H274.693V165.998H275.818V168.846ZM274.412 161.475H277.049V159.699H278.145V165.02H273.305V159.699H274.412V161.475ZM277.049 164.117V162.342H274.412V164.117H277.049ZM291 161.756H288.252V160.871H291V161.756ZM290.924 163.941H288.17V163.033H290.924V163.941ZM291.926 165.225H290.812V159.002H291.926V165.225ZM288.645 159.758C288.645 160.66 288.451 161.475 288.064 162.201C287.678 162.928 287.119 163.549 286.389 164.064C285.662 164.576 284.783 164.982 283.752 165.283L283.295 164.404C284.193 164.15 284.951 163.82 285.568 163.414C286.189 163.004 286.658 162.533 286.975 162.002C287.295 161.471 287.455 160.895 287.455 160.273V159.758H288.645ZM288.217 160.672H283.84V159.758H288.217V160.672ZM288.469 165.336C289.176 165.336 289.795 165.42 290.326 165.588C290.861 165.752 291.271 165.986 291.557 166.291C291.846 166.596 291.99 166.961 291.99 167.387C291.99 167.809 291.846 168.176 291.557 168.488C291.271 168.797 290.861 169.033 290.326 169.197C289.795 169.361 289.176 169.443 288.469 169.443C287.758 169.443 287.137 169.361 286.605 169.197C286.074 169.033 285.662 168.797 285.369 168.488C285.08 168.176 284.936 167.809 284.936 167.387C284.936 166.961 285.08 166.596 285.369 166.291C285.662 165.986 286.074 165.752 286.605 165.588C287.137 165.42 287.758 165.336 288.469 165.336ZM288.469 166.215C287.977 166.207 287.545 166.25 287.174 166.344C286.807 166.438 286.523 166.574 286.324 166.754C286.129 166.93 286.031 167.141 286.031 167.387C286.031 167.629 286.129 167.838 286.324 168.014C286.523 168.186 286.805 168.318 287.168 168.412C287.535 168.506 287.969 168.553 288.469 168.553C288.961 168.553 289.387 168.506 289.746 168.412C290.109 168.318 290.389 168.186 290.584 168.014C290.783 167.838 290.883 167.629 290.883 167.387C290.883 167.141 290.783 166.93 290.584 166.754C290.389 166.574 290.109 166.438 289.746 166.344C289.387 166.25 288.961 166.207 288.469 166.215Z" fill="#9799A5"/>
<path d="M302.678 166.878L298.133 162.712C298.091 162.673 298.057 162.627 298.035 162.576C298.012 162.526 298 162.472 298 162.417C298 162.362 298.012 162.308 298.035 162.257C298.057 162.207 298.091 162.161 298.133 162.122C298.175 162.083 298.226 162.053 298.281 162.032C298.336 162.011 298.395 162 298.455 162C298.514 162 298.574 162.011 298.629 162.032C298.684 162.053 298.734 162.083 298.776 162.122L303 165.994L307.224 162.122C307.309 162.044 307.425 162 307.545 162C307.666 162 307.782 162.044 307.867 162.122C307.952 162.2 308 162.306 308 162.417C308 162.527 307.952 162.633 307.867 162.712L303.322 166.878C303.279 166.917 303.229 166.947 303.174 166.968C303.119 166.989 303.06 167 303 167C302.94 167 302.881 166.989 302.826 166.968C302.771 166.947 302.721 166.917 302.678 166.878Z" fill="#9799A5"/>
</g>
<g clip-path="url(#clip1_15_680)">
<path d="M26.0762 202.46H24.7842V195.405H26.0762V202.46ZM27.8604 199.391H25.7139V198.345H27.8604V199.391ZM26.0762 207.505H18.249V203.021H26.0762V207.505ZM19.5273 206.452H24.791V204.06H19.5273V206.452ZM19.8965 196.13C20.5163 196.121 21.0723 196.239 21.5645 196.485C22.0612 196.731 22.4508 197.078 22.7334 197.524C23.0205 197.966 23.1641 198.47 23.1641 199.035C23.1641 199.6 23.0205 200.102 22.7334 200.539C22.4508 200.972 22.0612 201.314 21.5645 201.564C21.0723 201.811 20.5163 201.938 19.8965 201.947C19.2767 201.938 18.7184 201.811 18.2217 201.564C17.7295 201.314 17.3421 200.972 17.0596 200.539C16.777 200.102 16.6357 199.6 16.6357 199.035C16.6357 198.47 16.777 197.966 17.0596 197.524C17.3421 197.078 17.7295 196.731 18.2217 196.485C18.7139 196.239 19.2721 196.121 19.8965 196.13ZM19.8965 197.224C19.5182 197.219 19.1764 197.292 18.8711 197.442C18.5703 197.593 18.3333 197.807 18.1602 198.085C17.9915 198.358 17.9072 198.675 17.9072 199.035C17.9072 199.391 17.9915 199.707 18.1602 199.985C18.3333 200.259 18.5703 200.471 18.8711 200.621C19.1764 200.767 19.5182 200.844 19.8965 200.854C20.2747 200.844 20.6165 200.767 20.9219 200.621C21.2272 200.471 21.4642 200.259 21.6328 199.985C21.806 199.707 21.8926 199.391 21.8926 199.035C21.8926 198.675 21.806 198.358 21.6328 198.085C21.4642 197.807 21.2272 197.593 20.9219 197.442C20.6165 197.292 20.2747 197.219 19.8965 197.224Z" fill="#9799A5"/>
<path d="M251.523 201.621V203.332C252.443 203.285 253.369 203.203 254.242 203.074L254.348 204.035C251.969 204.469 249.426 204.492 247.562 204.492L247.398 203.438C248.225 203.432 249.197 203.426 250.223 203.391V201.621H251.523ZM253.809 197.25V198.305H251.547C251.605 199.436 252.502 200.455 254.102 200.859L253.504 201.879C252.25 201.539 251.354 200.807 250.879 199.863C250.41 200.859 249.525 201.621 248.266 201.961L247.645 200.977C249.244 200.537 250.123 199.494 250.199 198.305H247.961V197.25H250.223V196.043H251.523V197.25H253.809ZM256.176 195.949V206.555H254.875V195.949H256.176ZM266.84 195.949V206.543H265.598V201.141H264.402V206.004H263.207V196.148H264.402V200.098H265.598V195.949H266.84ZM262.012 197.203V198.258H259.363V202.969C260.518 202.957 261.467 202.898 262.539 202.699L262.633 203.766C261.355 204.023 260.242 204.059 258.766 204.07H258.051V197.203H262.012ZM274.738 197.016V205.5H273.203V198.504H273.156L271.176 199.77V198.375L273.273 197.016H274.738ZM280.258 198.457C280.258 199.723 281.137 200.941 282.812 201.457L282.18 202.477C280.979 202.113 280.111 201.346 279.625 200.367C279.156 201.422 278.283 202.254 277.047 202.652L276.414 201.633C278.078 201.105 278.957 199.816 278.957 198.457V198.293H276.742V197.262H278.957V196.02H280.27V197.262H282.473V198.293H280.258V198.457ZM285.32 195.961V203.824H284.02V200.156H282.121V199.113H284.02V195.961H285.32ZM285.59 205.277V206.332H278.371V203.145H279.672V205.277H285.59ZM292.199 196.863V201.867H287.184V196.863H292.199ZM288.461 197.906V200.836H290.922V197.906H288.461ZM295.176 195.949V199.055H296.652V200.145H295.176V203.684H293.875V195.949H295.176ZM295.598 205.277V206.332H288.391V202.934H289.691V205.277H295.598ZM306.074 195.961V203.977H304.762V203.051H302.688V202.137H304.762V195.961H306.074ZM306.32 205.277V206.332H298.551V203.203H299.852V205.277H306.32ZM297.145 200.719C299.102 200.707 301.727 200.684 303.977 200.402L304.047 201.34C303.174 201.486 302.271 201.586 301.375 201.645V203.684H300.074V201.715C299.084 201.756 298.141 201.762 297.309 201.762L297.145 200.719ZM300.602 196.348C302.148 196.348 303.227 197.109 303.238 198.223C303.227 199.359 302.148 200.086 300.602 200.086C299.031 200.086 297.953 199.359 297.953 198.223C297.953 197.109 299.031 196.348 300.602 196.348ZM300.602 197.309C299.758 197.309 299.184 197.648 299.184 198.223C299.184 198.797 299.758 199.137 300.602 199.137C301.41 199.137 301.984 198.797 301.996 198.223C301.984 197.648 301.41 197.309 300.602 197.309Z" fill="black"/>
</g>
<g clip-path="url(#clip2_15_680)">
<path d="M26.5957 227.708H25.3174V221.405H26.5957V227.708ZM26.6094 231.365H19.8623V232.924H18.5908V230.374H25.3242V229.321H18.5635V228.296H26.6094V231.365ZM27.0195 233.539H18.5908V232.5H27.0195V233.539ZM20.6621 222.67C20.6621 223.426 20.5186 224.137 20.2314 224.803C19.9443 225.468 19.5365 226.047 19.0078 226.539C18.4792 227.031 17.8594 227.398 17.1484 227.64L16.4854 226.614C17.1188 226.4 17.668 226.095 18.1328 225.698C18.5977 225.297 18.9554 224.835 19.2061 224.311C19.4567 223.782 19.582 223.235 19.582 222.67V221.733H20.6621V222.67ZM20.915 222.67C20.915 223.221 21.0358 223.745 21.2773 224.242C21.5234 224.739 21.8766 225.174 22.3369 225.548C22.7972 225.922 23.3372 226.209 23.957 226.409L23.3213 227.414C22.6149 227.177 21.9974 226.826 21.4688 226.361C20.9447 225.896 20.5391 225.347 20.252 224.714C19.9648 224.08 19.8213 223.399 19.8213 222.67V221.733H20.915V222.67ZM38.7021 233.689H37.3965V221.405H38.7021V233.689ZM30.5264 225.582H33.835V222.431H35.1064V230.757H29.2344V222.431H30.5264V225.582ZM33.835 229.684V226.607H30.5264V229.684H33.835Z" fill="#9799A5"/>
<path d="M249.523 227.621V229.332C250.443 229.285 251.369 229.203 252.242 229.074L252.348 230.035C249.969 230.469 247.426 230.492 245.562 230.492L245.398 229.438C246.225 229.432 247.197 229.426 248.223 229.391V227.621H249.523ZM251.809 223.25V224.305H249.547C249.605 225.436 250.502 226.455 252.102 226.859L251.504 227.879C250.25 227.539 249.354 226.807 248.879 225.863C248.41 226.859 247.525 227.621 246.266 227.961L245.645 226.977C247.244 226.537 248.123 225.494 248.199 224.305H245.961V223.25H248.223V222.043H249.523V223.25H251.809ZM254.176 221.949V232.555H252.875V221.949H254.176ZM264.84 221.949V232.543H263.598V227.141H262.402V232.004H261.207V222.148H262.402V226.098H263.598V221.949H264.84ZM260.012 223.203V224.258H257.363V228.969C258.518 228.957 259.467 228.898 260.539 228.699L260.633 229.766C259.355 230.023 258.242 230.059 256.766 230.07H256.051V223.203H260.012ZM272.305 231.617C270.605 231.617 269.363 230.609 269.316 229.203H270.805C270.852 229.895 271.496 230.387 272.305 230.387C273.254 230.387 273.934 229.695 273.934 228.758C273.934 227.785 273.23 227.094 272.258 227.094C271.602 227.082 271.121 227.316 270.852 227.82H269.434L269.949 223.016H274.965V224.293H271.203L270.945 226.543H271.027C271.355 226.168 271.977 225.898 272.668 225.898C274.25 225.898 275.41 227.082 275.41 228.711C275.41 230.41 274.133 231.617 272.305 231.617ZM280.156 224.457C280.156 225.723 281.035 226.941 282.711 227.457L282.078 228.477C280.877 228.113 280.01 227.346 279.523 226.367C279.055 227.422 278.182 228.254 276.945 228.652L276.312 227.633C277.977 227.105 278.855 225.816 278.855 224.457V224.293H276.641V223.262H278.855V222.02H280.168V223.262H282.371V224.293H280.156V224.457ZM285.219 221.961V229.824H283.918V226.156H282.02V225.113H283.918V221.961H285.219ZM285.488 231.277V232.332H278.27V229.145H279.57V231.277H285.488ZM292.098 222.863V227.867H287.082V222.863H292.098ZM288.359 223.906V226.836H290.82V223.906H288.359ZM295.074 221.949V225.055H296.551V226.145H295.074V229.684H293.773V221.949H295.074ZM295.496 231.277V232.332H288.289V228.934H289.59V231.277H295.496ZM305.973 221.961V229.977H304.66V229.051H302.586V228.137H304.66V221.961H305.973ZM306.219 231.277V232.332H298.449V229.203H299.75V231.277H306.219ZM297.043 226.719C299 226.707 301.625 226.684 303.875 226.402L303.945 227.34C303.072 227.486 302.17 227.586 301.273 227.645V229.684H299.973V227.715C298.982 227.756 298.039 227.762 297.207 227.762L297.043 226.719ZM300.5 222.348C302.047 222.348 303.125 223.109 303.137 224.223C303.125 225.359 302.047 226.086 300.5 226.086C298.93 226.086 297.852 225.359 297.852 224.223C297.852 223.109 298.93 222.348 300.5 222.348ZM300.5 223.309C299.656 223.309 299.082 223.648 299.082 224.223C299.082 224.797 299.656 225.137 300.5 225.137C301.309 225.137 301.883 224.797 301.895 224.223C301.883 223.648 301.309 223.309 300.5 223.309Z" fill="black"/>
</g>
<rect x="0.5" y="278.5" width="323" height="131" rx="4.5" stroke="#FF7417"/>
<rect x="16" y="296.5" width="56" height="25" rx="12.5" fill="#FF7417"/>
<path d="M26.0664 313.5L26.4834 310.943H24.3506L23.9336 313.5H22.5801L22.9971 310.943H21.6094L21.8281 309.604H23.2227L23.5645 307.498H22.1836L22.4023 306.158H23.79L24.207 303.602H25.5605L25.1436 306.158H27.2764L27.6934 303.602H29.0332L28.6162 306.158H30.0176L29.7852 307.498H28.3906L28.0488 309.604H29.4434L29.2246 310.943H27.8232L27.4062 313.5H26.0664ZM24.5762 309.604H26.709L27.0508 307.498H24.918L24.5762 309.604ZM40.2852 302.357V305.215H42.0078V306.445H40.2852V309.426H38.7676V302.357H40.2852ZM30.6738 306.021C30.667 304.278 32.1025 303.055 34.0098 303.068C35.9102 303.055 37.332 304.278 37.3457 306.021C37.332 307.758 35.9102 308.981 34.0098 308.988C32.1025 308.981 30.667 307.758 30.6738 306.021ZM32.1641 306.021C32.1572 307.047 32.9434 307.696 34.0098 307.703C35.0625 307.696 35.8486 307.047 35.8555 306.021C35.8486 305.003 35.0625 304.333 34.0098 304.34C32.9434 304.333 32.1572 305.003 32.1641 306.021ZM32.3008 314.566V309.973H40.2852V314.566H32.3008ZM33.8047 313.336H38.7812V311.176H33.8047V313.336ZM53.9297 311.982V313.227H42.6367V311.982H47.5039V309.576H43.8809V303.178H45.3984V305.201H51.127V303.178H52.6445V309.576H49.0078V311.982H53.9297ZM45.3984 308.346H51.127V306.418H45.3984V308.346ZM65.0859 302.357V309.836H63.5684V307.279H61.8047V306.021H63.5684V302.357H65.0859ZM54.7637 304.736V303.506H57.6348V302.262H59.1387V303.506H62.0098V304.736H54.7637ZM55.4609 307.43C55.4541 306.131 56.6777 305.215 58.3867 305.215C60.1094 305.215 61.3193 306.131 61.3262 307.43C61.3193 308.763 60.1094 309.645 58.3867 309.645C56.6777 309.645 55.4541 308.763 55.4609 307.43ZM56.8691 314.566V310.396H65.0859V314.566H56.8691ZM56.9102 307.43C56.9102 308.113 57.498 308.51 58.3867 308.51C59.2686 308.51 59.8633 308.113 59.8633 307.43C59.8633 306.767 59.2686 306.363 58.3867 306.363C57.498 306.363 56.9102 306.767 56.9102 307.43ZM58.3867 313.336H63.5957V311.6H58.3867V313.336Z" fill="white"/>
<path d="M19.1055 345.5H16.3906L21.3711 331.359H24.4961L29.4961 345.5H26.7812L25.5996 342.004H20.2773L19.1055 345.5ZM20.9609 339.953H24.916L22.9922 334.25H22.875L20.9609 339.953ZM33.7148 331.359V345.5H31.1758V331.359H33.7148ZM38.1484 345.5H35.4336L40.4141 331.359H43.5391L48.5391 345.5H45.8242L44.6426 342.004H39.3203L38.1484 345.5ZM40.0039 339.953H43.959L42.0352 334.25H41.918L40.0039 339.953ZM59.75 332.863C59.7598 334.768 60.873 336.691 63.1875 337.57L62.0352 339.23C60.4629 338.635 59.3691 337.502 58.7344 336.135C58.0898 337.707 56.9375 339.055 55.2578 339.758L54.0859 338.098C56.5176 337.023 57.6504 334.816 57.6602 332.863V330.676H59.75V332.863ZM57.3281 343.957C57.3184 341.926 59.6621 340.715 63.3828 340.715C67.0742 340.715 69.4277 341.926 69.4375 343.957C69.4277 345.998 67.0742 347.219 63.3828 347.219C59.6621 347.219 57.3184 345.998 57.3281 343.957ZM59.4961 343.957C59.4863 345.002 60.9316 345.568 63.3828 345.559C65.7949 345.568 67.2402 345.002 67.25 343.957C67.2402 342.922 65.7949 342.355 63.3828 342.355C60.9316 342.355 59.4863 342.922 59.4961 343.957ZM63.4805 339.875V329.934H65.5117V334.055H67.2695V329.602H69.3398V340.422H67.2695V335.832H65.5117V339.875H63.4805ZM86.3125 329.582V339.973H84.1445V337.531H80.5898V338.898H72.2891V330.91H80.5898V332.277H84.1445V329.582H86.3125ZM74.3398 343.84C74.3203 341.691 76.6152 340.432 80.3359 340.441C84.0762 340.432 86.3613 341.691 86.3711 343.84C86.3613 345.988 84.0762 347.219 80.3359 347.219C76.6152 347.219 74.3203 345.988 74.3398 343.84ZM74.457 337.16H78.4414V332.629H74.457V337.16ZM76.4883 343.84C76.4785 344.934 77.8848 345.539 80.3359 345.539C82.8066 345.539 84.2031 344.934 84.2031 343.84C84.2031 342.697 82.8066 342.111 80.3359 342.102C77.8848 342.111 76.4785 342.697 76.4883 343.84ZM80.5898 335.773H84.1445V333.996H80.5898V335.773ZM107.484 329.582V333.664H109.945V335.422H107.484V339.68H105.316V329.582H107.484ZM93.7539 334.816C93.7441 332.326 95.7949 330.578 98.5195 330.598C101.234 330.578 103.266 332.326 103.285 334.816C103.266 337.297 101.234 339.045 98.5195 339.055C95.7949 339.045 93.7441 337.297 93.7539 334.816ZM95.8828 334.816C95.873 336.281 96.9961 337.209 98.5195 337.219C100.023 337.209 101.146 336.281 101.156 334.816C101.146 333.361 100.023 332.404 98.5195 332.414C96.9961 332.404 95.873 333.361 95.8828 334.816ZM96.0781 347.023V340.461H107.484V347.023H96.0781ZM98.2266 345.266H105.336V342.18H98.2266V345.266ZM126.977 343.332V345.109H110.844V343.332H117.797V339.895H112.621V330.754H114.789V333.645H122.973V330.754H125.141V339.895H119.945V343.332H126.977ZM114.789 338.137H122.973V335.383H114.789V338.137ZM142.914 329.582V340.266H140.746V336.613H138.227V334.816H140.746V329.582H142.914ZM128.168 332.98V331.223H132.27V329.445H134.418V331.223H138.52V332.98H128.168ZM129.164 336.828C129.154 334.973 130.902 333.664 133.344 333.664C135.805 333.664 137.533 334.973 137.543 336.828C137.533 338.732 135.805 339.992 133.344 339.992C130.902 339.992 129.154 338.732 129.164 336.828ZM131.176 347.023V341.066H142.914V347.023H131.176ZM131.234 336.828C131.234 337.805 132.074 338.371 133.344 338.371C134.604 338.371 135.453 337.805 135.453 336.828C135.453 335.881 134.604 335.305 133.344 335.305C132.074 335.305 131.234 335.881 131.234 336.828ZM133.344 345.266H140.785V342.785H133.344V345.266Z" fill="black"/>
<path d="M301.192 325.442L294.942 331.692C294.884 331.75 294.815 331.796 294.739 331.828C294.663 331.859 294.582 331.875 294.5 331.875C294.418 331.875 294.336 331.859 294.261 331.828C294.185 331.796 294.116 331.75 294.058 331.692C294 331.634 293.954 331.565 293.922 331.489C293.891 331.414 293.875 331.332 293.875 331.25C293.875 331.168 293.891 331.087 293.922 331.011C293.954 330.935 294 330.866 294.058 330.808L299.866 325L294.058 319.192C293.94 319.075 293.875 318.916 293.875 318.75C293.875 318.584 293.94 318.425 294.058 318.308C294.175 318.191 294.334 318.125 294.5 318.125C294.666 318.125 294.825 318.191 294.942 318.308L301.192 324.558C301.25 324.616 301.296 324.685 301.328 324.761C301.359 324.837 301.375 324.918 301.375 325C301.375 325.082 301.359 325.164 301.328 325.239C301.296 325.315 301.25 325.384 301.192 325.442Z" fill="black"/>
<rect x="16" y="369.5" width="62" height="22" rx="11" fill="#EEEEEE"/>
<path d="M26.3711 380.527V382.449C27.3789 382.396 28.3984 382.314 29.3594 382.168L29.4297 382.848C27.0449 383.281 24.4844 383.299 22.6094 383.293L22.4805 382.531C23.3535 382.525 24.3848 382.52 25.4688 382.484V380.527H26.3711ZM22.7969 380.164C24.3379 379.707 25.4219 378.564 25.4453 377.164H23.0547V376.402H25.4688V375.113H26.3711V376.402H28.8203V377.164H26.3711C26.4004 378.506 27.5137 379.607 29.0547 380.047L28.6211 380.773C27.373 380.398 26.3887 379.596 25.9199 378.541C25.4688 379.654 24.4961 380.486 23.2422 380.867L22.7969 380.164ZM30.0508 385.473V375.031H30.9648V385.473H30.0508ZM42.332 383.363V384.137H32.793V383.363H37.0938V380.973H37.9961V383.363H42.332ZM33.3203 380.621C35.3301 380.299 37.0703 379.086 37.082 377.457H33.6836V376.695H37.0938V375.254H37.9961V376.695H41.418V377.457H38.0195C38.0195 379.086 39.7598 380.299 41.7578 380.621L41.4062 381.348C39.7422 381.055 38.2129 380.211 37.5449 378.904C36.8887 380.211 35.3594 381.055 33.6836 381.348L33.3203 380.621ZM49.5508 376.016V384.5H48.4844V377.117H48.4375L46.375 378.488V377.422L48.4844 376.016H49.5508ZM59.9805 375.031V385.449H59.0664V375.031H59.9805ZM51.4961 382.672C52.3867 382.666 53.4062 382.66 54.4609 382.625V381.488C53.207 381.359 52.3984 380.645 52.4102 379.602C52.3984 378.424 53.4004 377.662 54.9062 377.668C56.4121 377.662 57.4316 378.424 57.4258 379.602C57.4316 380.633 56.623 381.348 55.3867 381.488V382.59C56.3945 382.543 57.4141 382.473 58.375 382.344L58.4453 383.047C56.1191 383.422 53.5703 383.457 51.6367 383.457L51.4961 382.672ZM51.7188 377.07V376.32H54.4609V375.043H55.3867V376.32H58.1055V377.07H51.7188ZM53.2656 379.602C53.2598 380.322 53.9395 380.797 54.9062 380.785C55.8789 380.797 56.5527 380.322 56.5469 379.602C56.5527 378.875 55.8789 378.383 54.9062 378.383C53.9395 378.383 53.2598 378.875 53.2656 379.602ZM69.9531 375.043V378.477H71.5234V379.25H69.9531V382.848H69.0391V375.043H69.9531ZM61.832 377.07V376.32H64.4805V375.043H65.3945V376.32H68.043V377.07H61.832ZM62.4297 379.59C62.4238 378.406 63.4316 377.645 64.9375 377.645C66.4258 377.645 67.4336 378.406 67.4453 379.59C67.4336 380.762 66.4258 381.518 64.9375 381.512C63.4316 381.518 62.4238 380.762 62.4297 379.59ZM63.3086 379.59C63.3027 380.322 63.9531 380.797 64.9375 380.785C65.9102 380.797 66.5664 380.322 66.5781 379.59C66.5664 378.846 65.9102 378.365 64.9375 378.371C63.9531 378.365 63.3027 378.846 63.3086 379.59ZM63.4375 385.227V382.227H64.3398V384.453H70.4336V385.227H63.4375Z" fill="#666666"/>
<rect x="84" y="369.5" width="129" height="22" rx="11" fill="#EEEEEE"/>
<path d="M91.375 375.418C92.9336 375.424 94.0645 376.373 94.0703 377.727C94.0645 379.086 92.9336 380.023 91.375 380.023C89.7988 380.023 88.6621 379.086 88.668 377.727C88.6621 376.373 89.7988 375.424 91.375 375.418ZM89.5703 377.727C89.5586 378.641 90.3262 379.273 91.375 379.273C92.4062 379.273 93.1797 378.641 93.1797 377.727C93.1797 376.824 92.4062 376.186 91.375 376.191C90.3262 376.186 89.5586 376.824 89.5703 377.727ZM90.25 381.629V380.891H97.0234V383.398H91.1758V384.57H97.3984V385.309H90.2734V382.707H96.1094V381.629H90.25ZM96.1094 380.387V375.031H97.0234V380.387H96.1094ZM106.938 375.043V378.195H108.508V378.969H106.938V382.695H106.023V375.043H106.938ZM99.2383 380.938V375.793H100.141V377.551H103.176V375.793H104.09V380.938H99.2383ZM100.141 380.188H103.176V378.277H100.141V380.188ZM100.422 385.227V381.945H101.324V384.453H107.418V385.227H100.422ZM117.309 375.031V377.609H118.879V378.359H117.309V381.066H116.395V375.031H117.309ZM109.363 378.113C109.357 376.66 110.518 375.658 112.094 375.664C113.682 375.658 114.824 376.66 114.836 378.113C114.824 379.561 113.682 380.557 112.094 380.562C110.518 380.557 109.357 379.561 109.363 378.113ZM110.266 378.113C110.26 379.098 111.039 379.777 112.094 379.789C113.16 379.777 113.928 379.098 113.934 378.113C113.928 377.135 113.16 376.438 112.094 376.449C111.039 376.438 110.26 377.135 110.266 378.113ZM110.734 385.309V381.559H117.309V385.309H110.734ZM111.637 384.559H116.395V382.309H111.637V384.559ZM128.465 375.031V385.449H127.574V375.031H128.465ZM119.664 379.531C119.67 377.316 120.549 375.916 121.902 375.91C123.168 375.916 124.023 377.135 124.141 379.098H125.488V375.254H126.367V384.922H125.488V379.859H124.146C124.059 381.887 123.186 383.158 121.902 383.152C120.549 383.158 119.67 381.746 119.664 379.531ZM120.531 379.531C120.52 381.219 121.059 382.285 121.902 382.273C122.752 382.285 123.291 381.219 123.285 379.531C123.291 377.838 122.752 376.777 121.902 376.777C121.059 376.777 120.52 377.838 120.531 379.531ZM138.32 379.918V380.668H135.098V383.363H139.445V384.137H129.906V383.363H134.195V380.668H131.125V375.887H138.215V376.637H132.051V379.918H138.32ZM152.793 380.293V381.043H143.289V380.293H152.793ZM144.496 379.145V375.488H151.609V376.238H145.41V378.383H151.703V379.145H144.496ZM144.52 385.215V382.168H145.434V384.441H151.785V385.215H144.52ZM163.164 380.293V381.043H153.66V380.293H163.164ZM154.867 379.145V375.488H161.98V376.238H155.781V378.383H162.074V379.145H154.867ZM154.891 385.215V382.168H155.805V384.441H162.156V385.215H154.891ZM172.176 375.043V378.477H173.746V379.25H172.176V382.848H171.262V375.043H172.176ZM164.055 377.07V376.32H166.703V375.043H167.617V376.32H170.266V377.07H164.055ZM164.652 379.59C164.646 378.406 165.654 377.645 167.16 377.645C168.648 377.645 169.656 378.406 169.668 379.59C169.656 380.762 168.648 381.518 167.16 381.512C165.654 381.518 164.646 380.762 164.652 379.59ZM165.531 379.59C165.525 380.322 166.176 380.797 167.16 380.785C168.133 380.797 168.789 380.322 168.801 379.59C168.789 378.846 168.133 378.365 167.16 378.371C166.176 378.365 165.525 378.846 165.531 379.59ZM165.66 385.227V382.227H166.562V384.453H172.656V385.227H165.66ZM181.164 377.27C181.17 378.676 182.277 379.941 183.836 380.434L183.367 381.172C182.154 380.756 181.193 379.9 180.719 378.805C180.268 379.988 179.289 380.926 178.047 381.383L177.566 380.645C179.131 380.1 180.232 378.746 180.238 377.27V376.66H177.801V375.91H183.566V376.66H181.164V377.27ZM179.289 385.227V381.957H180.203V384.453H186.344V385.227H179.289ZM185.102 382.684V375.043H186.016V382.684H185.102ZM195.93 375.031V378.137H197.512V378.91H195.93V382.578H195.016V375.031H195.93ZM188.277 380.727V375.934H192.918V376.707H189.191V379.953C191.283 379.959 192.473 379.895 193.867 379.613L193.984 380.375C192.52 380.656 191.277 380.727 189.086 380.727H188.277ZM189.414 385.227V381.816H190.316V384.453H196.41V385.227H189.414ZM206.441 375.594V376.367C206.441 377.176 206.441 378.125 206.166 379.426H207.695V380.188H198.156V379.426H205.24C205.533 378.113 205.533 377.176 205.527 376.367V376.355H199.363V375.594H206.441ZM199.328 385.309V381.629H206.488V385.309H199.328ZM200.242 384.559H205.574V382.355H200.242V384.559Z" fill="#666666"/>
<rect x="0.5" y="426.5" width="323" height="131" rx="4.5" stroke="#FF7417"/>
<rect x="16" y="444.5" width="70" height="25" rx="12.5" fill="#FF7417"/>
<path d="M26.5664 461.5L26.9834 458.943H24.8506L24.4336 461.5H23.0801L23.4971 458.943H22.1094L22.3281 457.604H23.7227L24.0645 455.498H22.6836L22.9023 454.158H24.29L24.707 451.602H26.0605L25.6436 454.158H27.7764L28.1934 451.602H29.5332L29.1162 454.158H30.5176L30.2852 455.498H28.8906L28.5488 457.604H29.9434L29.7246 458.943H28.3232L27.9062 461.5H26.5664ZM25.0762 457.604H27.209L27.5508 455.498H25.418L25.0762 457.604ZM41.3047 450.357V462.717H39.7871V450.357H41.3047ZM31.1602 459.203C33.1289 458.335 34.2637 456.257 34.2637 454.281V453.639H31.543V452.422H34.2637V450.617H35.7676V452.422H38.4336V453.639H35.7812V454.281C35.7744 456.161 36.9297 458.178 38.9258 459.012L38.0918 460.174C36.6768 459.572 35.6104 458.342 35.043 456.852C34.4893 458.431 33.4229 459.75 31.9805 460.379L31.1602 459.203ZM46.459 451.26C48.3184 451.26 49.6582 452.955 49.6719 455.621C49.6582 458.308 48.3184 459.996 46.459 459.996C44.5791 459.996 43.2393 458.308 43.2461 455.621C43.2393 452.955 44.5791 451.26 46.459 451.26ZM44.709 455.621C44.7021 457.521 45.4199 458.622 46.459 458.629C47.5049 458.622 48.2021 457.521 48.209 455.621C48.2021 453.734 47.5049 452.627 46.459 452.627C45.4199 452.627 44.7021 453.734 44.709 455.621ZM51.2988 462.717V450.357H52.8164V455.102H54.7168V456.387H52.8164V462.717H51.2988ZM66.5293 459.982V461.227H55.2363V459.982H60.1035V457.576H56.4805V451.178H57.998V453.201H63.7266V451.178H65.2441V457.576H61.6074V459.982H66.5293ZM57.998 456.346H63.7266V454.418H57.998V456.346ZM77.6855 450.357V457.836H76.168V455.279H74.4043V454.021H76.168V450.357H77.6855ZM67.3633 452.736V451.506H70.2344V450.262H71.7383V451.506H74.6094V452.736H67.3633ZM68.0605 455.43C68.0537 454.131 69.2773 453.215 70.9863 453.215C72.709 453.215 73.9189 454.131 73.9258 455.43C73.9189 456.763 72.709 457.645 70.9863 457.645C69.2773 457.645 68.0537 456.763 68.0605 455.43ZM69.4688 462.566V458.396H77.6855V462.566H69.4688ZM69.5098 455.43C69.5098 456.113 70.0977 456.51 70.9863 456.51C71.8682 456.51 72.4629 456.113 72.4629 455.43C72.4629 454.767 71.8682 454.363 70.9863 454.363C70.0977 454.363 69.5098 454.767 69.5098 455.43ZM70.9863 461.336H76.1953V459.6H70.9863V461.336Z" fill="white"/>
<path d="M30.4141 477.582V484.359H33.1289V486.176H30.4141V495.258H28.2656V477.582H30.4141ZM17.2891 480.883V479.125H25.4141V485.785H19.4766V489.301C22.2793 489.281 24.457 489.164 26.918 488.734L27.1133 490.492C24.3887 490.98 21.9863 491.098 18.7734 491.098H17.3281V484.047H23.2461V480.883H17.2891ZM48.5586 477.582V495.258H46.3711V477.582H48.5586ZM34.4375 485.102C34.4277 481.293 36.3711 478.871 39.0469 478.871C41.6934 478.871 43.6465 481.293 43.6562 485.102C43.6465 488.939 41.6934 491.352 39.0469 491.352C36.3711 491.352 34.4277 488.939 34.4375 485.102ZM36.5273 485.102C36.5273 487.816 37.5527 489.389 39.0469 489.398C40.5312 489.389 41.5469 487.816 41.5469 485.102C41.5469 482.406 40.5312 480.824 39.0469 480.824C37.5527 480.824 36.5273 482.406 36.5273 485.102ZM67.6016 484.398V486.176H64.9844V495.199H62.8164V477.582H64.9844V484.398H67.6016ZM51.7812 490.844V479.301H53.9297V489.047C56.2832 489.008 58.7832 488.803 61.4492 488.246L61.6836 490.082C58.7051 490.678 55.8828 490.834 53.2656 490.844H51.7812ZM73.9492 480.863C73.959 482.768 75.0723 484.691 77.3867 485.57L76.2344 487.23C74.6621 486.635 73.5684 485.502 72.9336 484.135C72.2891 485.707 71.1367 487.055 69.457 487.758L68.2852 486.098C70.7168 485.023 71.8496 482.816 71.8594 480.863V478.676H73.9492V480.863ZM71.5273 491.957C71.5176 489.926 73.8613 488.715 77.582 488.715C81.2734 488.715 83.627 489.926 83.6367 491.957C83.627 493.998 81.2734 495.219 77.582 495.219C73.8613 495.219 71.5176 493.998 71.5273 491.957ZM73.6953 491.957C73.6855 493.002 75.1309 493.568 77.582 493.559C79.9941 493.568 81.4395 493.002 81.4492 491.957C81.4395 490.922 79.9941 490.355 77.582 490.355C75.1309 490.355 73.6855 490.922 73.6953 491.957ZM77.6797 487.875V477.934H79.7109V482.055H81.4688V477.602H83.5391V488.422H81.4688V483.832H79.7109V487.875H77.6797ZM100.512 477.582V487.973H98.3438V485.531H94.7891V486.898H86.4883V478.91H94.7891V480.277H98.3438V477.582H100.512ZM88.5391 491.84C88.5195 489.691 90.8145 488.432 94.5352 488.441C98.2754 488.432 100.561 489.691 100.57 491.84C100.561 493.988 98.2754 495.219 94.5352 495.219C90.8145 495.219 88.5195 493.988 88.5391 491.84ZM88.6562 485.16H92.6406V480.629H88.6562V485.16ZM90.6875 491.84C90.6777 492.934 92.084 493.539 94.5352 493.539C97.0059 493.539 98.4023 492.934 98.4023 491.84C98.4023 490.697 97.0059 490.111 94.5352 490.102C92.084 490.111 90.6777 490.697 90.6875 491.84ZM94.7891 483.773H98.3438V481.996H94.7891V483.773ZM122.426 477.582V495.238H120.258V477.582H122.426ZM107.934 490.219C110.746 488.979 112.367 486.01 112.367 483.188V482.27H108.48V480.531H112.367V477.953H114.516V480.531H118.324V482.27H114.535V483.188C114.525 485.873 116.176 488.754 119.027 489.945L117.836 491.605C115.814 490.746 114.291 488.988 113.48 486.859C112.689 489.115 111.166 491 109.105 491.898L107.934 490.219ZM129.789 478.871C132.445 478.871 134.359 481.293 134.379 485.102C134.359 488.939 132.445 491.352 129.789 491.352C127.104 491.352 125.189 488.939 125.199 485.102C125.189 481.293 127.104 478.871 129.789 478.871ZM127.289 485.102C127.279 487.816 128.305 489.389 129.789 489.398C131.283 489.389 132.279 487.816 132.289 485.102C132.279 482.406 131.283 480.824 129.789 480.824C128.305 480.824 127.279 482.406 127.289 485.102ZM136.703 495.238V477.582H138.871V484.359H141.586V486.195H138.871V495.238H136.703ZM158.461 491.332V493.109H142.328V491.332H149.281V487.895H144.105V478.754H146.273V481.645H154.457V478.754H156.625V487.895H151.43V491.332H158.461ZM146.273 486.137H154.457V483.383H146.273V486.137ZM174.398 477.582V488.266H172.23V484.613H169.711V482.816H172.23V477.582H174.398ZM159.652 480.98V479.223H163.754V477.445H165.902V479.223H170.004V480.98H159.652ZM160.648 484.828C160.639 482.973 162.387 481.664 164.828 481.664C167.289 481.664 169.018 482.973 169.027 484.828C169.018 486.732 167.289 487.992 164.828 487.992C162.387 487.992 160.639 486.732 160.648 484.828ZM162.66 495.023V489.066H174.398V495.023H162.66ZM162.719 484.828C162.719 485.805 163.559 486.371 164.828 486.371C166.088 486.371 166.938 485.805 166.938 484.828C166.938 483.881 166.088 483.305 164.828 483.305C163.559 483.305 162.719 483.881 162.719 484.828ZM164.828 493.266H172.27V490.785H164.828V493.266Z" fill="black"/>
<path d="M301.192 473.442L294.942 479.692C294.884 479.75 294.815 479.796 294.739 479.828C294.663 479.859 294.582 479.875 294.5 479.875C294.418 479.875 294.336 479.859 294.261 479.828C294.185 479.796 294.116 479.75 294.058 479.692C294 479.634 293.954 479.565 293.922 479.489C293.891 479.414 293.875 479.332 293.875 479.25C293.875 479.168 293.891 479.087 293.922 479.011C293.954 478.935 294 478.866 294.058 478.808L299.866 473L294.058 467.192C293.94 467.075 293.875 466.916 293.875 466.75C293.875 466.584 293.94 466.425 294.058 466.308C294.175 466.191 294.334 466.125 294.5 466.125C294.666 466.125 294.825 466.191 294.942 466.308L301.192 472.558C301.25 472.616 301.296 472.685 301.328 472.761C301.359 472.837 301.375 472.918 301.375 473C301.375 473.082 301.359 473.164 301.328 473.239C301.296 473.315 301.25 473.384 301.192 473.442Z" fill="black"/>
<rect x="16" y="517.5" width="54" height="22" rx="11" fill="#EEEEEE"/>
<path d="M31.9141 528.188V528.926H27.6133V529.986C29.5938 530.062 30.7422 530.66 30.7539 531.703C30.7422 532.822 29.4238 533.426 27.168 533.426C24.9004 533.426 23.5645 532.822 23.5703 531.703C23.5645 530.66 24.7246 530.068 26.7109 529.986V528.926H22.4219V528.188H31.9141ZM22.9727 526.91C24.9121 526.729 26.5527 525.955 26.6582 524.801H23.4062V524.051H26.7109V523.008H27.6133V524.051H30.9531V524.801H27.6777C27.7715 525.955 29.418 526.729 31.3516 526.91L31.0703 527.625C29.3477 527.449 27.8008 526.828 27.168 525.773C26.5293 526.828 24.9883 527.449 23.2656 527.625L22.9727 526.91ZM24.5078 531.703C24.4961 532.359 25.4805 532.723 27.168 532.711C28.8379 532.723 29.8223 532.359 29.8281 531.703C29.8223 531.047 28.8379 530.678 27.168 530.672C25.4805 530.678 24.4961 531.047 24.5078 531.703ZM41.4297 523.043V530.684H40.5039V526.688H38.3594V525.926H40.5039V523.043H41.4297ZM32.8398 528.598C34.375 528.059 35.4883 526.682 35.4883 525.188V524.648H33.1328V523.887H38.7461V524.648H36.4141V525.188C36.4141 526.535 37.457 527.842 38.9805 528.363L38.5 529.102C37.3281 528.674 36.4199 527.801 35.9688 526.723C35.5176 527.93 34.5566 528.885 33.3203 529.348L32.8398 528.598ZM34.7383 533.227V529.992H35.6641V532.453H41.7227V533.227H34.7383ZM51.7539 523.031V533.449H50.8281V523.031H51.7539ZM43.375 530.719C44.9219 530.016 46.1055 528.258 46.1055 526.43V525.598H43.6562V524.848H46.0938V523.23H47.0078V524.848H49.4336V525.598H47.0078V526.43C47.0078 528.176 48.2266 529.863 49.7969 530.531L49.2812 531.246C48.0742 530.713 47.0605 529.588 46.5742 528.211C46.1055 529.664 45.0977 530.865 43.8906 531.434L43.375 530.719ZM63.0742 531.387V532.16H53.5352V531.387H56.2188V529.406H54.7305V526.195H60.9648V524.566H54.707V523.805H61.8672V526.957H55.6445V528.645H62.1133V529.406H60.4844V531.387H63.0742ZM57.1211 531.387H59.582V529.406H57.1211V531.387Z" fill="#666666"/>
<rect x="76" y="517.5" width="54" height="22" rx="11" fill="#EEEEEE"/>
<path d="M91.9609 531.352V532.113H82.4219V531.352H86.7109V529.102H83.5469V523.77H84.4727V525.656H89.8867V523.77H90.7891V529.102H87.6133V531.352H91.9609ZM84.4727 528.352H89.8867V526.406H84.4727V528.352ZM96.3438 525.082C96.3496 526.236 97.5156 527.227 99.0625 527.59L98.6406 528.293C97.3926 527.988 96.3906 527.291 95.916 526.354C95.4531 527.379 94.4453 528.152 93.1797 528.504L92.7578 527.789C94.3047 527.373 95.4355 526.318 95.4414 525.082V524.836H93.0859V524.086H95.4414V522.984H96.3672V524.086H98.6992V524.836H96.3438V525.082ZM94.668 529.734V529.008H101.418V531.469H95.6055V532.594H101.816V533.332H94.6914V530.766H100.504V529.734H94.668ZM98.3828 526.383V525.633H100.504V523.031H101.418V528.504H100.504V526.383H98.3828ZM111.754 523.031V533.449H110.828V523.031H111.754ZM103.375 530.719C104.922 530.016 106.105 528.258 106.105 526.43V525.598H103.656V524.848H106.094V523.23H107.008V524.848H109.434V525.598H107.008V526.43C107.008 528.176 108.227 529.863 109.797 530.531L109.281 531.246C108.074 530.713 107.061 529.588 106.574 528.211C106.105 529.664 105.098 530.865 103.891 531.434L103.375 530.719ZM123.074 531.387V532.16H113.535V531.387H116.219V529.406H114.73V526.195H120.965V524.566H114.707V523.805H121.867V526.957H115.645V528.645H122.113V529.406H120.484V531.387H123.074ZM117.121 531.387H119.582V529.406H117.121V531.387Z" fill="#666666"/>
<defs>
<clipPath id="clip0_15_680">
<rect width="292" height="24" fill="white" transform="translate(16 152.5)"/>
</clipPath>
<clipPath id="clip1_15_680">
<rect width="292" height="18" fill="white" transform="translate(16 192.5)"/>
</clipPath>
<clipPath id="clip2_15_680">
<rect width="292" height="18" fill="white" transform="translate(16 218.5)"/>
</clipPath>
</defs>
</svg>
