<svg width="324" height="366" viewBox="0 0 324 366" fill="none" xmlns="http://www.w3.org/2000/svg">
<rect x="0.5" y="0.5" width="323" height="109" rx="4.5" stroke="#FF7417"/>
<rect x="16.5" y="18" width="66" height="25" rx="12.5" fill="#FF7417"/>
<path d="M25.0664 35L25.4834 32.4434H23.3506L22.9336 35H21.5801L21.9971 32.4434H20.6094L20.8281 31.1035H22.2227L22.5645 28.998H21.1836L21.4023 27.6582H22.79L23.207 25.1016H24.5605L24.1436 27.6582H26.2764L26.6934 25.1016H28.0332L27.6162 27.6582H29.0176L28.7852 28.998H27.3906L27.0488 31.1035H28.4434L28.2246 32.4434H26.8232L26.4062 35H25.0664ZM23.5762 31.1035H25.709L26.0508 28.998H23.918L23.5762 31.1035ZM35.9082 28.2734V29.8457H40.8027V31.0762H29.5371V29.8457H34.4043V28.2734H35.9082ZM30.0703 27.7539C32.3535 27.5283 33.8369 26.6328 34.0898 25.6211H30.5625V24.4043H39.791V25.6211H36.2295C36.4824 26.626 37.9658 27.5283 40.2695 27.7539L39.7227 28.9434C37.4805 28.7109 35.8262 27.8359 35.1562 26.5918C34.4863 27.8359 32.8457 28.7109 30.6035 28.9434L30.0703 27.7539ZM30.8496 34.0293C30.8496 32.6416 32.4561 31.8691 35.1562 31.8691C37.8359 31.8691 39.4287 32.6416 39.4355 34.0293C39.4287 35.4307 37.8359 36.2031 35.1562 36.2031C32.4561 36.2031 30.8496 35.4307 30.8496 34.0293ZM32.3945 34.0293C32.3877 34.7061 33.3379 35.0547 35.1562 35.0547C36.9404 35.0547 37.9043 34.7061 37.918 34.0293C37.9043 33.373 36.9404 33.0381 35.1562 33.0312C33.3379 33.0381 32.3877 33.373 32.3945 34.0293ZM51.3848 23.8574V26.9062H53.1074V28.1641H51.3848V31.0762H49.8672V23.8574H51.3848ZM41.6504 26.2227V25.0059H44.5625V23.7617H46.0801V25.0059H48.9785V26.2227H41.6504ZM42.2793 28.8203C42.2793 27.5078 43.5098 26.6465 45.3145 26.6465C47.0986 26.6465 48.3291 27.5078 48.3359 28.8203C48.3291 30.1328 47.0986 31.001 45.3145 30.9941C43.5098 31.001 42.2793 30.1328 42.2793 28.8203ZM43.4004 36.0664V31.5684H44.9043V32.6348H49.8672V31.5684H51.3848V36.0664H43.4004ZM43.7559 28.8203C43.749 29.4902 44.3779 29.873 45.3145 29.873C46.251 29.873 46.8867 29.4902 46.8867 28.8203C46.8867 28.1709 46.251 27.7676 45.3145 27.7676C44.3779 27.7676 43.749 28.1709 43.7559 28.8203ZM44.9043 34.8633H49.8672V33.8105H44.9043V34.8633ZM65.0293 33.4824V34.7266H53.7363V33.4824H58.6035V31.0762H54.9805V24.6777H56.498V26.7012H62.2266V24.6777H63.7441V31.0762H60.1074V33.4824H65.0293ZM56.498 29.8457H62.2266V27.918H56.498V29.8457ZM76.1855 23.8574V31.3359H74.668V28.7793H72.9043V27.5215H74.668V23.8574H76.1855ZM65.8633 26.2363V25.0059H68.7344V23.7617H70.2383V25.0059H73.1094V26.2363H65.8633ZM66.5605 28.9297C66.5537 27.6309 67.7773 26.7148 69.4863 26.7148C71.209 26.7148 72.4189 27.6309 72.4258 28.9297C72.4189 30.2627 71.209 31.1445 69.4863 31.1445C67.7773 31.1445 66.5537 30.2627 66.5605 28.9297ZM67.9688 36.0664V31.8965H76.1855V36.0664H67.9688ZM68.0098 28.9297C68.0098 29.6133 68.5977 30.0098 69.4863 30.0098C70.3682 30.0098 70.9629 29.6133 70.9629 28.9297C70.9629 28.2666 70.3682 27.8633 69.4863 27.8633C68.5977 27.8633 68.0098 28.2666 68.0098 28.9297ZM69.4863 34.8359H74.6953V33.0996H69.4863V34.8359Z" fill="white"/>
<path d="M28.1094 50.2812V54.7188H30.0781V56.1562H28.1094V60.8281H26.375V50.2812H28.1094ZM16.9844 53.2344V51.8438H20.3125V50.2656H22.0469V51.8438H25.3594V53.2344H16.9844ZM17.7031 56.5156C17.7031 54.8906 19.1172 53.8125 21.1719 53.8125C23.2109 53.8125 24.6172 54.8906 24.625 56.5156C24.6172 58.1328 23.2109 59.1875 21.1719 59.1875C19.1172 59.1875 17.7031 58.1328 17.7031 56.5156ZM19.0625 64.1094V60H20.7969V62.7031H28.6719V64.1094H19.0625ZM19.3906 56.5156C19.3828 57.3672 20.1016 57.8516 21.1719 57.8438C22.2422 57.8516 22.9688 57.3672 22.9688 56.5156C22.9688 55.6562 22.2422 55.1562 21.1719 55.1562C20.1016 55.1562 19.3828 55.6562 19.3906 56.5156ZM41.9688 50.2656V56.0938H43.9531V57.5469H41.9688V64.3906H40.2188V50.2656H41.9688ZM30.625 60.4688C31.6953 60.4688 32.9375 60.4688 34.2344 60.4375V59.1172C32.6953 58.8516 31.6953 57.8906 31.7031 56.5625C31.6953 54.9688 33.0938 53.9141 35.125 53.9062C37.1328 53.9141 38.5469 54.9688 38.5625 56.5625C38.5469 57.8984 37.5234 58.8594 35.9844 59.1172V60.375C37.1719 60.3125 38.3594 60.2188 39.4688 60.0625L39.5781 61.3281C36.5469 61.8828 33.2812 61.9062 30.875 61.9062L30.625 60.4688ZM30.8906 53.2656V51.8906H34.2344V50.3281H35.9844V51.8906H39.3125V53.2656H30.8906ZM33.3438 56.5625C33.3359 57.375 34.0547 57.8516 35.125 57.8438C36.1797 57.8516 36.8906 57.375 36.8906 56.5625C36.8906 55.7422 36.1797 55.2422 35.125 55.2344C34.0547 55.2422 33.3359 55.7422 33.3438 56.5625ZM59.4844 50.2656V55.6875H61.6562V57.1406H59.4844V64.4062H57.7656V50.2656H59.4844ZM48.9844 52.9062V51.5H55.4844V56.8281H50.7344V59.6406C52.9766 59.625 54.7188 59.5312 56.6875 59.1875L56.8438 60.5938C54.6641 60.9844 52.7422 61.0781 50.1719 61.0781H49.0156V55.4375H53.75V52.9062H48.9844ZM74 50.2656V64.4062H72.25V50.2656H74ZM62.7031 56.2812C62.6953 53.2344 64.25 51.2969 66.3906 51.2969C68.5078 51.2969 70.0703 53.2344 70.0781 56.2812C70.0703 59.3516 68.5078 61.2812 66.3906 61.2812C64.25 61.2812 62.6953 59.3516 62.7031 56.2812ZM64.375 56.2812C64.375 58.4531 65.1953 59.7109 66.3906 59.7188C67.5781 59.7109 68.3906 58.4531 68.3906 56.2812C68.3906 54.125 67.5781 52.8594 66.3906 52.8594C65.1953 52.8594 64.375 54.125 64.375 56.2812ZM88.9844 61.2344V62.6875H76.0781V61.2344H88.9844ZM77.1406 52.9688V51.5781H87.8594V52.9688H85.7969V57.4688H87.8125V58.8438H77.1875V57.4688H79.1719V52.9688H77.1406ZM80.9062 57.4688H84.0781V52.9688H80.9062V57.4688ZM101.594 50.6719V51.9844H99.6562V54.125H101.516V55.4375H91.1406V54.125H93V51.9844H91.0625V50.6719H101.594ZM89.9062 57.7031V56.3281H102.781V57.7031H89.9062ZM91.4219 59.9219V58.6562H101.172V62.0156H93.1406V62.9688H101.562V64.2656H91.4375V60.8125H99.4688V59.9219H91.4219ZM94.7344 54.125H97.9062V51.9844H94.7344V54.125ZM115.562 50.2656V64.4062H113.828V56.8906H111.406V55.4688H113.828V50.2656H115.562ZM104.203 52.9062V51.5H110.594V56.6719H105.969V59.6406C108.07 59.6328 109.758 59.5625 111.656 59.2188L111.797 60.6406C109.695 61.0078 107.805 61.0859 105.375 61.0938H104.25V55.2656H108.891V52.9062H104.203ZM124.859 52.2031C124.859 54.3828 126.992 56.5781 129.953 57.0938L129.172 58.5469C126.805 58.0547 124.867 56.6172 123.945 54.7188C123.016 56.6016 121.078 58.0469 118.719 58.5469L117.953 57.0938C120.867 56.5625 123.008 54.375 123.016 52.2031V51.1562H124.859V52.2031ZM117.562 62.5938V61.1562H130.469V62.5938H117.562ZM142.469 55.3125V57.1094H148.062V58.5156H135.188V57.1094H140.75V55.3125H142.469ZM135.797 54.7188C138.406 54.4609 140.102 53.4375 140.391 52.2812H136.359V50.8906H146.906V52.2812H142.836C143.125 53.4297 144.82 54.4609 147.453 54.7188L146.828 56.0781C144.266 55.8125 142.375 54.8125 141.609 53.3906C140.844 54.8125 138.969 55.8125 136.406 56.0781L135.797 54.7188ZM136.688 61.8906C136.688 60.3047 138.523 59.4219 141.609 59.4219C144.672 59.4219 146.492 60.3047 146.5 61.8906C146.492 63.4922 144.672 64.375 141.609 64.375C138.523 64.375 136.688 63.4922 136.688 61.8906ZM138.453 61.8906C138.445 62.6641 139.531 63.0625 141.609 63.0625C143.648 63.0625 144.75 62.6641 144.766 61.8906C144.75 61.1406 143.648 60.7578 141.609 60.75C139.531 60.7578 138.445 61.1406 138.453 61.8906ZM160.156 50.2656V53.75H162.125V55.1875H160.156V58.5156H158.422V50.2656H160.156ZM149.031 52.9688V51.5781H152.359V50.1562H154.094V51.5781H157.406V52.9688H149.031ZM149.75 55.9375C149.75 54.4375 151.156 53.4531 153.219 53.4531C155.258 53.4531 156.664 54.4375 156.672 55.9375C156.664 57.4375 155.258 58.4297 153.219 58.4219C151.156 58.4297 149.75 57.4375 149.75 55.9375ZM151.031 64.2188V59.0781H152.75V60.2969H158.422V59.0781H160.156V64.2188H151.031ZM151.438 55.9375C151.43 56.7031 152.148 57.1406 153.219 57.1406C154.289 57.1406 155.016 56.7031 155.016 55.9375C155.016 55.1953 154.289 54.7344 153.219 54.7344C152.148 54.7344 151.43 55.1953 151.438 55.9375ZM152.75 62.8438H158.422V61.6406H152.75V62.8438ZM175.75 61.2656V62.6875H162.844V61.2656H168.406V58.5156H164.266V51.2031H166V53.5156H172.547V51.2031H174.281V58.5156H170.125V61.2656H175.75ZM166 57.1094H172.547V54.9062H166V57.1094ZM188.5 50.2656V58.8125H186.766V55.8906H184.75V54.4531H186.766V50.2656H188.5ZM176.703 52.9844V51.5781H179.984V50.1562H181.703V51.5781H184.984V52.9844H176.703ZM177.5 56.0625C177.492 54.5781 178.891 53.5312 180.844 53.5312C182.812 53.5312 184.195 54.5781 184.203 56.0625C184.195 57.5859 182.812 58.5938 180.844 58.5938C178.891 58.5938 177.492 57.5859 177.5 56.0625ZM179.109 64.2188V59.4531H188.5V64.2188H179.109ZM179.156 56.0625C179.156 56.8438 179.828 57.2969 180.844 57.2969C181.852 57.2969 182.531 56.8438 182.531 56.0625C182.531 55.3047 181.852 54.8438 180.844 54.8438C179.828 54.8438 179.156 55.3047 179.156 56.0625ZM180.844 62.8125H186.797V60.8281H180.844V62.8125Z" fill="black"/>
<path d="M27.5742 74.8574V87.2168H26.1113V74.8574H27.5742ZM17.0332 80.2031C17.0332 77.4824 18.0859 75.7939 19.6992 75.8008C20.7451 75.7939 21.5586 76.4844 22.0166 77.6875H23.6367V75.0762H25.0723V86.6152H23.6367V82.7188H22.0166C21.5654 83.9287 20.7451 84.626 19.6992 84.6191C18.0859 84.626 17.0332 82.9307 17.0332 80.2031ZM18.4277 80.2031C18.4141 82.1377 18.8857 83.1768 19.6992 83.1699C20.5195 83.1768 21.0254 82.1377 21.0254 80.2031C21.0254 78.2754 20.5195 77.2295 19.6992 77.2363C18.8857 77.2295 18.4141 78.2754 18.4277 80.2031ZM22.3242 78.918C22.3857 79.3145 22.4199 79.7451 22.4199 80.2031C22.4199 80.6543 22.3857 81.0781 22.3311 81.4746H23.6367V78.918H22.3242ZM33.3848 76.8262C33.3848 78.3779 34.3896 79.8477 36.2969 80.4492L35.4766 81.6387C34.1436 81.1875 33.1865 80.2852 32.6465 79.1367C32.1133 80.4492 31.1152 81.4814 29.6934 81.9805L28.873 80.791C30.8623 80.1006 31.8604 78.4531 31.8672 76.6895V75.5137H33.3848V76.8262ZM30.5547 84.8516C30.5547 83.3887 32.1611 82.5205 34.7383 82.5273C37.2949 82.5205 38.874 83.3887 38.8809 84.8516C38.874 86.3486 37.2949 87.2031 34.7383 87.2031C32.1611 87.2031 30.5547 86.3486 30.5547 84.8516ZM32.0723 84.8516C32.0723 85.6172 33.043 86 34.7383 86C36.4268 86 37.377 85.6172 37.377 84.8516C37.377 84.127 36.4268 83.7168 34.7383 83.7168C33.043 83.7168 32.0723 84.127 32.0723 84.8516ZM37.2402 82.2539V74.8574H38.7578V77.8652H40.4805V79.123H38.7578V82.2539H37.2402ZM55.7246 84.4824V85.7266H44.4316V84.4824H49.2988V82.0762H45.6758V75.6777H47.1934V77.7012H52.9219V75.6777H54.4395V82.0762H50.8027V84.4824H55.7246ZM47.1934 80.8457H52.9219V78.918H47.1934V80.8457ZM66.8809 74.8574V82.3359H65.3633V79.7793H63.5996V78.5215H65.3633V74.8574H66.8809ZM56.5586 77.2363V76.0059H59.4297V74.7617H60.9336V76.0059H63.8047V77.2363H56.5586ZM57.2559 79.9297C57.249 78.6309 58.4727 77.7148 60.1816 77.7148C61.9043 77.7148 63.1143 78.6309 63.1211 79.9297C63.1143 81.2627 61.9043 82.1445 60.1816 82.1445C58.4727 82.1445 57.249 81.2627 57.2559 79.9297ZM58.6641 87.0664V82.8965H66.8809V87.0664H58.6641ZM58.7051 79.9297C58.7051 80.6133 59.293 81.0098 60.1816 81.0098C61.0635 81.0098 61.6582 80.6133 61.6582 79.9297C61.6582 79.2666 61.0635 78.8633 60.1816 78.8633C59.293 78.8633 58.7051 79.2666 58.7051 79.9297ZM60.1816 85.8359H65.3906V84.0996H60.1816V85.8359ZM79.9238 84.5234V85.7812H68.6309V84.5234H71.625V82.4863H69.9707V78.4531H77.0801V76.9355H69.9434V75.7051H78.584V79.6699H71.4883V81.2559H78.8711V82.4863H77.0664V84.5234H79.9238ZM73.1016 84.5234H75.5762V82.4863H73.1016V84.5234ZM85.5566 86.1094C84.9688 86.1094 84.4834 85.6309 84.4902 85.043C84.4834 84.4688 84.9688 83.9971 85.5566 83.9902C86.124 83.9971 86.6094 84.4688 86.6094 85.043C86.6094 85.6309 86.124 86.1094 85.5566 86.1094ZM84.4902 79.7383C84.4834 79.1641 84.9688 78.6924 85.5566 78.6855C86.124 78.6924 86.6094 79.1641 86.6094 79.7383C86.6094 80.3262 86.124 80.8047 85.5566 80.8047C84.9688 80.8047 84.4834 80.3262 84.4902 79.7383ZM101.553 74.8711V82.0762H100.021V81.5703H97.7109V80.6406H100.021V74.8711H101.553ZM91.1758 79.3281C93.5615 79.3281 96.5488 79.3076 99.2012 79.041L99.2832 79.998C98.1553 80.1484 96.9932 80.251 95.8516 80.3057V82.0898H94.3477V80.3672C93.2881 80.3945 92.2695 80.4014 91.3398 80.3945L91.1758 79.3281ZM92.0508 76.9219C92.0508 75.8008 93.2881 75.0693 95.168 75.0625C97.0068 75.0693 98.251 75.8008 98.2578 76.9219C98.251 78.0703 97.0068 78.7676 95.168 78.7676C93.2881 78.7676 92.0508 78.0703 92.0508 76.9219ZM92.9805 83.498V82.459H101.553V85.2344H94.5254V86.0273H101.881V87.1074H93.0352V84.2363H100.049V83.498H92.9805ZM93.5 76.9219C93.4863 77.4414 94.1289 77.7627 95.168 77.7559C96.1865 77.7627 96.8359 77.4414 96.8359 76.9219C96.8359 76.4023 96.1865 76.0674 95.168 76.0742C94.1289 76.0674 93.4863 76.4023 93.5 76.9219ZM110.617 86.1367C108.505 86.1367 106.994 84.9883 106.953 83.3203H108.744C108.792 84.1133 109.585 84.6396 110.617 84.6328C111.704 84.6396 112.49 84.0381 112.49 83.1562C112.49 82.2676 111.725 81.6318 110.439 81.625H109.551V80.2578H110.439C111.492 80.2578 112.224 79.6699 112.217 78.8086C112.224 77.9746 111.595 77.4141 110.631 77.4141C109.701 77.4141 108.901 77.9336 108.867 78.7676H107.158C107.199 77.1064 108.71 75.9648 110.645 75.9648C112.654 75.9648 113.953 77.1953 113.939 78.7129C113.953 79.8203 113.215 80.6201 112.135 80.8457V80.9277C113.529 81.1123 114.322 82.0078 114.309 83.252C114.322 84.9268 112.757 86.1367 110.617 86.1367ZM119.381 75.9648C121.315 75.9785 123.243 77.1338 123.25 80.75C123.25 84.1611 121.705 86.1367 119.271 86.1367C117.364 86.1367 116.045 84.9473 115.826 83.3066H117.59C117.768 84.0928 118.376 84.5918 119.271 84.5918C120.707 84.5918 121.514 83.3271 121.527 81.2012H121.418C120.919 82.0625 119.962 82.5752 118.875 82.5684C117.104 82.5752 115.737 81.2285 115.73 79.3555C115.73 77.4209 117.187 75.9512 119.381 75.9648ZM117.467 79.3145C117.467 80.3809 118.26 81.2148 119.367 81.2148C120.468 81.2148 121.315 80.3262 121.309 79.3008C121.309 78.2959 120.502 77.4072 119.395 77.4004C118.28 77.4072 117.453 78.2549 117.467 79.3145ZM126.326 85.0293L125.178 88.8574H123.879L124.59 85.0293H126.326ZM131.562 75.9648C133.497 75.9785 135.425 77.1338 135.432 80.75C135.432 84.1611 133.887 86.1367 131.453 86.1367C129.546 86.1367 128.227 84.9473 128.008 83.3066H129.771C129.949 84.0928 130.558 84.5918 131.453 84.5918C132.889 84.5918 133.695 83.3271 133.709 81.2012H133.6C133.101 82.0625 132.144 82.5752 131.057 82.5684C129.286 82.5752 127.919 81.2285 127.912 79.3555C127.912 77.4209 129.368 75.9512 131.562 75.9648ZM129.648 79.3145C129.648 80.3809 130.441 81.2148 131.549 81.2148C132.649 81.2148 133.497 80.3262 133.49 79.3008C133.49 78.2959 132.684 77.4072 131.576 77.4004C130.462 77.4072 129.635 78.2549 129.648 79.3145ZM140.559 86.1367C138.173 86.1367 136.751 84.291 136.758 81.0508C136.751 77.8242 138.187 75.9648 140.559 75.9648C142.931 75.9648 144.359 77.8242 144.359 81.0508C144.359 84.2979 142.938 86.1367 140.559 86.1367ZM138.549 81.0508C138.549 83.4297 139.314 84.6396 140.559 84.6465C141.796 84.6396 142.568 83.4297 142.568 81.0508C142.562 78.6924 141.796 77.4482 140.559 77.4414C139.321 77.4482 138.556 78.6924 138.549 81.0508ZM149.5 86.1367C147.114 86.1367 145.692 84.291 145.699 81.0508C145.692 77.8242 147.128 75.9648 149.5 75.9648C151.872 75.9648 153.301 77.8242 153.301 81.0508C153.301 84.2979 151.879 86.1367 149.5 86.1367ZM147.49 81.0508C147.49 83.4297 148.256 84.6396 149.5 84.6465C150.737 84.6396 151.51 83.4297 151.51 81.0508C151.503 78.6924 150.737 77.4482 149.5 77.4414C148.263 77.4482 147.497 78.6924 147.49 81.0508ZM164.744 74.8711V84.2227H163.213V83.1426H160.793V82.0762H163.213V74.8711H164.744ZM154.326 80.4219C156.603 80.4082 159.672 80.3877 162.297 80.0527L162.379 81.1465C161.36 81.3174 160.308 81.4268 159.262 81.502V83.8809H157.744V81.584C156.589 81.6318 155.488 81.6387 154.518 81.6387L154.326 80.4219ZM155.27 77.5098C155.27 76.2041 156.527 75.3154 158.359 75.3223C160.157 75.3154 161.422 76.2041 161.436 77.5098C161.422 78.8359 160.157 79.6768 158.359 79.6836C156.527 79.6768 155.27 78.8359 155.27 77.5098ZM155.967 86.9707V83.3203H157.484V85.7402H165.031V86.9707H155.967ZM156.705 77.5098C156.705 78.1797 157.368 78.5693 158.359 78.5762C159.303 78.5693 159.979 78.1797 159.986 77.5098C159.979 76.8398 159.303 76.4365 158.359 76.4434C157.368 76.4365 156.705 76.8398 156.705 77.5098Z" fill="#FF7417"/>
<path d="M301.692 55.4423L295.442 61.6923C295.384 61.7504 295.315 61.7964 295.239 61.8278C295.163 61.8593 295.082 61.8755 295 61.8755C294.918 61.8755 294.836 61.8593 294.761 61.8278C294.685 61.7964 294.616 61.7504 294.558 61.6923C294.5 61.6342 294.454 61.5653 294.422 61.4894C294.391 61.4135 294.375 61.3322 294.375 61.2501C294.375 61.168 294.391 61.0867 294.422 61.0108C294.454 60.9349 294.5 60.866 294.558 60.8079L300.366 55.0001L294.558 49.1923C294.44 49.075 294.375 48.916 294.375 48.7501C294.375 48.5843 294.44 48.4252 294.558 48.3079C294.675 48.1906 294.834 48.1248 295 48.1248C295.166 48.1248 295.325 48.1906 295.442 48.3079L301.692 54.5579C301.75 54.616 301.796 54.6849 301.828 54.7608C301.859 54.8366 301.875 54.918 301.875 55.0001C301.875 55.0822 301.859 55.1636 301.828 55.2394C301.796 55.3153 301.75 55.3842 301.692 55.4423Z" fill="black"/>
<rect x="0.5" y="128.5" width="323" height="109" rx="4.5" stroke="#FF7417"/>
<rect x="16.5" y="146" width="53" height="25" rx="12.5" fill="#FF7417"/>
<path d="M25.0664 163L25.4834 160.443H23.3506L22.9336 163H21.5801L21.9971 160.443H20.6094L20.8281 159.104H22.2227L22.5645 156.998H21.1836L21.4023 155.658H22.79L23.207 153.102H24.5605L24.1436 155.658H26.2764L26.6934 153.102H28.0332L27.6162 155.658H29.0176L28.7852 156.998H27.3906L27.0488 159.104H28.4434L28.2246 160.443H26.8232L26.4062 163H25.0664ZM23.5762 159.104H25.709L26.0508 156.998H23.918L23.5762 159.104ZM39.2852 151.857V154.715H41.0078V155.945H39.2852V158.926H37.7676V151.857H39.2852ZM29.6738 155.521C29.667 153.778 31.1025 152.555 33.0098 152.568C34.9102 152.555 36.332 153.778 36.3457 155.521C36.332 157.258 34.9102 158.481 33.0098 158.488C31.1025 158.481 29.667 157.258 29.6738 155.521ZM31.1641 155.521C31.1572 156.547 31.9434 157.196 33.0098 157.203C34.0625 157.196 34.8486 156.547 34.8555 155.521C34.8486 154.503 34.0625 153.833 33.0098 153.84C31.9434 153.833 31.1572 154.503 31.1641 155.521ZM31.3008 164.066V159.473H39.2852V164.066H31.3008ZM32.8047 162.836H37.7812V160.676H32.8047V162.836ZM52.9297 161.482V162.727H41.6367V161.482H46.5039V159.076H42.8809V152.678H44.3984V154.701H50.127V152.678H51.6445V159.076H48.0078V161.482H52.9297ZM44.3984 157.846H50.127V155.918H44.3984V157.846ZM64.0859 151.857V159.336H62.5684V156.779H60.8047V155.521H62.5684V151.857H64.0859ZM53.7637 154.236V153.006H56.6348V151.762H58.1387V153.006H61.0098V154.236H53.7637ZM54.4609 156.93C54.4541 155.631 55.6777 154.715 57.3867 154.715C59.1094 154.715 60.3193 155.631 60.3262 156.93C60.3193 158.263 59.1094 159.145 57.3867 159.145C55.6777 159.145 54.4541 158.263 54.4609 156.93ZM55.8691 164.066V159.896H64.0859V164.066H55.8691ZM55.9102 156.93C55.9102 157.613 56.498 158.01 57.3867 158.01C58.2686 158.01 58.8633 157.613 58.8633 156.93C58.8633 156.267 58.2686 155.863 57.3867 155.863C56.498 155.863 55.9102 156.267 55.9102 156.93ZM57.3867 162.836H62.5957V161.1H57.3867V162.836Z" fill="white"/>
<path d="M18.9844 191H16.8125L20.7969 179.688H23.2969L27.2969 191H25.125L24.1797 188.203H19.9219L18.9844 191ZM20.4688 186.562H23.6328L22.0938 182H22L20.4688 186.562ZM30.6719 179.688V191H28.6406V179.688H30.6719ZM34.2188 191H32.0469L36.0312 179.688H38.5312L42.5312 191H40.3594L39.4141 188.203H35.1562L34.2188 191ZM35.7031 186.562H38.8672L37.3281 182H37.2344L35.7031 186.562ZM51.5 180.891C51.5078 182.414 52.3984 183.953 54.25 184.656L53.3281 185.984C52.0703 185.508 51.1953 184.602 50.6875 183.508C50.1719 184.766 49.25 185.844 47.9062 186.406L46.9688 185.078C48.9141 184.219 49.8203 182.453 49.8281 180.891V179.141H51.5V180.891ZM49.5625 189.766C49.5547 188.141 51.4297 187.172 54.4062 187.172C57.3594 187.172 59.2422 188.141 59.25 189.766C59.2422 191.398 57.3594 192.375 54.4062 192.375C51.4297 192.375 49.5547 191.398 49.5625 189.766ZM51.2969 189.766C51.2891 190.602 52.4453 191.055 54.4062 191.047C56.3359 191.055 57.4922 190.602 57.5 189.766C57.4922 188.938 56.3359 188.484 54.4062 188.484C52.4453 188.484 51.2891 188.938 51.2969 189.766ZM54.4844 186.5V178.547H56.1094V181.844H57.5156V178.281H59.1719V186.938H57.5156V183.266H56.1094V186.5H54.4844ZM72.75 178.266V186.578H71.0156V184.625H68.1719V185.719H61.5312V179.328H68.1719V180.422H71.0156V178.266H72.75ZM63.1719 189.672C63.1562 187.953 64.9922 186.945 67.9688 186.953C70.9609 186.945 72.7891 187.953 72.7969 189.672C72.7891 191.391 70.9609 192.375 67.9688 192.375C64.9922 192.375 63.1562 191.391 63.1719 189.672ZM63.2656 184.328H66.4531V180.703H63.2656V184.328ZM64.8906 189.672C64.8828 190.547 66.0078 191.031 67.9688 191.031C69.9453 191.031 71.0625 190.547 71.0625 189.672C71.0625 188.758 69.9453 188.289 67.9688 188.281C66.0078 188.289 64.8828 188.758 64.8906 189.672ZM68.1719 183.219H71.0156V181.797H68.1719V183.219ZM89.6875 178.266V181.531H91.6562V182.938H89.6875V186.344H87.9531V178.266H89.6875ZM78.7031 182.453C78.6953 180.461 80.3359 179.062 82.5156 179.078C84.6875 179.062 86.3125 180.461 86.3281 182.453C86.3125 184.438 84.6875 185.836 82.5156 185.844C80.3359 185.836 78.6953 184.438 78.7031 182.453ZM80.4062 182.453C80.3984 183.625 81.2969 184.367 82.5156 184.375C83.7188 184.367 84.6172 183.625 84.625 182.453C84.6172 181.289 83.7188 180.523 82.5156 180.531C81.2969 180.523 80.3984 181.289 80.4062 182.453ZM80.5625 192.219V186.969H89.6875V192.219H80.5625ZM82.2812 190.812H87.9688V188.344H82.2812V190.812ZM105.281 189.266V190.688H92.375V189.266H97.9375V186.516H93.7969V179.203H95.5312V181.516H102.078V179.203H103.812V186.516H99.6562V189.266H105.281ZM95.5312 185.109H102.078V182.906H95.5312V185.109ZM118.031 178.266V186.812H116.297V183.891H114.281V182.453H116.297V178.266H118.031ZM106.234 180.984V179.578H109.516V178.156H111.234V179.578H114.516V180.984H106.234ZM107.031 184.062C107.023 182.578 108.422 181.531 110.375 181.531C112.344 181.531 113.727 182.578 113.734 184.062C113.727 185.586 112.344 186.594 110.375 186.594C108.422 186.594 107.023 185.586 107.031 184.062ZM108.641 192.219V187.453H118.031V192.219H108.641ZM108.688 184.062C108.688 184.844 109.359 185.297 110.375 185.297C111.383 185.297 112.062 184.844 112.062 184.062C112.062 183.305 111.383 182.844 110.375 182.844C109.359 182.844 108.688 183.305 108.688 184.062ZM110.375 190.812H116.328V188.828H110.375V190.812Z" fill="black"/>
<path d="M27.5742 202.857V215.217H26.1113V202.857H27.5742ZM17.0332 208.203C17.0332 205.482 18.0859 203.794 19.6992 203.801C20.7451 203.794 21.5586 204.484 22.0166 205.688H23.6367V203.076H25.0723V214.615H23.6367V210.719H22.0166C21.5654 211.929 20.7451 212.626 19.6992 212.619C18.0859 212.626 17.0332 210.931 17.0332 208.203ZM18.4277 208.203C18.4141 210.138 18.8857 211.177 19.6992 211.17C20.5195 211.177 21.0254 210.138 21.0254 208.203C21.0254 206.275 20.5195 205.229 19.6992 205.236C18.8857 205.229 18.4141 206.275 18.4277 208.203ZM22.3242 206.918C22.3857 207.314 22.4199 207.745 22.4199 208.203C22.4199 208.654 22.3857 209.078 22.3311 209.475H23.6367V206.918H22.3242ZM33.3848 204.826C33.3848 206.378 34.3896 207.848 36.2969 208.449L35.4766 209.639C34.1436 209.188 33.1865 208.285 32.6465 207.137C32.1133 208.449 31.1152 209.481 29.6934 209.98L28.873 208.791C30.8623 208.101 31.8604 206.453 31.8672 204.689V203.514H33.3848V204.826ZM30.5547 212.852C30.5547 211.389 32.1611 210.521 34.7383 210.527C37.2949 210.521 38.874 211.389 38.8809 212.852C38.874 214.349 37.2949 215.203 34.7383 215.203C32.1611 215.203 30.5547 214.349 30.5547 212.852ZM32.0723 212.852C32.0723 213.617 33.043 214 34.7383 214C36.4268 214 37.377 213.617 37.377 212.852C37.377 212.127 36.4268 211.717 34.7383 211.717C33.043 211.717 32.0723 212.127 32.0723 212.852ZM37.2402 210.254V202.857H38.7578V205.865H40.4805V207.123H38.7578V210.254H37.2402ZM55.7246 212.482V213.727H44.4316V212.482H49.2988V210.076H45.6758V203.678H47.1934V205.701H52.9219V203.678H54.4395V210.076H50.8027V212.482H55.7246ZM47.1934 208.846H52.9219V206.918H47.1934V208.846ZM66.8809 202.857V210.336H65.3633V207.779H63.5996V206.521H65.3633V202.857H66.8809ZM56.5586 205.236V204.006H59.4297V202.762H60.9336V204.006H63.8047V205.236H56.5586ZM57.2559 207.93C57.249 206.631 58.4727 205.715 60.1816 205.715C61.9043 205.715 63.1143 206.631 63.1211 207.93C63.1143 209.263 61.9043 210.145 60.1816 210.145C58.4727 210.145 57.249 209.263 57.2559 207.93ZM58.6641 215.066V210.896H66.8809V215.066H58.6641ZM58.7051 207.93C58.7051 208.613 59.293 209.01 60.1816 209.01C61.0635 209.01 61.6582 208.613 61.6582 207.93C61.6582 207.267 61.0635 206.863 60.1816 206.863C59.293 206.863 58.7051 207.267 58.7051 207.93ZM60.1816 213.836H65.3906V212.1H60.1816V213.836ZM79.9238 212.523V213.781H68.6309V212.523H71.625V210.486H69.9707V206.453H77.0801V204.936H69.9434V203.705H78.584V207.67H71.4883V209.256H78.8711V210.486H77.0664V212.523H79.9238ZM73.1016 212.523H75.5762V210.486H73.1016V212.523ZM85.5566 214.109C84.9688 214.109 84.4834 213.631 84.4902 213.043C84.4834 212.469 84.9688 211.997 85.5566 211.99C86.124 211.997 86.6094 212.469 86.6094 213.043C86.6094 213.631 86.124 214.109 85.5566 214.109ZM84.4902 207.738C84.4834 207.164 84.9688 206.692 85.5566 206.686C86.124 206.692 86.6094 207.164 86.6094 207.738C86.6094 208.326 86.124 208.805 85.5566 208.805C84.9688 208.805 84.4834 208.326 84.4902 207.738ZM101.553 202.871V210.076H100.021V209.57H97.7109V208.641H100.021V202.871H101.553ZM91.1758 207.328C93.5615 207.328 96.5488 207.308 99.2012 207.041L99.2832 207.998C98.1553 208.148 96.9932 208.251 95.8516 208.306V210.09H94.3477V208.367C93.2881 208.395 92.2695 208.401 91.3398 208.395L91.1758 207.328ZM92.0508 204.922C92.0508 203.801 93.2881 203.069 95.168 203.062C97.0068 203.069 98.251 203.801 98.2578 204.922C98.251 206.07 97.0068 206.768 95.168 206.768C93.2881 206.768 92.0508 206.07 92.0508 204.922ZM92.9805 211.498V210.459H101.553V213.234H94.5254V214.027H101.881V215.107H93.0352V212.236H100.049V211.498H92.9805ZM93.5 204.922C93.4863 205.441 94.1289 205.763 95.168 205.756C96.1865 205.763 96.8359 205.441 96.8359 204.922C96.8359 204.402 96.1865 204.067 95.168 204.074C94.1289 204.067 93.4863 204.402 93.5 204.922ZM111.041 204.102V214H109.25V205.838H109.195L106.885 207.314V205.688L109.332 204.102H111.041ZM116.961 203.965C118.896 203.979 120.823 205.134 120.83 208.75C120.83 212.161 119.285 214.137 116.852 214.137C114.944 214.137 113.625 212.947 113.406 211.307H115.17C115.348 212.093 115.956 212.592 116.852 212.592C118.287 212.592 119.094 211.327 119.107 209.201H118.998C118.499 210.062 117.542 210.575 116.455 210.568C114.685 210.575 113.317 209.229 113.311 207.355C113.311 205.421 114.767 203.951 116.961 203.965ZM115.047 207.314C115.047 208.381 115.84 209.215 116.947 209.215C118.048 209.215 118.896 208.326 118.889 207.301C118.889 206.296 118.082 205.407 116.975 205.4C115.86 205.407 115.033 206.255 115.047 207.314ZM123.906 213.029L122.758 216.857H121.459L122.17 213.029H123.906ZM129.143 203.965C131.077 203.979 133.005 205.134 133.012 208.75C133.012 212.161 131.467 214.137 129.033 214.137C127.126 214.137 125.807 212.947 125.588 211.307H127.352C127.529 212.093 128.138 212.592 129.033 212.592C130.469 212.592 131.275 211.327 131.289 209.201H131.18C130.681 210.062 129.724 210.575 128.637 210.568C126.866 210.575 125.499 209.229 125.492 207.355C125.492 205.421 126.948 203.951 129.143 203.965ZM127.229 207.314C127.229 208.381 128.021 209.215 129.129 209.215C130.229 209.215 131.077 208.326 131.07 207.301C131.07 206.296 130.264 205.407 129.156 205.4C128.042 205.407 127.215 206.255 127.229 207.314ZM138.139 214.137C135.753 214.137 134.331 212.291 134.338 209.051C134.331 205.824 135.767 203.965 138.139 203.965C140.511 203.965 141.939 205.824 141.939 209.051C141.939 212.298 140.518 214.137 138.139 214.137ZM136.129 209.051C136.129 211.43 136.895 212.64 138.139 212.646C139.376 212.64 140.148 211.43 140.148 209.051C140.142 206.692 139.376 205.448 138.139 205.441C136.901 205.448 136.136 206.692 136.129 209.051ZM147.08 214.137C144.694 214.137 143.272 212.291 143.279 209.051C143.272 205.824 144.708 203.965 147.08 203.965C149.452 203.965 150.881 205.824 150.881 209.051C150.881 212.298 149.459 214.137 147.08 214.137ZM145.07 209.051C145.07 211.43 145.836 212.64 147.08 212.646C148.317 212.64 149.09 211.43 149.09 209.051C149.083 206.692 148.317 205.448 147.08 205.441C145.843 205.448 145.077 206.692 145.07 209.051ZM162.324 202.871V212.223H160.793V211.143H158.373V210.076H160.793V202.871H162.324ZM151.906 208.422C154.183 208.408 157.252 208.388 159.877 208.053L159.959 209.146C158.94 209.317 157.888 209.427 156.842 209.502V211.881H155.324V209.584C154.169 209.632 153.068 209.639 152.098 209.639L151.906 208.422ZM152.85 205.51C152.85 204.204 154.107 203.315 155.939 203.322C157.737 203.315 159.002 204.204 159.016 205.51C159.002 206.836 157.737 207.677 155.939 207.684C154.107 207.677 152.85 206.836 152.85 205.51ZM153.547 214.971V211.32H155.064V213.74H162.611V214.971H153.547ZM154.285 205.51C154.285 206.18 154.948 206.569 155.939 206.576C156.883 206.569 157.56 206.18 157.566 205.51C157.56 204.84 156.883 204.437 155.939 204.443C154.948 204.437 154.285 204.84 154.285 205.51Z" fill="#FF7417"/>
<path d="M301.692 183.442L295.442 189.692C295.384 189.75 295.315 189.796 295.239 189.828C295.163 189.859 295.082 189.875 295 189.875C294.918 189.875 294.836 189.859 294.761 189.828C294.685 189.796 294.616 189.75 294.558 189.692C294.5 189.634 294.454 189.565 294.422 189.489C294.391 189.414 294.375 189.332 294.375 189.25C294.375 189.168 294.391 189.087 294.422 189.011C294.454 188.935 294.5 188.866 294.558 188.808L300.366 183L294.558 177.192C294.44 177.075 294.375 176.916 294.375 176.75C294.375 176.584 294.44 176.425 294.558 176.308C294.675 176.191 294.834 176.125 295 176.125C295.166 176.125 295.325 176.191 295.442 176.308L301.692 182.558C301.75 182.616 301.796 182.685 301.828 182.761C301.859 182.837 301.875 182.918 301.875 183C301.875 183.082 301.859 183.164 301.828 183.239C301.796 183.315 301.75 183.384 301.692 183.442Z" fill="black"/>
<rect x="0.5" y="256.5" width="323" height="109" rx="4.5" stroke="#FF7417"/>
<rect x="16.5" y="274" width="66" height="25" rx="12.5" fill="#FF7417"/>
<path d="M25.0664 291L25.4834 288.443H23.3506L22.9336 291H21.5801L21.9971 288.443H20.6094L20.8281 287.104H22.2227L22.5645 284.998H21.1836L21.4023 283.658H22.79L23.207 281.102H24.5605L24.1436 283.658H26.2764L26.6934 281.102H28.0332L27.6162 283.658H29.0176L28.7852 284.998H27.3906L27.0488 287.104H28.4434L28.2246 288.443H26.8232L26.4062 291H25.0664ZM23.5762 287.104H25.709L26.0508 284.998H23.918L23.5762 287.104ZM39.8047 279.857V292.217H38.2871V279.857H39.8047ZM29.6602 288.703C31.6289 287.835 32.7637 285.757 32.7637 283.781V283.139H30.043V281.922H32.7637V280.117H34.2676V281.922H36.9336V283.139H34.2812V283.781C34.2744 285.661 35.4297 287.678 37.4258 288.512L36.5918 289.674C35.1768 289.072 34.1104 287.842 33.543 286.352C32.9893 287.931 31.9229 289.25 30.4805 289.879L29.6602 288.703ZM44.959 280.76C46.8184 280.76 48.1582 282.455 48.1719 285.121C48.1582 287.808 46.8184 289.496 44.959 289.496C43.0791 289.496 41.7393 287.808 41.7461 285.121C41.7393 282.455 43.0791 280.76 44.959 280.76ZM43.209 285.121C43.2021 287.021 43.9199 288.122 44.959 288.129C46.0049 288.122 46.7021 287.021 46.709 285.121C46.7021 283.234 46.0049 282.127 44.959 282.127C43.9199 282.127 43.2021 283.234 43.209 285.121ZM49.7988 292.217V279.857H51.3164V284.602H53.2168V285.887H51.3164V292.217H49.7988ZM65.0293 289.482V290.727H53.7363V289.482H58.6035V287.076H54.9805V280.678H56.498V282.701H62.2266V280.678H63.7441V287.076H60.1074V289.482H65.0293ZM56.498 285.846H62.2266V283.918H56.498V285.846ZM76.1855 279.857V287.336H74.668V284.779H72.9043V283.521H74.668V279.857H76.1855ZM65.8633 282.236V281.006H68.7344V279.762H70.2383V281.006H73.1094V282.236H65.8633ZM66.5605 284.93C66.5537 283.631 67.7773 282.715 69.4863 282.715C71.209 282.715 72.4189 283.631 72.4258 284.93C72.4189 286.263 71.209 287.145 69.4863 287.145C67.7773 287.145 66.5537 286.263 66.5605 284.93ZM67.9688 292.066V287.896H76.1855V292.066H67.9688ZM68.0098 284.93C68.0098 285.613 68.5977 286.01 69.4863 286.01C70.3682 286.01 70.9629 285.613 70.9629 284.93C70.9629 284.267 70.3682 283.863 69.4863 283.863C68.5977 283.863 68.0098 284.267 68.0098 284.93ZM69.4863 290.836H74.6953V289.1H69.4863V290.836Z" fill="white"/>
<path d="M28.0312 306.266V311.688H30.2031V313.141H28.0312V320.406H26.3125V306.266H28.0312ZM17.5312 308.906V307.5H24.0312V312.828H19.2812V315.641C21.5234 315.625 23.2656 315.531 25.2344 315.188L25.3906 316.594C23.2109 316.984 21.2891 317.078 18.7188 317.078H17.5625V311.438H22.2969V308.906H17.5312ZM42.5469 306.266V320.406H40.7969V306.266H42.5469ZM31.25 312.281C31.2422 309.234 32.7969 307.297 34.9375 307.297C37.0547 307.297 38.6172 309.234 38.625 312.281C38.6172 315.352 37.0547 317.281 34.9375 317.281C32.7969 317.281 31.2422 315.352 31.25 312.281ZM32.9219 312.281C32.9219 314.453 33.7422 315.711 34.9375 315.719C36.125 315.711 36.9375 314.453 36.9375 312.281C36.9375 310.125 36.125 308.859 34.9375 308.859C33.7422 308.859 32.9219 310.125 32.9219 312.281ZM57.7812 311.719V313.141H55.6875V320.359H53.9531V306.266H55.6875V311.719H57.7812ZM45.125 316.875V307.641H46.8438V315.438C48.7266 315.406 50.7266 315.242 52.8594 314.797L53.0469 316.266C50.6641 316.742 48.4062 316.867 46.3125 316.875H45.125ZM62.8594 308.891C62.8672 310.414 63.7578 311.953 65.6094 312.656L64.6875 313.984C63.4297 313.508 62.5547 312.602 62.0469 311.508C61.5312 312.766 60.6094 313.844 59.2656 314.406L58.3281 313.078C60.2734 312.219 61.1797 310.453 61.1875 308.891V307.141H62.8594V308.891ZM60.9219 317.766C60.9141 316.141 62.7891 315.172 65.7656 315.172C68.7188 315.172 70.6016 316.141 70.6094 317.766C70.6016 319.398 68.7188 320.375 65.7656 320.375C62.7891 320.375 60.9141 319.398 60.9219 317.766ZM62.6562 317.766C62.6484 318.602 63.8047 319.055 65.7656 319.047C67.6953 319.055 68.8516 318.602 68.8594 317.766C68.8516 316.938 67.6953 316.484 65.7656 316.484C63.8047 316.484 62.6484 316.938 62.6562 317.766ZM65.8438 314.5V306.547H67.4688V309.844H68.875V306.281H70.5312V314.938H68.875V311.266H67.4688V314.5H65.8438ZM84.1094 306.266V314.578H82.375V312.625H79.5312V313.719H72.8906V307.328H79.5312V308.422H82.375V306.266H84.1094ZM74.5312 317.672C74.5156 315.953 76.3516 314.945 79.3281 314.953C82.3203 314.945 84.1484 315.953 84.1562 317.672C84.1484 319.391 82.3203 320.375 79.3281 320.375C76.3516 320.375 74.5156 319.391 74.5312 317.672ZM74.625 312.328H77.8125V308.703H74.625V312.328ZM76.25 317.672C76.2422 318.547 77.3672 319.031 79.3281 319.031C81.3047 319.031 82.4219 318.547 82.4219 317.672C82.4219 316.758 81.3047 316.289 79.3281 316.281C77.3672 316.289 76.2422 316.758 76.25 317.672ZM79.5312 311.219H82.375V309.797H79.5312V311.219ZM101.641 306.266V320.391H99.9062V306.266H101.641ZM90.0469 316.375C92.2969 315.383 93.5938 313.008 93.5938 310.75V310.016H90.4844V308.625H93.5938V306.562H95.3125V308.625H98.3594V310.016H95.3281V310.75C95.3203 312.898 96.6406 315.203 98.9219 316.156L97.9688 317.484C96.3516 316.797 95.1328 315.391 94.4844 313.688C93.8516 315.492 92.6328 317 90.9844 317.719L90.0469 316.375ZM107.531 307.297C109.656 307.297 111.188 309.234 111.203 312.281C111.188 315.352 109.656 317.281 107.531 317.281C105.383 317.281 103.852 315.352 103.859 312.281C103.852 309.234 105.383 307.297 107.531 307.297ZM105.531 312.281C105.523 314.453 106.344 315.711 107.531 315.719C108.727 315.711 109.523 314.453 109.531 312.281C109.523 310.125 108.727 308.859 107.531 308.859C106.344 308.859 105.523 310.125 105.531 312.281ZM113.062 320.391V306.266H114.797V311.688H116.969V313.156H114.797V320.391H113.062ZM130.469 317.266V318.688H117.562V317.266H123.125V314.516H118.984V307.203H120.719V309.516H127.266V307.203H129V314.516H124.844V317.266H130.469ZM120.719 313.109H127.266V310.906H120.719V313.109ZM143.219 306.266V314.812H141.484V311.891H139.469V310.453H141.484V306.266H143.219ZM131.422 308.984V307.578H134.703V306.156H136.422V307.578H139.703V308.984H131.422ZM132.219 312.062C132.211 310.578 133.609 309.531 135.562 309.531C137.531 309.531 138.914 310.578 138.922 312.062C138.914 313.586 137.531 314.594 135.562 314.594C133.609 314.594 132.211 313.586 132.219 312.062ZM133.828 320.219V315.453H143.219V320.219H133.828ZM133.875 312.062C133.875 312.844 134.547 313.297 135.562 313.297C136.57 313.297 137.25 312.844 137.25 312.062C137.25 311.305 136.57 310.844 135.562 310.844C134.547 310.844 133.875 311.305 133.875 312.062ZM135.562 318.812H141.516V316.828H135.562V318.812Z" fill="black"/>
<path d="M27.5742 330.857V343.217H26.1113V330.857H27.5742ZM17.0332 336.203C17.0332 333.482 18.0859 331.794 19.6992 331.801C20.7451 331.794 21.5586 332.484 22.0166 333.688H23.6367V331.076H25.0723V342.615H23.6367V338.719H22.0166C21.5654 339.929 20.7451 340.626 19.6992 340.619C18.0859 340.626 17.0332 338.931 17.0332 336.203ZM18.4277 336.203C18.4141 338.138 18.8857 339.177 19.6992 339.17C20.5195 339.177 21.0254 338.138 21.0254 336.203C21.0254 334.275 20.5195 333.229 19.6992 333.236C18.8857 333.229 18.4141 334.275 18.4277 336.203ZM22.3242 334.918C22.3857 335.314 22.4199 335.745 22.4199 336.203C22.4199 336.654 22.3857 337.078 22.3311 337.475H23.6367V334.918H22.3242ZM33.3848 332.826C33.3848 334.378 34.3896 335.848 36.2969 336.449L35.4766 337.639C34.1436 337.188 33.1865 336.285 32.6465 335.137C32.1133 336.449 31.1152 337.481 29.6934 337.98L28.873 336.791C30.8623 336.101 31.8604 334.453 31.8672 332.689V331.514H33.3848V332.826ZM30.5547 340.852C30.5547 339.389 32.1611 338.521 34.7383 338.527C37.2949 338.521 38.874 339.389 38.8809 340.852C38.874 342.349 37.2949 343.203 34.7383 343.203C32.1611 343.203 30.5547 342.349 30.5547 340.852ZM32.0723 340.852C32.0723 341.617 33.043 342 34.7383 342C36.4268 342 37.377 341.617 37.377 340.852C37.377 340.127 36.4268 339.717 34.7383 339.717C33.043 339.717 32.0723 340.127 32.0723 340.852ZM37.2402 338.254V330.857H38.7578V333.865H40.4805V335.123H38.7578V338.254H37.2402ZM55.7246 340.482V341.727H44.4316V340.482H49.2988V338.076H45.6758V331.678H47.1934V333.701H52.9219V331.678H54.4395V338.076H50.8027V340.482H55.7246ZM47.1934 336.846H52.9219V334.918H47.1934V336.846ZM66.8809 330.857V338.336H65.3633V335.779H63.5996V334.521H65.3633V330.857H66.8809ZM56.5586 333.236V332.006H59.4297V330.762H60.9336V332.006H63.8047V333.236H56.5586ZM57.2559 335.93C57.249 334.631 58.4727 333.715 60.1816 333.715C61.9043 333.715 63.1143 334.631 63.1211 335.93C63.1143 337.263 61.9043 338.145 60.1816 338.145C58.4727 338.145 57.249 337.263 57.2559 335.93ZM58.6641 343.066V338.896H66.8809V343.066H58.6641ZM58.7051 335.93C58.7051 336.613 59.293 337.01 60.1816 337.01C61.0635 337.01 61.6582 336.613 61.6582 335.93C61.6582 335.267 61.0635 334.863 60.1816 334.863C59.293 334.863 58.7051 335.267 58.7051 335.93ZM60.1816 341.836H65.3906V340.1H60.1816V341.836ZM79.9238 340.523V341.781H68.6309V340.523H71.625V338.486H69.9707V334.453H77.0801V332.936H69.9434V331.705H78.584V335.67H71.4883V337.256H78.8711V338.486H77.0664V340.523H79.9238ZM73.1016 340.523H75.5762V338.486H73.1016V340.523ZM85.5566 342.109C84.9688 342.109 84.4834 341.631 84.4902 341.043C84.4834 340.469 84.9688 339.997 85.5566 339.99C86.124 339.997 86.6094 340.469 86.6094 341.043C86.6094 341.631 86.124 342.109 85.5566 342.109ZM84.4902 335.738C84.4834 335.164 84.9688 334.692 85.5566 334.686C86.124 334.692 86.6094 335.164 86.6094 335.738C86.6094 336.326 86.124 336.805 85.5566 336.805C84.9688 336.805 84.4834 336.326 84.4902 335.738ZM101.553 330.871V338.076H100.021V337.57H97.7109V336.641H100.021V330.871H101.553ZM91.1758 335.328C93.5615 335.328 96.5488 335.308 99.2012 335.041L99.2832 335.998C98.1553 336.148 96.9932 336.251 95.8516 336.306V338.09H94.3477V336.367C93.2881 336.395 92.2695 336.401 91.3398 336.395L91.1758 335.328ZM92.0508 332.922C92.0508 331.801 93.2881 331.069 95.168 331.062C97.0068 331.069 98.251 331.801 98.2578 332.922C98.251 334.07 97.0068 334.768 95.168 334.768C93.2881 334.768 92.0508 334.07 92.0508 332.922ZM92.9805 339.498V338.459H101.553V341.234H94.5254V342.027H101.881V343.107H93.0352V340.236H100.049V339.498H92.9805ZM93.5 332.922C93.4863 333.441 94.1289 333.763 95.168 333.756C96.1865 333.763 96.8359 333.441 96.8359 332.922C96.8359 332.402 96.1865 332.067 95.168 332.074C94.1289 332.067 93.4863 332.402 93.5 332.922ZM107.021 342V340.715L110.521 337.338C111.52 336.34 112.039 335.752 112.039 334.918C112.039 333.995 111.308 333.414 110.344 333.414C109.325 333.414 108.669 334.05 108.676 335.055H106.98C106.974 333.182 108.382 331.965 110.357 331.965C112.381 331.965 113.741 333.175 113.748 334.836C113.741 335.95 113.208 336.853 111.26 338.691L109.496 340.441V340.51H113.898V342H107.021ZM118.971 331.965C120.905 331.979 122.833 333.134 122.84 336.75C122.84 340.161 121.295 342.137 118.861 342.137C116.954 342.137 115.635 340.947 115.416 339.307H117.18C117.357 340.093 117.966 340.592 118.861 340.592C120.297 340.592 121.104 339.327 121.117 337.201H121.008C120.509 338.062 119.552 338.575 118.465 338.568C116.694 338.575 115.327 337.229 115.32 335.355C115.32 333.421 116.776 331.951 118.971 331.965ZM117.057 335.314C117.057 336.381 117.85 337.215 118.957 337.215C120.058 337.215 120.905 336.326 120.898 335.301C120.898 334.296 120.092 333.407 118.984 333.4C117.87 333.407 117.043 334.255 117.057 335.314ZM125.916 341.029L124.768 344.857H123.469L124.18 341.029H125.916ZM131.152 331.965C133.087 331.979 135.015 333.134 135.021 336.75C135.021 340.161 133.477 342.137 131.043 342.137C129.136 342.137 127.816 340.947 127.598 339.307H129.361C129.539 340.093 130.147 340.592 131.043 340.592C132.479 340.592 133.285 339.327 133.299 337.201H133.189C132.69 338.062 131.733 338.575 130.646 338.568C128.876 338.575 127.509 337.229 127.502 335.355C127.502 333.421 128.958 331.951 131.152 331.965ZM129.238 335.314C129.238 336.381 130.031 337.215 131.139 337.215C132.239 337.215 133.087 336.326 133.08 335.301C133.08 334.296 132.273 333.407 131.166 333.4C130.052 333.407 129.225 334.255 129.238 335.314ZM140.148 342.137C137.763 342.137 136.341 340.291 136.348 337.051C136.341 333.824 137.776 331.965 140.148 331.965C142.521 331.965 143.949 333.824 143.949 337.051C143.949 340.298 142.527 342.137 140.148 342.137ZM138.139 337.051C138.139 339.43 138.904 340.64 140.148 340.646C141.386 340.64 142.158 339.43 142.158 337.051C142.151 334.692 141.386 333.448 140.148 333.441C138.911 333.448 138.146 334.692 138.139 337.051ZM149.09 342.137C146.704 342.137 145.282 340.291 145.289 337.051C145.282 333.824 146.718 331.965 149.09 331.965C151.462 331.965 152.891 333.824 152.891 337.051C152.891 340.298 151.469 342.137 149.09 342.137ZM147.08 337.051C147.08 339.43 147.846 340.64 149.09 340.646C150.327 340.64 151.1 339.43 151.1 337.051C151.093 334.692 150.327 333.448 149.09 333.441C147.853 333.448 147.087 334.692 147.08 337.051ZM164.334 330.871V340.223H162.803V339.143H160.383V338.076H162.803V330.871H164.334ZM153.916 336.422C156.192 336.408 159.262 336.388 161.887 336.053L161.969 337.146C160.95 337.317 159.897 337.427 158.852 337.502V339.881H157.334V337.584C156.179 337.632 155.078 337.639 154.107 337.639L153.916 336.422ZM154.859 333.51C154.859 332.204 156.117 331.315 157.949 331.322C159.747 331.315 161.012 332.204 161.025 333.51C161.012 334.836 159.747 335.677 157.949 335.684C156.117 335.677 154.859 334.836 154.859 333.51ZM155.557 342.971V339.32H157.074V341.74H164.621V342.971H155.557ZM156.295 333.51C156.295 334.18 156.958 334.569 157.949 334.576C158.893 334.569 159.569 334.18 159.576 333.51C159.569 332.84 158.893 332.437 157.949 332.443C156.958 332.437 156.295 332.84 156.295 333.51Z" fill="#FF7417"/>
<path d="M301.692 311.442L295.442 317.692C295.384 317.75 295.315 317.796 295.239 317.828C295.163 317.859 295.082 317.875 295 317.875C294.918 317.875 294.836 317.859 294.761 317.828C294.685 317.796 294.616 317.75 294.558 317.692C294.5 317.634 294.454 317.565 294.422 317.489C294.391 317.414 294.375 317.332 294.375 317.25C294.375 317.168 294.391 317.087 294.422 317.011C294.454 316.935 294.5 316.866 294.558 316.808L300.366 311L294.558 305.192C294.44 305.075 294.375 304.916 294.375 304.75C294.375 304.584 294.44 304.425 294.558 304.308C294.675 304.191 294.834 304.125 295 304.125C295.166 304.125 295.325 304.191 295.442 304.308L301.692 310.558C301.75 310.616 301.796 310.685 301.828 310.761C301.859 310.837 301.875 310.918 301.875 311C301.875 311.082 301.859 311.164 301.828 311.239C301.796 311.315 301.75 311.384 301.692 311.442Z" fill="black"/>
</svg>
