<svg width="320" height="472" viewBox="0 0 320 472" fill="none" xmlns="http://www.w3.org/2000/svg">
<path d="M0 25C0 11.1929 11.1929 0 25 0H227C240.807 0 252 11.1929 252 25V55C252 68.8071 240.807 80 227 80H0V25Z" fill="#EEEEEE"/>
<path d="M22.4365 25.415C22.4365 28.335 20.3672 30.3789 17.0029 31.2676L16.5205 30.3154C19.2627 29.6045 20.9258 28.1826 21.1416 26.3799H17.1553V25.415H22.4365ZM25.8516 24.7168V31.1152H24.6455V24.7168H25.8516ZM25.8516 31.623V35.9268H18.3994V31.623H25.8516ZM19.5928 32.5879V34.9619H24.6709V32.5879H19.5928ZM33.4053 25.834V33.2227H28.0859V25.834H33.4053ZM29.2666 26.7861V32.2451H32.2119V26.7861H29.2666ZM36.5156 24.7041V29.1602H38.3438V30.1758H36.5156V36.0791H35.3096V24.7041H36.5156ZM48.3096 24.7041V36.1045H47.1035V24.7041H48.3096ZM42.2285 25.5547C43.917 25.5547 45.1611 27.1035 45.1611 29.541C45.1611 31.9912 43.917 33.54 42.2285 33.54C40.5146 33.54 39.2832 31.9912 39.2832 29.541C39.2832 27.1035 40.5146 25.5547 42.2285 25.5547ZM42.2285 26.6338C41.1748 26.6338 40.4512 27.751 40.4512 29.541C40.4512 31.3438 41.1748 32.4609 42.2285 32.4609C43.2695 32.4609 43.9932 31.3438 43.9932 29.541C43.9932 27.751 43.2695 26.6338 42.2285 26.6338ZM59.5449 24.7041V31.1279H58.3516V24.7041H59.5449ZM52.0293 25.3643V29.3506C53.8638 29.3379 55.4761 29.2046 57.1836 28.8428L57.3486 29.8457C55.4697 30.2266 53.7559 30.3662 51.7627 30.3662H50.8232V25.3643H52.0293ZM59.5449 31.6484V35.9268H52.0928V31.6484H59.5449ZM53.2734 32.6006V34.9619H58.3643V32.6006H53.2734ZM73.4717 24.6914V28.0938H75.1221V29.1094H73.4717V33.0576H72.2656V24.6914H73.4717ZM73.9541 34.8604V35.8379H66.2607V32.1816H67.4668V34.8604H73.9541ZM67.7334 25.4785C69.4473 25.4785 70.7549 26.6465 70.7676 28.3096C70.7549 29.96 69.4473 31.1406 67.7334 31.1406C66.0195 31.1406 64.6992 29.96 64.7119 28.3096C64.6992 26.6465 66.0195 25.4785 67.7334 25.4785ZM67.7334 26.5322C66.6924 26.5322 65.8799 27.2559 65.8926 28.3096C65.8799 29.3633 66.6924 30.0869 67.7334 30.0869C68.7871 30.0869 69.5869 29.3633 69.5869 28.3096C69.5869 27.2559 68.7871 26.5322 67.7334 26.5322ZM77.6611 25.3643V29.96C79.4893 29.9536 80.8096 29.8647 82.3076 29.5664L82.4473 30.5439C80.8223 30.874 79.3877 30.9629 77.3311 30.9502H76.4424V25.3643H77.6611ZM85.2529 24.7041V31.6357H84.0469V28.8809H80.9492V27.9541H84.0469V26.8877H80.9492V25.9482H84.0469V24.7041H85.2529ZM81.4443 31.7373C83.8311 31.7373 85.291 32.5498 85.291 33.9209C85.291 35.2793 83.8311 36.0664 81.4443 36.0791C79.0576 36.0664 77.585 35.2793 77.5977 33.9209C77.585 32.5498 79.0576 31.7373 81.4443 31.7373ZM81.4443 32.6895C79.7812 32.7021 78.791 33.1465 78.791 33.9209C78.791 34.6699 79.7812 35.1143 81.4443 35.1143C83.1074 35.1143 84.0977 34.6699 84.0977 33.9209C84.0977 33.1465 83.1074 32.7021 81.4443 32.6895ZM95.8662 24.7041V29.3125H97.6943V30.3154H95.8662V36.0791H94.6729V24.7041H95.8662ZM93.6826 26.4814V27.4717H86.9414V26.4814H89.7471V24.8564H90.9531V26.4814H93.6826ZM90.3564 28.3096C91.9814 28.3096 93.1748 29.4014 93.1875 30.9502C93.1748 32.5117 91.9814 33.5908 90.3564 33.6035C88.7188 33.5908 87.5254 32.5117 87.5254 30.9502C87.5254 29.4014 88.7188 28.3096 90.3564 28.3096ZM90.3564 29.2998C89.3916 29.2998 88.668 29.9727 88.6807 30.9502C88.668 31.9404 89.3916 32.6006 90.3564 32.5879C91.3213 32.6006 92.0322 31.9404 92.0322 30.9502C92.0322 29.9727 91.3213 29.2998 90.3564 29.2998ZM101.706 27.8145C101.706 29.6299 102.468 31.5723 103.991 32.499L103.318 33.4258C102.252 32.7847 101.528 31.6484 101.147 30.3281C100.722 31.7754 99.9414 33.0068 98.8369 33.6797L98.0879 32.7783C99.7002 31.8135 100.538 29.8076 100.538 27.8652V25.7451H101.706V27.8145ZM108.028 24.7041V36.0791H106.873V24.7041H108.028ZM105.667 24.9199V35.5205H104.524V29.7061H102.76V28.7031H104.524V24.9199H105.667ZM119.886 33.6543V34.6572H109.476V33.6543H111.964V30.6836C111.031 30.1694 110.466 29.3506 110.466 28.335C110.466 26.5449 112.218 25.3643 114.655 25.3643C117.105 25.3643 118.857 26.5449 118.857 28.335C118.857 29.3379 118.312 30.144 117.397 30.6582V33.6543H119.886ZM114.655 26.3291C112.865 26.3291 111.634 27.1035 111.634 28.335C111.634 29.5537 112.865 30.3535 114.655 30.3535C116.433 30.3535 117.689 29.5537 117.689 28.335C117.689 27.1035 116.433 26.3291 114.655 26.3291ZM113.157 33.6543H116.179V31.1152C115.715 31.2358 115.201 31.293 114.655 31.293C114.122 31.293 113.614 31.2358 113.157 31.1279V33.6543ZM122.755 34.124L121.739 37.6279H120.66L121.333 34.124H122.755ZM132.987 28.0938V29.3379H137.608V30.3154H127.198V29.3379H131.794V28.0938H132.987ZM136.656 25.0342V25.9609H133.216C133.406 26.9448 135.006 27.7256 137.062 27.8652L136.669 28.7666C134.663 28.5952 133 27.8652 132.403 26.7227C131.8 27.8652 130.131 28.5952 128.125 28.7666L127.731 27.8652C129.75 27.7256 131.375 26.9448 131.578 25.9609H128.163V25.0342H136.656ZM136.618 31.7119V32.6387H128.163V31.7119H131.794V30.709H132.987V31.7119H136.618ZM132.378 33.1211C134.587 33.1211 135.856 33.6416 135.856 34.6191C135.856 35.6094 134.587 36.1299 132.378 36.1299C130.169 36.1299 128.938 35.6094 128.938 34.6191C128.938 33.6416 130.169 33.1211 132.378 33.1211ZM132.378 33.9463C130.956 33.9463 130.156 34.1621 130.169 34.6191C130.156 35.0762 130.956 35.3174 132.378 35.3047C133.825 35.3174 134.6 35.0762 134.612 34.6191C134.6 34.1621 133.825 33.9463 132.378 33.9463ZM148.818 30.6455V31.6104H138.446V30.6455H148.818ZM147.65 34.8604V35.8379H139.754V32.5371H140.973V34.8604H147.65ZM143.626 25.085C146.089 25.0723 147.688 25.9355 147.688 27.3574C147.688 28.792 146.089 29.6553 143.626 29.668C141.15 29.6553 139.563 28.792 139.563 27.3574C139.563 25.9355 141.15 25.0723 143.626 25.085ZM143.626 26.0498C141.887 26.0498 140.795 26.5449 140.808 27.3574C140.795 28.1953 141.887 28.6777 143.626 28.6777C145.365 28.6777 146.444 28.1953 146.444 27.3574C146.444 26.5449 145.365 26.0498 143.626 26.0498ZM155.902 25.5547C157.604 25.5547 158.81 27.1035 158.822 29.541C158.81 31.9912 157.604 33.54 155.902 33.54C154.201 33.54 152.982 31.9912 152.995 29.541C152.982 27.1035 154.201 25.5547 155.902 25.5547ZM155.902 26.6338C154.861 26.6338 154.15 27.751 154.15 29.541C154.15 31.3438 154.861 32.4609 155.902 32.4609C156.956 32.4609 157.667 31.3438 157.667 29.541C157.667 27.751 156.956 26.6338 155.902 26.6338ZM161.717 24.7041V29.1602H163.545V30.1758H161.717V36.0791H160.511V24.7041H161.717ZM168.318 27.0146C168.318 28.3604 169.436 29.6299 171.2 30.1123L170.629 31.0518C169.296 30.6709 168.274 29.8457 167.747 28.7793C167.233 29.9473 166.211 30.8613 164.853 31.293L164.281 30.3662C166.021 29.8076 167.112 28.4619 167.112 27.0146V26.9385H164.586V25.9736H167.112V24.6533H168.331V25.9736H170.832V26.9385H168.318V27.0146ZM173.523 24.7168V31.4326H172.317V24.7168H173.523ZM173.523 31.9658V35.9395H166.046V31.9658H173.523ZM167.239 32.9434V34.9619H172.343V32.9434H167.239ZM184.746 24.7041V36.1045H183.54V24.7041H184.746ZM178.665 25.5547C180.354 25.5547 181.598 27.1035 181.598 29.541C181.598 31.9912 180.354 33.54 178.665 33.54C176.951 33.54 175.72 31.9912 175.72 29.541C175.72 27.1035 176.951 25.5547 178.665 25.5547ZM178.665 26.6338C177.611 26.6338 176.888 27.751 176.888 29.541C176.888 31.3438 177.611 32.4609 178.665 32.4609C179.706 32.4609 180.43 31.3438 180.43 29.541C180.43 27.751 179.706 26.6338 178.665 26.6338ZM196.35 24.7041V36.0791H195.194V24.7041H196.35ZM194.039 24.9199V35.5205H192.884V30.0361H191.602C191.5 32.2578 190.548 33.6416 189.139 33.6289C187.653 33.6416 186.688 32.0801 186.688 29.6172C186.688 27.1543 187.653 25.6055 189.139 25.6182C190.522 25.6055 191.462 26.9194 191.602 29.0586H192.884V24.9199H194.039ZM189.139 26.748C188.313 26.748 187.806 27.8018 187.806 29.6172C187.806 31.4326 188.313 32.4863 189.139 32.4863C189.977 32.4863 190.497 31.4326 190.497 29.6172C190.497 27.8018 189.977 26.748 189.139 26.748ZM208.207 33.6543V34.6572H197.797V33.6543H200.285V30.6836C199.352 30.1694 198.787 29.3506 198.787 28.335C198.787 26.5449 200.539 25.3643 202.977 25.3643C205.427 25.3643 207.179 26.5449 207.179 28.335C207.179 29.3379 206.633 30.144 205.719 30.6582V33.6543H208.207ZM202.977 26.3291C201.187 26.3291 199.955 27.1035 199.955 28.335C199.955 29.5537 201.187 30.3535 202.977 30.3535C204.754 30.3535 206.011 29.5537 206.011 28.335C206.011 27.1035 204.754 26.3291 202.977 26.3291ZM201.479 33.6543H204.5V31.1152C204.037 31.2358 203.522 31.293 202.977 31.293C202.443 31.293 201.936 31.2358 201.479 31.1279V33.6543ZM210.327 35.0889C209.832 35.0889 209.413 34.6826 209.426 34.1875C209.413 33.6924 209.832 33.2861 210.327 33.2861C210.81 33.2861 211.229 33.6924 211.229 34.1875C211.229 34.6826 210.81 35.0889 210.327 35.0889ZM19.5039 45.5547C21.0464 45.5547 22.1763 46.8623 22.3604 48.9697H24.709V44.7041H25.9023V56.1045H24.709V49.9473H22.373C22.2397 52.1626 21.0845 53.54 19.5039 53.54C17.8027 53.54 16.6094 51.9912 16.6221 49.541C16.6094 47.1035 17.8027 45.5547 19.5039 45.5547ZM19.5039 46.6338C18.4756 46.6338 17.7646 47.751 17.7646 49.541C17.7646 51.3438 18.4756 52.4609 19.5039 52.4609C20.5322 52.4609 21.2432 51.3438 21.2432 49.541C21.2432 47.751 20.5322 46.6338 19.5039 46.6338ZM37.5439 54.8604V55.8379H29.5205V52.2705H30.7266V54.8604H37.5439ZM37.2393 44.7168V52.9688H36.0586V48.7793H34.1289V47.8018H36.0586V44.7168H37.2393ZM30.8408 45.6182V46.5957H29.1016V50.2266C29.6729 50.2075 30.2822 50.1504 30.9551 49.998L31.0566 50.9883C30.0537 51.2041 29.2539 51.2041 28.4414 51.2041H27.9336V45.6182H30.8408ZM34.624 45.6182V46.5957H32.6436V50.2266C33.5703 50.2202 34.2368 50.1631 34.9922 49.9854L35.1191 50.9629C34.1416 51.1787 33.3545 51.2041 32.0342 51.2041H31.4502V45.6182H34.624ZM51.2803 49.9473V50.9121H47.8398V53.6924H52.4736V54.6826H42.0635V53.6924H46.6465V50.9121H43.3584V45.5801H51.1787V46.5576H44.5645V49.9473H51.2803ZM58.4785 44.8945C60.9795 44.8945 62.541 45.6943 62.541 47.0654C62.541 48.3984 60.9795 49.1982 58.4785 49.1982C55.9902 49.1982 54.416 48.3984 54.416 47.0654C54.416 45.6943 55.9902 44.8945 58.4785 44.8945ZM58.4785 45.834C56.7266 45.834 55.6475 46.2783 55.6602 47.0654C55.6475 47.8271 56.7266 48.2588 58.4785 48.2588C60.2178 48.2588 61.2969 47.8271 61.2969 47.0654C61.2969 46.2783 60.2178 45.834 58.4785 45.834ZM62.4014 52.1436V55.9395H54.543V52.1436H57.8818V50.9502H53.2988V49.9727H63.6709V50.9502H59.0752V52.1436H62.4014ZM55.7363 53.1084V54.9619H61.2334V53.1084H55.7363ZM73.9541 44.7041V56.1045H72.748V44.7041H73.9541ZM67.873 45.5547C69.5615 45.5547 70.8057 47.1035 70.8057 49.541C70.8057 51.9912 69.5615 53.54 67.873 53.54C66.1592 53.54 64.9277 51.9912 64.9277 49.541C64.9277 47.1035 66.1592 45.5547 67.873 45.5547ZM67.873 46.6338C66.8193 46.6338 66.0957 47.751 66.0957 49.541C66.0957 51.3438 66.8193 52.4609 67.873 52.4609C68.9141 52.4609 69.6377 51.3438 69.6377 49.541C69.6377 47.751 68.9141 46.6338 67.873 46.6338ZM88.4014 44.7041V50.582H87.1826V44.7041H88.4014ZM88.4014 51.1025V53.9209H82.0664V55H88.7949V55.9648H80.8857V53.0449H87.208V52.0547H80.8477V51.1025H88.4014ZM85.6211 45.4531V46.4053H84.5293V49.0967C85.0815 49.0586 85.6274 49.0078 86.1416 48.9443L86.1924 49.8203C83.9199 50.1631 81.2666 50.2393 79.2734 50.2393L79.1338 49.2744L80.5176 49.2617V46.4053H79.4385V45.4531H85.6211ZM81.6729 49.2363C82.2314 49.2173 82.8027 49.1982 83.374 49.1602V46.4053H81.6729V49.2363ZM100.589 53.6543V54.6572H90.1787V53.6543H92.667V50.6836C91.7339 50.1694 91.1689 49.3506 91.1689 48.335C91.1689 46.5449 92.9209 45.3643 95.3584 45.3643C97.8086 45.3643 99.5605 46.5449 99.5605 48.335C99.5605 49.3379 99.0146 50.144 98.1006 50.6582V53.6543H100.589ZM95.3584 46.3291C93.5684 46.3291 92.3369 47.1035 92.3369 48.335C92.3369 49.5537 93.5684 50.3535 95.3584 50.3535C97.1357 50.3535 98.3926 49.5537 98.3926 48.335C98.3926 47.1035 97.1357 46.3291 95.3584 46.3291ZM93.8604 53.6543H96.8818V51.1152C96.4185 51.2358 95.9043 51.293 95.3584 51.293C94.8252 51.293 94.3174 51.2358 93.8604 51.1279V53.6543ZM110.275 44.7041V49.3125H112.104V50.3154H110.275V56.0791H109.082V44.7041H110.275ZM108.092 46.4814V47.4717H101.351V46.4814H104.156V44.8564H105.362V46.4814H108.092ZM104.766 48.3096C106.391 48.3096 107.584 49.4014 107.597 50.9502C107.584 52.5117 106.391 53.5908 104.766 53.6035C103.128 53.5908 101.935 52.5117 101.935 50.9502C101.935 49.4014 103.128 48.3096 104.766 48.3096ZM104.766 49.2998C103.801 49.2998 103.077 49.9727 103.09 50.9502C103.077 51.9404 103.801 52.6006 104.766 52.5879C105.73 52.6006 106.441 51.9404 106.441 50.9502C106.441 49.9727 105.73 49.2998 104.766 49.2998ZM122.082 44.7168V53.0449H120.876V44.7168H122.082ZM122.425 54.8604V55.8379H114.643V52.2578H115.861V54.8604H122.425ZM116.788 46.4688C116.775 48.1318 117.842 49.6553 119.594 50.2646L118.972 51.2295C117.658 50.7407 116.687 49.7759 116.179 48.5381C115.677 49.8584 114.693 50.9185 113.36 51.4326L112.713 50.4805C114.503 49.8203 115.557 48.1826 115.557 46.4688V45.3389H116.788V46.4688ZM132.746 44.7041V49.2363H134.511V50.2393H132.746V56.0664H131.54V44.7041H132.746ZM129.775 45.8975C129.763 49.1855 128.315 52.1182 124.57 53.9717L123.897 53.0322C126.748 51.6104 128.296 49.5537 128.544 46.9004H124.469V45.8975H129.775ZM145.53 53.6543V54.6572H135.12V53.6543H137.608V50.6836C136.675 50.1694 136.11 49.3506 136.11 48.335C136.11 46.5449 137.862 45.3643 140.3 45.3643C142.75 45.3643 144.502 46.5449 144.502 48.335C144.502 49.3379 143.956 50.144 143.042 50.6582V53.6543H145.53ZM140.3 46.3291C138.51 46.3291 137.278 47.1035 137.278 48.335C137.278 49.5537 138.51 50.3535 140.3 50.3535C142.077 50.3535 143.334 49.5537 143.334 48.335C143.334 47.1035 142.077 46.3291 140.3 46.3291ZM138.802 53.6543H141.823V51.1152C141.36 51.2358 140.846 51.293 140.3 51.293C139.767 51.293 139.259 51.2358 138.802 51.1279V53.6543ZM148.222 52.2705C148.234 50.6074 148.729 50.0996 149.567 49.5791C150.101 49.249 150.507 48.792 150.507 48.1191C150.507 47.3193 149.897 46.8242 149.136 46.8242C148.45 46.8242 147.79 47.2432 147.727 48.1826H146.355C146.406 46.5703 147.625 45.6816 149.136 45.6816C150.786 45.6816 151.891 46.6719 151.891 48.1191C151.891 49.1348 151.408 49.8203 150.596 50.3154C149.834 50.7725 149.542 51.2422 149.517 52.2705V52.3467H148.222V52.2705ZM148.92 55.0889C148.425 55.0889 148.006 54.6826 148.019 54.1875C148.006 53.6924 148.425 53.2861 148.92 53.2861C149.402 53.2861 149.821 53.6924 149.821 54.1875C149.821 54.6826 149.402 55.0889 148.92 55.0889Z" fill="#505050"/>
<path d="M0 417C0 403.193 11.1929 392 25 392H227C240.807 392 252 403.193 252 417V447C252 460.807 240.807 472 227 472H0V417Z" fill="#EEEEEE"/>
<path d="M22.4365 417.415C22.4365 420.335 20.3672 422.379 17.0029 423.268L16.5205 422.315C19.2627 421.604 20.9258 420.183 21.1416 418.38H17.1553V417.415H22.4365ZM25.8516 416.717V423.115H24.6455V416.717H25.8516ZM25.8516 423.623V427.927H18.3994V423.623H25.8516ZM19.5928 424.588V426.962H24.6709V424.588H19.5928ZM33.4053 417.834V425.223H28.0859V417.834H33.4053ZM29.2666 418.786V424.245H32.2119V418.786H29.2666ZM36.5156 416.704V421.16H38.3438V422.176H36.5156V428.079H35.3096V416.704H36.5156ZM48.3096 416.704V428.104H47.1035V416.704H48.3096ZM42.2285 417.555C43.917 417.555 45.1611 419.104 45.1611 421.541C45.1611 423.991 43.917 425.54 42.2285 425.54C40.5146 425.54 39.2832 423.991 39.2832 421.541C39.2832 419.104 40.5146 417.555 42.2285 417.555ZM42.2285 418.634C41.1748 418.634 40.4512 419.751 40.4512 421.541C40.4512 423.344 41.1748 424.461 42.2285 424.461C43.2695 424.461 43.9932 423.344 43.9932 421.541C43.9932 419.751 43.2695 418.634 42.2285 418.634ZM59.5449 416.704V423.128H58.3516V416.704H59.5449ZM52.0293 417.364V421.351C53.8638 421.338 55.4761 421.205 57.1836 420.843L57.3486 421.846C55.4697 422.227 53.7559 422.366 51.7627 422.366H50.8232V417.364H52.0293ZM59.5449 423.648V427.927H52.0928V423.648H59.5449ZM53.2734 424.601V426.962H58.3643V424.601H53.2734ZM63.4043 426.124L62.3887 429.628H61.3096L61.9824 426.124H63.4043ZM76.9502 417.174V417.999C76.9502 418.856 76.9502 419.884 76.6836 421.198H78.2705V422.163H73.6367V423.813C75.7568 423.934 77.0264 424.689 77.0264 425.921C77.0264 427.292 75.5156 428.066 73.04 428.054C70.5518 428.066 69.041 427.292 69.041 425.921C69.041 424.689 70.3105 423.934 72.4434 423.813V422.163H67.8604V421.198H75.4775C75.7441 419.922 75.7568 418.977 75.7568 418.139H69.168V417.174H76.9502ZM73.04 424.778C71.2754 424.778 70.2471 425.185 70.2598 425.921C70.2471 426.683 71.2754 427.089 73.04 427.089C74.7793 427.089 75.8076 426.683 75.8203 425.921C75.8076 425.185 74.7793 424.778 73.04 424.778ZM88.1855 417.275V418.139C88.1855 419.034 88.1855 420.049 87.8936 421.427H89.5059V422.417H79.0957V421.427H86.6748C86.9795 420.1 86.9922 419.129 86.9922 418.266H80.4033V417.275H88.1855ZM88.1982 423.864V427.939H80.3652V423.864H88.1982ZM81.5459 424.816V426.962H87.0049V424.816H81.5459ZM99.2686 416.717V420.373H100.919V421.376H99.2686V425.223H98.0625V416.717H99.2686ZM97.123 418.037V419.015H90.3438V418.037H93.1367V416.704H94.3428V418.037H97.123ZM93.7334 419.561C95.3711 419.561 96.4883 420.411 96.4883 421.706C96.4883 423.001 95.3711 423.839 93.7334 423.839C92.083 423.839 90.9658 423.001 90.9658 421.706C90.9658 420.411 92.083 419.561 93.7334 419.561ZM93.7334 420.487C92.7686 420.487 92.1211 420.957 92.1338 421.706C92.1211 422.442 92.7686 422.899 93.7334 422.899C94.6982 422.899 95.3457 422.442 95.3584 421.706C95.3457 420.957 94.6982 420.487 93.7334 420.487ZM99.751 426.86V427.838H92.0576V424.55H93.2637V426.86H99.751ZM114.224 416.704V423.331H113.018V420.475H110.885V419.472H113.018V416.704H114.224ZM114.224 423.864V427.939H106.721V423.864H114.224ZM107.914 424.816V426.962H113.043V424.816H107.914ZM108.815 418.646C108.815 420.068 109.844 421.478 111.558 422.074L110.936 423.026C109.66 422.576 108.714 421.662 108.219 420.538C107.724 421.789 106.727 422.792 105.375 423.268L104.753 422.315C106.505 421.719 107.584 420.208 107.584 418.646V418.38H105.121V417.39H111.253V418.38H108.815V418.646ZM125.396 416.704V428.104H124.189V416.704H125.396ZM119.314 417.555C121.003 417.555 122.247 419.104 122.247 421.541C122.247 423.991 121.003 425.54 119.314 425.54C117.601 425.54 116.369 423.991 116.369 421.541C116.369 419.104 117.601 417.555 119.314 417.555ZM119.314 418.634C118.261 418.634 117.537 419.751 117.537 421.541C117.537 423.344 118.261 424.461 119.314 424.461C120.355 424.461 121.079 423.344 121.079 421.541C121.079 419.751 120.355 418.634 119.314 418.634ZM136.009 418.583V419.561H130.359V418.583H132.594V417.034H133.787V418.583H136.009ZM133.19 420.246C134.638 420.246 135.653 421.325 135.666 422.861C135.653 424.41 134.638 425.502 133.19 425.502C131.769 425.502 130.715 424.41 130.728 422.861C130.715 421.325 131.769 420.246 133.19 420.246ZM133.19 421.249C132.365 421.249 131.794 421.922 131.794 422.861C131.794 423.826 132.365 424.474 133.19 424.474C134.003 424.474 134.6 423.826 134.6 422.861C134.6 421.922 134.003 421.249 133.19 421.249ZM140.122 416.704V428.079H138.979V422.43H137.672V427.546H136.529V416.958H137.672V421.439H138.979V416.704H140.122ZM151.104 416.704V422.493H149.897V421.401H147.016V420.462H149.897V419.23H147.155C146.451 420.995 144.737 422.157 142.217 422.747L141.798 421.757C144.527 421.154 146.006 419.891 146.203 418.215H142.395V417.225H147.523C147.523 417.593 147.492 417.942 147.435 418.278H149.897V416.704H151.104ZM151.104 422.976V425.857H144.883V427H151.446V427.965H143.689V424.943H149.897V423.928H143.664V422.976H151.104ZM159.635 421.516V422.506H157.235V424.613C158.289 424.562 159.349 424.493 160.346 424.385L160.435 425.273C157.934 425.654 155.229 425.68 153.071 425.692L152.919 424.689C153.877 424.689 154.938 424.683 156.029 424.651V422.506H153.744V417.758H159.584V418.735H154.938V421.516H159.635ZM162.263 416.704V428.104H161.057V416.704H162.263ZM168.128 424.207C168.128 425.191 168.61 426.226 169.651 426.86C170.692 426.175 171.188 425.07 171.188 424.207V423.598H172.368V424.207C172.368 425.388 173.143 426.543 174.653 427.025L174.031 427.927C172.914 427.527 172.152 426.765 171.759 425.819C171.403 426.746 170.718 427.59 169.664 428.028C168.585 427.616 167.899 426.81 167.544 425.87C167.131 426.771 166.382 427.527 165.31 427.927L164.726 427.025C166.173 426.518 166.96 425.312 166.973 424.207V423.598H168.128V424.207ZM167.239 417.326C168.706 417.326 169.88 418.196 170.146 419.484H172.368V416.704H173.574V423.153H172.368V420.475H170.159C169.924 421.801 168.737 422.696 167.239 422.696C165.525 422.696 164.269 421.592 164.269 420.018C164.269 418.443 165.525 417.326 167.239 417.326ZM167.239 418.342C166.186 418.342 165.411 419.015 165.424 420.018C165.411 420.995 166.186 421.693 167.239 421.693C168.268 421.693 169.042 420.995 169.042 420.018C169.042 419.015 168.268 418.342 167.239 418.342ZM185.952 421.173V422.163H184.188V428.066H182.981V416.704H184.188V421.173H185.952ZM176.951 417.809V424.207C178.538 424.207 180.195 424.074 182.004 423.699L182.144 424.715C180.201 425.108 178.398 425.21 176.697 425.21H175.758V417.809H176.951ZM196.972 425.654V426.657H186.562V425.654H189.05V422.684C188.117 422.169 187.552 421.351 187.552 420.335C187.552 418.545 189.304 417.364 191.741 417.364C194.191 417.364 195.943 418.545 195.943 420.335C195.943 421.338 195.397 422.144 194.483 422.658V425.654H196.972ZM191.741 418.329C189.951 418.329 188.72 419.104 188.72 420.335C188.72 421.554 189.951 422.354 191.741 422.354C193.519 422.354 194.775 421.554 194.775 420.335C194.775 419.104 193.519 418.329 191.741 418.329ZM190.243 425.654H193.265V423.115C192.801 423.236 192.287 423.293 191.741 423.293C191.208 423.293 190.7 423.236 190.243 423.128V425.654ZM199.663 424.271C199.676 422.607 200.171 422.1 201.009 421.579C201.542 421.249 201.948 420.792 201.948 420.119C201.948 419.319 201.339 418.824 200.577 418.824C199.892 418.824 199.231 419.243 199.168 420.183H197.797C197.848 418.57 199.066 417.682 200.577 417.682C202.228 417.682 203.332 418.672 203.332 420.119C203.332 421.135 202.85 421.82 202.037 422.315C201.275 422.772 200.983 423.242 200.958 424.271V424.347H199.663V424.271ZM200.361 427.089C199.866 427.089 199.447 426.683 199.46 426.188C199.447 425.692 199.866 425.286 200.361 425.286C200.844 425.286 201.263 425.692 201.263 426.188C201.263 426.683 200.844 427.089 200.361 427.089ZM217.068 421.858V422.823H212.955V417.732H216.954V418.71H214.161V421.858H217.068ZM217.868 425.68V426.657H207.458V425.68H212.028V423.369H213.209V425.68H217.868ZM212.244 417.745V418.723H209.527V421.833C210.473 421.82 211.362 421.744 212.346 421.528L212.447 422.531C211.229 422.798 210.2 422.823 208.994 422.823H208.321V417.745H212.244ZM224.952 417.555C226.495 417.555 227.625 418.862 227.809 420.97H230.157V416.704H231.351V428.104H230.157V421.947H227.821C227.688 424.163 226.533 425.54 224.952 425.54C223.251 425.54 222.058 423.991 222.07 421.541C222.058 419.104 223.251 417.555 224.952 417.555ZM224.952 418.634C223.924 418.634 223.213 419.751 223.213 421.541C223.213 423.344 223.924 424.461 224.952 424.461C225.98 424.461 226.691 423.344 226.691 421.541C226.691 419.751 225.98 418.634 224.952 418.634ZM26.3086 446.86V447.838H18.2852V444.271H19.4912V446.86H26.3086ZM26.0039 436.717V444.969H24.8232V440.779H22.8936V439.802H24.8232V436.717H26.0039ZM19.6055 437.618V438.596H17.8662V442.227C18.4375 442.208 19.0469 442.15 19.7197 441.998L19.8213 442.988C18.8184 443.204 18.0186 443.204 17.2061 443.204H16.6982V437.618H19.6055ZM23.3887 437.618V438.596H21.4082V442.227C22.335 442.22 23.0015 442.163 23.7568 441.985L23.8838 442.963C22.9062 443.179 22.1191 443.204 20.7988 443.204H20.2148V437.618H23.3887ZM40.0449 441.947V442.912H36.6045V445.692H41.2383V446.683H30.8281V445.692H35.4111V442.912H32.123V437.58H39.9434V438.558H33.3291V441.947H40.0449ZM47.2432 436.895C49.7441 436.895 51.3057 437.694 51.3057 439.065C51.3057 440.398 49.7441 441.198 47.2432 441.198C44.7549 441.198 43.1807 440.398 43.1807 439.065C43.1807 437.694 44.7549 436.895 47.2432 436.895ZM47.2432 437.834C45.4912 437.834 44.4121 438.278 44.4248 439.065C44.4121 439.827 45.4912 440.259 47.2432 440.259C48.9824 440.259 50.0615 439.827 50.0615 439.065C50.0615 438.278 48.9824 437.834 47.2432 437.834ZM51.166 444.144V447.939H43.3076V444.144H46.6465V442.95H42.0635V441.973H52.4355V442.95H47.8398V444.144H51.166ZM44.501 445.108V446.962H49.998V445.108H44.501ZM62.7188 436.704V448.104H61.5127V436.704H62.7188ZM56.6377 437.555C58.3262 437.555 59.5703 439.104 59.5703 441.541C59.5703 443.991 58.3262 445.54 56.6377 445.54C54.9238 445.54 53.6924 443.991 53.6924 441.541C53.6924 439.104 54.9238 437.555 56.6377 437.555ZM56.6377 438.634C55.584 438.634 54.8604 439.751 54.8604 441.541C54.8604 443.344 55.584 444.461 56.6377 444.461C57.6787 444.461 58.4023 443.344 58.4023 441.541C58.4023 439.751 57.6787 438.634 56.6377 438.634ZM77.166 436.704V442.582H75.9473V436.704H77.166ZM77.166 443.103V445.921H70.8311V447H77.5596V447.965H69.6504V445.045H75.9727V444.055H69.6123V443.103H77.166ZM74.3857 437.453V438.405H73.2939V441.097C73.8462 441.059 74.3921 441.008 74.9062 440.944L74.957 441.82C72.6846 442.163 70.0312 442.239 68.0381 442.239L67.8984 441.274L69.2822 441.262V438.405H68.2031V437.453H74.3857ZM70.4375 441.236C70.9961 441.217 71.5674 441.198 72.1387 441.16V438.405H70.4375V441.236ZM89.3535 445.654V446.657H78.9434V445.654H81.4316V442.684C80.4985 442.169 79.9336 441.351 79.9336 440.335C79.9336 438.545 81.6855 437.364 84.123 437.364C86.5732 437.364 88.3252 438.545 88.3252 440.335C88.3252 441.338 87.7793 442.144 86.8652 442.658V445.654H89.3535ZM84.123 438.329C82.333 438.329 81.1016 439.104 81.1016 440.335C81.1016 441.554 82.333 442.354 84.123 442.354C85.9004 442.354 87.1572 441.554 87.1572 440.335C87.1572 439.104 85.9004 438.329 84.123 438.329ZM82.625 445.654H85.6465V443.115C85.1831 443.236 84.6689 443.293 84.123 443.293C83.5898 443.293 83.082 443.236 82.625 443.128V445.654ZM99.04 436.704V441.312H100.868V442.315H99.04V448.079H97.8467V436.704H99.04ZM96.8564 438.481V439.472H90.1152V438.481H92.9209V436.856H94.127V438.481H96.8564ZM93.5303 440.31C95.1553 440.31 96.3486 441.401 96.3613 442.95C96.3486 444.512 95.1553 445.591 93.5303 445.604C91.8926 445.591 90.6992 444.512 90.6992 442.95C90.6992 441.401 91.8926 440.31 93.5303 440.31ZM93.5303 441.3C92.5654 441.3 91.8418 441.973 91.8545 442.95C91.8418 443.94 92.5654 444.601 93.5303 444.588C94.4951 444.601 95.2061 443.94 95.2061 442.95C95.2061 441.973 94.4951 441.3 93.5303 441.3ZM110.847 436.717V445.045H109.641V436.717H110.847ZM111.189 446.86V447.838H103.407V444.258H104.626V446.86H111.189ZM105.553 438.469C105.54 440.132 106.606 441.655 108.358 442.265L107.736 443.229C106.422 442.741 105.451 441.776 104.943 440.538C104.442 441.858 103.458 442.918 102.125 443.433L101.478 442.48C103.268 441.82 104.321 440.183 104.321 438.469V437.339H105.553V438.469ZM121.511 436.704V441.236H123.275V442.239H121.511V448.066H120.305V436.704H121.511ZM118.54 437.897C118.527 441.186 117.08 444.118 113.335 445.972L112.662 445.032C115.512 443.61 117.061 441.554 117.309 438.9H113.233V437.897H118.54ZM134.295 445.654V446.657H123.885V445.654H126.373V442.684C125.44 442.169 124.875 441.351 124.875 440.335C124.875 438.545 126.627 437.364 129.064 437.364C131.515 437.364 133.267 438.545 133.267 440.335C133.267 441.338 132.721 442.144 131.807 442.658V445.654H134.295ZM129.064 438.329C127.274 438.329 126.043 439.104 126.043 440.335C126.043 441.554 127.274 442.354 129.064 442.354C130.842 442.354 132.099 441.554 132.099 440.335C132.099 439.104 130.842 438.329 129.064 438.329ZM127.566 445.654H130.588V443.115C130.125 443.236 129.61 443.293 129.064 443.293C128.531 443.293 128.023 443.236 127.566 443.128V445.654ZM136.986 444.271C136.999 442.607 137.494 442.1 138.332 441.579C138.865 441.249 139.271 440.792 139.271 440.119C139.271 439.319 138.662 438.824 137.9 438.824C137.215 438.824 136.555 439.243 136.491 440.183H135.12C135.171 438.57 136.39 437.682 137.9 437.682C139.551 437.682 140.655 438.672 140.655 440.119C140.655 441.135 140.173 441.82 139.36 442.315C138.599 442.772 138.307 443.242 138.281 444.271V444.347H136.986V444.271ZM137.685 447.089C137.189 447.089 136.771 446.683 136.783 446.188C136.771 445.692 137.189 445.286 137.685 445.286C138.167 445.286 138.586 445.692 138.586 446.188C138.586 446.683 138.167 447.089 137.685 447.089Z" fill="#505050"/>
<path d="M0 183C0 169.193 11.1929 158 25 158H227C240.807 158 252 169.193 252 183V238C252 251.807 240.807 263 227 263H0V183Z" fill="#EEEEEE"/>
<path d="M25.8389 175.204V181.057H24.6455V175.204H25.8389ZM25.8516 181.603V184.446H19.5801V185.5H26.2324V186.465H18.4121V183.532H24.6582V182.555H18.374V181.603H25.8516ZM20.5576 176.385C20.5449 177.908 21.6494 179.292 23.3887 179.838L22.792 180.777C21.4653 180.346 20.4688 179.444 19.9609 178.289C19.4404 179.533 18.4248 180.523 17.0664 180.993L16.457 180.041C18.2344 179.444 19.3262 177.959 19.3262 176.385V175.509H20.5576V176.385ZM37.0742 175.204V186.604H35.8682V175.204H37.0742ZM29.4951 176.156V179.076H32.5547V176.156H33.748V183.875H28.2891V176.156H29.4951ZM29.4951 182.885H32.5547V180.028H29.4951V182.885ZM49.2998 184.167V185.17H38.8896V184.167H43.4727V181.831H40.083V175.979H41.2891V177.934H46.875V175.979H48.0684V181.831H44.666V184.167H49.2998ZM41.2891 180.854H46.875V178.911H41.2891V180.854ZM59.6084 175.204V182.098H58.4023V179.622H56.625V178.619H58.4023V175.204H59.6084ZM59.6084 182.656V186.439H52.1055V182.656H59.6084ZM53.2988 183.608V185.462H58.4277V183.608H53.2988ZM56.8027 176.334V177.299H50.1377V176.334H52.8799V175.103H54.0732V176.334H56.8027ZM53.4766 177.819C55.0381 177.819 56.1426 178.657 56.1426 179.851C56.1426 181.082 55.0381 181.882 53.4766 181.895C51.915 181.882 50.7979 181.082 50.7979 179.851C50.7979 178.657 51.915 177.819 53.4766 177.819ZM53.4766 178.746C52.5625 178.733 51.9531 179.178 51.9531 179.851C51.9531 180.549 52.5625 180.98 53.4766 180.98C54.3779 180.98 54.9873 180.549 54.9873 179.851C54.9873 179.178 54.3779 178.733 53.4766 178.746ZM71.7324 181.146V182.11H61.3604V181.146H71.7324ZM70.5645 185.36V186.338H62.668V183.037H63.8867V185.36H70.5645ZM66.54 175.585C69.0029 175.572 70.6025 176.436 70.6025 177.857C70.6025 179.292 69.0029 180.155 66.54 180.168C64.0645 180.155 62.4775 179.292 62.4775 177.857C62.4775 176.436 64.0645 175.572 66.54 175.585ZM66.54 176.55C64.8008 176.55 63.709 177.045 63.7217 177.857C63.709 178.695 64.8008 179.178 66.54 179.178C68.2793 179.178 69.3584 178.695 69.3584 177.857C69.3584 177.045 68.2793 176.55 66.54 176.55ZM85.1895 175.204V181.057H83.9961V175.204H85.1895ZM85.2021 181.603V184.446H78.9307V185.5H85.583V186.465H77.7627V183.532H84.0088V182.555H77.7246V181.603H85.2021ZM79.9082 176.385C79.8955 177.908 81 179.292 82.7393 179.838L82.1426 180.777C80.8159 180.346 79.8193 179.444 79.3115 178.289C78.791 179.533 77.7754 180.523 76.417 180.993L75.8076 180.041C77.585 179.444 78.6768 177.959 78.6768 176.385V175.509H79.9082V176.385ZM96.7676 175.204V186.579H95.6123V175.204H96.7676ZM94.457 175.445V186.008H93.3145V180.219H91.5498V179.229H93.3145V175.445H94.457ZM90.4326 178.378C90.4326 180.32 91.2197 182.263 92.8193 183.189L92.0957 184.078C91.0103 183.431 90.2612 182.282 89.874 180.904C89.4614 182.39 88.687 183.653 87.5762 184.345L86.8398 183.443C88.4521 182.466 89.2773 180.396 89.2773 178.378V177.464H87.1826V176.486H92.3877V177.464H90.4326V178.378ZM108.65 184.205V185.221H98.2402V184.205H102.823V182.212H99.5098V178.594H106.188V176.994H99.4844V176.004H107.381V179.559H100.703V181.222H107.647V182.212H104.017V184.205H108.65ZM121.854 185.36V186.338H113.957V183.062H115.176V185.36H121.854ZM123.047 181.234V182.225H112.649V181.234H117.232V179.419H118.426V181.234H123.047ZM118.438 175.966C118.438 177.515 120.178 178.873 122.361 179.19L121.892 180.13C120.095 179.812 118.534 178.892 117.829 177.578C117.112 178.892 115.557 179.825 113.767 180.13L113.284 179.19C115.455 178.848 117.207 177.489 117.22 175.966V175.509H118.438V175.966ZM129.509 177.083V178.061H123.859V177.083H126.094V175.534H127.287V177.083H129.509ZM126.69 178.746C128.138 178.746 129.153 179.825 129.166 181.361C129.153 182.91 128.138 184.002 126.69 184.002C125.269 184.002 124.215 182.91 124.228 181.361C124.215 179.825 125.269 178.746 126.69 178.746ZM126.69 179.749C125.865 179.749 125.294 180.422 125.294 181.361C125.294 182.326 125.865 182.974 126.69 182.974C127.503 182.974 128.1 182.326 128.1 181.361C128.1 180.422 127.503 179.749 126.69 179.749ZM133.622 175.204V186.579H132.479V180.93H131.172V186.046H130.029V175.458H131.172V179.939H132.479V175.204H133.622ZM145.518 180.422V181.349H135.107V180.422H145.518ZM144.235 182.148V184.649H137.558V185.589H144.591V186.439H136.352V183.85H143.042V183.012H136.339V182.148H144.235ZM144.21 175.496V177.959H137.634V178.822H144.4V179.673H136.44V177.159H143.004V176.347H136.415V175.496H144.21ZM152.081 175.636V176.981H157.35V175.636H158.556V180.231H155.306V181.349H159.901V182.339H149.529V181.349H154.112V180.231H150.888V175.636H152.081ZM152.081 179.254H157.35V177.921H152.081V179.254ZM158.733 185.36V186.338H150.837V183.151H152.056V185.36H158.733ZM167.646 176.017C169.448 176.004 170.73 177.121 170.743 178.721C170.73 180.32 169.448 181.438 167.646 181.438C165.855 181.438 164.535 180.32 164.548 178.721C164.535 177.121 165.855 176.004 167.646 176.017ZM167.646 177.058C166.541 177.058 165.729 177.718 165.741 178.721C165.729 179.724 166.541 180.384 167.646 180.384C168.75 180.384 169.562 179.724 169.562 178.721C169.562 177.718 168.75 177.058 167.646 177.058ZM173.346 175.204V186.604H172.14V175.204H173.346ZM164.002 183.151C166.071 183.151 168.94 183.126 171.429 182.771L171.518 183.646C168.94 184.142 166.186 184.154 164.154 184.154L164.002 183.151ZM185.584 184.205V185.221H175.174V184.205H178.018V182.199H176.443V178.581H183.121V176.994H176.418V176.004H184.314V179.559H177.637V181.209H184.581V182.199H182.854V184.205H185.584ZM179.186 184.205H181.674V182.199H179.186V184.205ZM195.829 175.204V186.604H194.623V175.204H195.829ZM188.25 176.156V179.076H191.31V176.156H192.503V183.875H187.044V176.156H188.25ZM188.25 182.885H191.31V180.028H188.25V182.885ZM208.042 180.422V181.349H197.632V180.422H208.042ZM206.76 182.148V184.649H200.082V185.589H207.115V186.439H198.876V183.85H205.566V183.012H198.863V182.148H206.76ZM206.734 175.496V177.959H200.158V178.822H206.925V179.673H198.965V177.159H205.528V176.347H198.939V175.496H206.734ZM222.464 184.167V185.17H212.054V184.167H216.637V181.831H213.247V175.979H214.453V177.934H220.039V175.979H221.232V181.831H217.83V184.167H222.464ZM214.453 180.854H220.039V178.911H214.453V180.854ZM227.263 177.299C227.263 178.746 228.266 180.066 229.992 180.612L229.421 181.552C228.126 181.139 227.18 180.282 226.679 179.203C226.184 180.447 225.187 181.431 223.822 181.907L223.2 180.942C224.978 180.358 226.044 178.886 226.057 177.312V176.994H223.556V176.017H229.713V176.994H227.263V177.299ZM232.227 175.204V178.022H233.877V179.013H232.227V182.034H231.021V175.204H232.227ZM228.558 182.313C230.906 182.313 232.328 183.088 232.328 184.421C232.328 185.767 230.906 186.566 228.558 186.554C226.184 186.566 224.736 185.767 224.736 184.421C224.736 183.088 226.184 182.313 228.558 182.313ZM228.558 183.266C226.907 183.266 225.93 183.685 225.942 184.421C225.93 185.183 226.907 185.602 228.558 185.602C230.195 185.602 231.147 185.183 231.147 184.421C231.147 183.685 230.195 183.266 228.558 183.266ZM22.043 197.083V198.061H16.3936V197.083H18.6279V195.534H19.8213V197.083H22.043ZM19.2246 198.746C20.6719 198.746 21.6875 199.825 21.7002 201.361C21.6875 202.91 20.6719 204.002 19.2246 204.002C17.8027 204.002 16.749 202.91 16.7617 201.361C16.749 199.825 17.8027 198.746 19.2246 198.746ZM19.2246 199.749C18.3994 199.749 17.8281 200.422 17.8281 201.361C17.8281 202.326 18.3994 202.974 19.2246 202.974C20.0371 202.974 20.6338 202.326 20.6338 201.361C20.6338 200.422 20.0371 199.749 19.2246 199.749ZM26.1562 195.204V206.579H25.0137V200.93H23.7061V206.046H22.5635V195.458H23.7061V199.939H25.0137V195.204H26.1562ZM38.0264 201.615V202.593H33.4053V206.566H32.2246V202.593H27.6543V201.615H38.0264ZM37.0488 195.877V196.842H33.5322C33.5513 198.251 35.3032 199.508 37.4551 199.8L37.0107 200.752C35.1445 200.46 33.5322 199.54 32.8467 198.238C32.1421 199.54 30.5361 200.46 28.6953 200.752L28.2383 199.8C30.3647 199.508 32.1167 198.251 32.1611 196.842H28.6191V195.877H37.0488ZM48.0938 198.53V199.495H40.2607V195.61H41.4541V198.53H48.0938ZM49.2871 200.93V201.895H38.877V200.93H49.2871ZM48.1699 205.322V206.312H40.1719V202.974H41.3779V205.322H48.1699ZM63.709 204.167V205.17H53.2988V204.167H57.8818V201.831H54.4922V195.979H55.6982V197.934H61.2842V195.979H62.4775V201.831H59.0752V204.167H63.709ZM55.6982 200.854H61.2842V198.911H55.6982V200.854ZM74.0176 195.204V202.098H72.8115V199.622H71.0342V198.619H72.8115V195.204H74.0176ZM74.0176 202.656V206.439H66.5146V202.656H74.0176ZM67.708 203.608V205.462H72.8369V203.608H67.708ZM71.2119 196.334V197.299H64.5469V196.334H67.2891V195.103H68.4824V196.334H71.2119ZM67.8857 197.819C69.4473 197.819 70.5518 198.657 70.5518 199.851C70.5518 201.082 69.4473 201.882 67.8857 201.895C66.3242 201.882 65.207 201.082 65.207 199.851C65.207 198.657 66.3242 197.819 67.8857 197.819ZM67.8857 198.746C66.9717 198.733 66.3623 199.178 66.3623 199.851C66.3623 200.549 66.9717 200.98 67.8857 200.98C68.7871 200.98 69.3965 200.549 69.3965 199.851C69.3965 199.178 68.7871 198.733 67.8857 198.746ZM82.8662 197.02C82.8662 198.518 83.9072 199.901 85.6084 200.46L84.9609 201.412C83.7168 200.974 82.7837 200.085 82.2949 198.962C81.7935 200.238 80.8286 201.234 79.502 201.729L78.8545 200.765C80.6318 200.13 81.6602 198.619 81.6729 196.918V195.801H82.8662V197.02ZM87.8809 195.204V198.061H89.5312V199.076H87.8809V202.072H86.6748V195.204H87.8809ZM84.2119 202.339C86.5479 202.339 87.9824 203.113 87.9824 204.446C87.9824 205.792 86.5479 206.566 84.2119 206.554C81.8506 206.566 80.3906 205.792 80.3906 204.446C80.3906 203.113 81.8506 202.339 84.2119 202.339ZM84.2119 203.291C82.5615 203.291 81.584 203.723 81.5967 204.446C81.584 205.195 82.5615 205.602 84.2119 205.614C85.8496 205.602 86.8018 205.195 86.8018 204.446C86.8018 203.723 85.8496 203.291 84.2119 203.291ZM100.551 200.65V201.615H95.9551V202.834H99.2812V206.439H91.4229V202.834H94.7617V201.615H90.1787V200.65H100.551ZM99.5732 195.56V196.537H97.9229V198.708H99.5225V199.686H91.1816V198.708H92.7939V196.537H91.1309V195.56H99.5732ZM92.6162 203.786V205.462H98.1133V203.786H92.6162ZM93.9873 198.708H96.7168V196.537H93.9873V198.708ZM110.834 195.204V206.604H109.628V195.204H110.834ZM104.753 196.055C106.441 196.055 107.686 197.604 107.686 200.041C107.686 202.491 106.441 204.04 104.753 204.04C103.039 204.04 101.808 202.491 101.808 200.041C101.808 197.604 103.039 196.055 104.753 196.055ZM104.753 197.134C103.699 197.134 102.976 198.251 102.976 200.041C102.976 201.844 103.699 202.961 104.753 202.961C105.794 202.961 106.518 201.844 106.518 200.041C106.518 198.251 105.794 197.134 104.753 197.134ZM122.438 195.204V206.579H121.282V195.204H122.438ZM120.127 195.42V206.021H118.972V200.536H117.689C117.588 202.758 116.636 204.142 115.227 204.129C113.741 204.142 112.776 202.58 112.776 200.117C112.776 197.654 113.741 196.105 115.227 196.118C116.61 196.105 117.55 197.419 117.689 199.559H118.972V195.42H120.127ZM115.227 197.248C114.401 197.248 113.894 198.302 113.894 200.117C113.894 201.933 114.401 202.986 115.227 202.986C116.064 202.986 116.585 201.933 116.585 200.117C116.585 198.302 116.064 197.248 115.227 197.248ZM134.295 204.154V205.157H123.885V204.154H126.373V201.184C125.44 200.669 124.875 199.851 124.875 198.835C124.875 197.045 126.627 195.864 129.064 195.864C131.515 195.864 133.267 197.045 133.267 198.835C133.267 199.838 132.721 200.644 131.807 201.158V204.154H134.295ZM129.064 196.829C127.274 196.829 126.043 197.604 126.043 198.835C126.043 200.054 127.274 200.854 129.064 200.854C130.842 200.854 132.099 200.054 132.099 198.835C132.099 197.604 130.842 196.829 129.064 196.829ZM127.566 204.154H130.588V201.615C130.125 201.736 129.61 201.793 129.064 201.793C128.531 201.793 128.023 201.736 127.566 201.628V204.154ZM136.415 205.589C135.92 205.589 135.501 205.183 135.514 204.688C135.501 204.192 135.92 203.786 136.415 203.786C136.897 203.786 137.316 204.192 137.316 204.688C137.316 205.183 136.897 205.589 136.415 205.589ZM144.794 195.585C146.508 195.598 147.765 196.651 147.777 198.137C147.765 199.635 146.508 200.676 144.794 200.676C143.067 200.676 141.798 199.635 141.798 198.137C141.798 196.651 143.067 195.598 144.794 195.585ZM144.794 196.601C143.74 196.588 142.966 197.21 142.979 198.137C142.966 199.076 143.74 199.698 144.794 199.698C145.835 199.698 146.609 199.076 146.609 198.137C146.609 197.21 145.835 196.588 144.794 196.601ZM151.002 195.204V200.993H149.796V195.204H151.002ZM151.002 201.514V204.383H144.73V205.475H151.383V206.439H143.562V203.481H149.809V202.479H143.524V201.514H151.002ZM161.742 195.217V198.568H163.393V199.584H161.742V203.57H160.536V195.217H161.742ZM162.225 205.36V206.338H154.531V202.745H155.737V205.36H162.225ZM154.43 196.029V197.845H157.413V196.029H158.606V201.691H153.249V196.029H154.43ZM154.43 200.727H157.413V198.797H154.43V200.727ZM168.115 197.223C168.115 198.657 169.144 200.066 170.857 200.65L170.235 201.59C168.959 201.146 168.014 200.238 167.519 199.114C167.023 200.365 166.027 201.368 164.675 201.844L164.053 200.892C165.805 200.295 166.884 198.771 166.884 197.235V196.918H164.421V195.94H170.553V196.918H168.115V197.223ZM173.523 202.58V206.579H172.317V203.558H165.817V202.58H173.523ZM173.523 195.204V202.009H172.317V199.089H170.21V198.099H172.317V195.204H173.523ZM184.708 195.217V203.481H183.502V195.217H184.708ZM185.051 205.36V206.338H177.269V202.644H178.487V205.36H185.051ZM178.538 195.979C180.252 195.979 181.56 197.146 181.56 198.797C181.56 200.473 180.252 201.628 178.538 201.628C176.824 201.628 175.504 200.473 175.504 198.797C175.504 197.146 176.824 195.979 178.538 195.979ZM178.538 197.032C177.472 197.032 176.685 197.756 176.685 198.797C176.685 199.863 177.472 200.574 178.538 200.574C179.579 200.574 180.379 199.863 180.379 198.797C180.379 197.756 179.579 197.032 178.538 197.032ZM200.095 204.167V205.17H189.685V204.167H194.268V201.831H190.878V195.979H192.084V197.934H197.67V195.979H198.863V201.831H195.461V204.167H200.095ZM192.084 200.854H197.67V198.911H192.084V200.854ZM210.403 195.204V202.098H209.197V199.622H207.42V198.619H209.197V195.204H210.403ZM210.403 202.656V206.439H202.9V202.656H210.403ZM204.094 203.608V205.462H209.223V203.608H204.094ZM207.598 196.334V197.299H200.933V196.334H203.675V195.103H204.868V196.334H207.598ZM204.271 197.819C205.833 197.819 206.938 198.657 206.938 199.851C206.938 201.082 205.833 201.882 204.271 201.895C202.71 201.882 201.593 201.082 201.593 199.851C201.593 198.657 202.71 197.819 204.271 197.819ZM204.271 198.746C203.357 198.733 202.748 199.178 202.748 199.851C202.748 200.549 203.357 200.98 204.271 200.98C205.173 200.98 205.782 200.549 205.782 199.851C205.782 199.178 205.173 198.733 204.271 198.746ZM218.49 196.423V197.121C218.49 198.073 218.49 199.546 218.16 201.577L216.967 201.488C217.252 199.667 217.284 198.353 217.297 197.4H212.676V196.423H218.49ZM215.57 199.673V203.075C216.783 203.037 218.014 202.955 219.15 202.809L219.214 203.71C216.84 204.091 214.199 204.142 212.181 204.129L212.041 203.151C212.752 203.145 213.545 203.139 214.377 203.113V199.673H215.57ZM221.017 195.204V199.901H222.756V200.93H221.017V206.579H219.798V195.204H221.017ZM232.595 198.53V199.495H224.762V195.61H225.955V198.53H232.595ZM233.788 200.93V201.895H223.378V200.93H233.788ZM232.671 205.322V206.312H224.673V202.974H225.879V205.322H232.671ZM21.9795 215.839V216.804H18.0947V219.571C20.2402 219.578 21.5352 219.482 23.0078 219.19L23.1475 220.143C21.5732 220.485 20.1895 220.536 17.8027 220.536H16.9014V215.839H21.9795ZM25.3564 215.204V217.527H27.0068V218.518H25.3564V220.917H24.1504V215.204H25.3564ZM25.3564 221.45V224.357H19.2119V225.462H25.75V226.439H18.0312V223.431H24.1631V222.415H18.0059V221.45H25.3564ZM37.0996 215.204V226.604H35.8936V215.204H37.0996ZM33.6211 216.232V220.384H29.5332V222.872C31.374 222.866 32.9863 222.783 34.8906 222.466L35.0049 223.456C32.9863 223.799 31.2725 223.875 29.2666 223.875H28.3018V219.419H32.3896V217.21H28.2891V216.232H33.6211ZM51.4834 215.204V221.057H50.29V215.204H51.4834ZM51.4961 221.603V224.446H45.2246V225.5H51.877V226.465H44.0566V223.532H50.3027V222.555H44.0186V221.603H51.4961ZM46.2021 216.385C46.1895 217.908 47.2939 219.292 49.0332 219.838L48.4365 220.777C47.1099 220.346 46.1133 219.444 45.6055 218.289C45.085 219.533 44.0693 220.523 42.7109 220.993L42.1016 220.041C43.8789 219.444 44.9707 217.959 44.9707 216.385V215.509H46.2021V216.385ZM63.0615 215.204V226.579H61.9062V215.204H63.0615ZM60.751 215.445V226.008H59.6084V220.219H57.8438V219.229H59.6084V215.445H60.751ZM56.7266 218.378C56.7266 220.32 57.5137 222.263 59.1133 223.189L58.3896 224.078C57.3042 223.431 56.5552 222.282 56.168 220.904C55.7554 222.39 54.981 223.653 53.8701 224.345L53.1338 223.443C54.7461 222.466 55.5713 220.396 55.5713 218.378V217.464H53.4766V216.486H58.6816V217.464H56.7266V218.378ZM71.6562 218.099C71.6436 220.117 72.8115 222.174 74.5127 222.999L73.7637 223.964C72.5259 223.323 71.5674 222.047 71.0723 220.523C70.5581 222.148 69.5615 223.507 68.2666 224.18L67.5176 223.202C69.2695 222.364 70.4502 220.181 70.4502 218.099V216.156H71.6562V218.099ZM76.5693 215.204V219.736H78.3975V220.765H76.5693V226.579H75.3633V215.204H76.5693ZM89.3154 220.752V221.729H78.9434V220.752H81.4316V219.216C80.5557 218.86 80.0605 218.289 80.0605 217.54C80.0605 216.194 81.6221 215.407 84.123 215.407C86.6113 215.407 88.1855 216.194 88.1855 217.54C88.1855 218.289 87.6841 218.867 86.8018 219.216V220.752H89.3154ZM84.123 222.504C86.5732 222.504 88.0459 223.228 88.0459 224.522C88.0459 225.843 86.5732 226.554 84.123 226.554C81.6475 226.554 80.1748 225.843 80.1748 224.522C80.1748 223.228 81.6475 222.504 84.123 222.504ZM84.123 223.431C82.3838 223.431 81.3936 223.824 81.3936 224.522C81.3936 225.233 82.3838 225.64 84.123 225.627C85.8369 225.64 86.8398 225.233 86.8398 224.522C86.8398 223.824 85.8369 223.431 84.123 223.431ZM84.123 216.334C82.3584 216.334 81.292 216.778 81.3047 217.54C81.292 218.302 82.3584 218.733 84.123 218.733C85.8877 218.733 86.9414 218.302 86.9414 217.54C86.9414 216.778 85.8877 216.334 84.123 216.334ZM82.6504 220.752H85.6084V219.533C85.1641 219.609 84.6626 219.647 84.123 219.647C83.5898 219.647 83.0947 219.609 82.6504 219.546V220.752ZM99.1162 215.217V218.873H100.767V219.876H99.1162V223.723H97.9102V215.217H99.1162ZM96.9707 216.537V217.515H90.1914V216.537H92.9844V215.204H94.1904V216.537H96.9707ZM93.5811 218.061C95.2188 218.061 96.3359 218.911 96.3359 220.206C96.3359 221.501 95.2188 222.339 93.5811 222.339C91.9307 222.339 90.8135 221.501 90.8135 220.206C90.8135 218.911 91.9307 218.061 93.5811 218.061ZM93.5811 218.987C92.6162 218.987 91.9688 219.457 91.9814 220.206C91.9688 220.942 92.6162 221.399 93.5811 221.399C94.5459 221.399 95.1934 220.942 95.2061 220.206C95.1934 219.457 94.5459 218.987 93.5811 218.987ZM99.5986 225.36V226.338H91.9053V223.05H93.1113V225.36H99.5986ZM108.295 216.017C110.098 216.004 111.38 217.121 111.393 218.721C111.38 220.32 110.098 221.438 108.295 221.438C106.505 221.438 105.185 220.32 105.197 218.721C105.185 217.121 106.505 216.004 108.295 216.017ZM108.295 217.058C107.19 217.058 106.378 217.718 106.391 218.721C106.378 219.724 107.19 220.384 108.295 220.384C109.399 220.384 110.212 219.724 110.212 218.721C110.212 217.718 109.399 217.058 108.295 217.058ZM113.995 215.204V226.604H112.789V215.204H113.995ZM104.651 223.151C106.721 223.151 109.59 223.126 112.078 222.771L112.167 223.646C109.59 224.142 106.835 224.154 104.804 224.154L104.651 223.151ZM126.233 224.205V225.221H115.823V224.205H118.667V222.199H117.093V218.581H123.771V216.994H117.067V216.004H124.964V219.559H118.286V221.209H125.23V222.199H123.504V224.205H126.233ZM119.835 224.205H122.323V222.199H119.835V224.205ZM136.479 215.204V226.604H135.272V215.204H136.479ZM128.899 216.156V219.076H131.959V216.156H133.152V223.875H127.693V216.156H128.899ZM128.899 222.885H131.959V220.028H128.899V222.885ZM142.001 216.017C143.804 216.004 145.086 217.121 145.099 218.721C145.086 220.32 143.804 221.438 142.001 221.438C140.211 221.438 138.891 220.32 138.903 218.721C138.891 217.121 140.211 216.004 142.001 216.017ZM142.001 217.058C140.896 217.058 140.084 217.718 140.097 218.721C140.084 219.724 140.896 220.384 142.001 220.384C143.105 220.384 143.918 219.724 143.918 218.721C143.918 217.718 143.105 217.058 142.001 217.058ZM147.701 215.204V226.604H146.495V215.204H147.701ZM138.357 223.151C140.427 223.151 143.296 223.126 145.784 222.771L145.873 223.646C143.296 224.142 140.541 224.154 138.51 224.154L138.357 223.151ZM155.928 215.585C157.642 215.598 158.898 216.651 158.911 218.137C158.898 219.635 157.642 220.676 155.928 220.676C154.201 220.676 152.932 219.635 152.932 218.137C152.932 216.651 154.201 215.598 155.928 215.585ZM155.928 216.601C154.874 216.588 154.1 217.21 154.112 218.137C154.1 219.076 154.874 219.698 155.928 219.698C156.969 219.698 157.743 219.076 157.743 218.137C157.743 217.21 156.969 216.588 155.928 216.601ZM162.136 215.204V220.993H160.93V215.204H162.136ZM162.136 221.514V224.383H155.864V225.475H162.517V226.439H154.696V223.481H160.942V222.479H154.658V221.514H162.136ZM174.336 221.895V222.847H169.689V226.579H168.509V222.847H163.926V221.895H174.336ZM166.414 215.661V217.146H171.822V215.661H173.028V220.6H165.221V215.661H166.414ZM166.414 219.635H171.822V218.111H166.414V219.635ZM185.571 221.158V222.123H181.052V224.218H179.858V222.123H175.161V221.158H185.571ZM184.416 225.36V226.338H176.456V223.228H177.649V225.36H184.416ZM177.726 215.56V216.943H182.994V215.56H184.2V220.155H176.532V215.56H177.726ZM177.726 219.19H182.994V217.845H177.726V219.19ZM191.589 215.395C194.153 215.395 195.651 216.08 195.651 217.35C195.651 218.619 194.153 219.317 191.589 219.317C189.024 219.317 187.526 218.619 187.526 217.35C187.526 216.08 189.024 215.395 191.589 215.395ZM191.589 216.283C189.773 216.283 188.771 216.677 188.783 217.35C188.771 218.048 189.773 218.416 191.589 218.416C193.404 218.416 194.407 218.048 194.407 217.35C194.407 216.677 193.404 216.283 191.589 216.283ZM196.781 220.016V220.98H186.409V220.016H196.781ZM195.474 221.856V224.522H188.847V225.538H195.791V226.465H187.666V223.646H194.28V222.758H187.653V221.856H195.474ZM211.229 224.167V225.17H200.818V224.167H205.401V221.831H202.012V215.979H203.218V217.934H208.804V215.979H209.997V221.831H206.595V224.167H211.229ZM203.218 220.854H208.804V218.911H203.218V220.854ZM215.977 217.02C215.977 218.518 217.018 219.901 218.719 220.46L218.071 221.412C216.827 220.974 215.894 220.085 215.405 218.962C214.904 220.238 213.939 221.234 212.612 221.729L211.965 220.765C213.742 220.13 214.771 218.619 214.783 216.918V215.801H215.977V217.02ZM220.991 215.204V218.061H222.642V219.076H220.991V222.072H219.785V215.204H220.991ZM217.322 222.339C219.658 222.339 221.093 223.113 221.093 224.446C221.093 225.792 219.658 226.566 217.322 226.554C214.961 226.566 213.501 225.792 213.501 224.446C213.501 223.113 214.961 222.339 217.322 222.339ZM217.322 223.291C215.672 223.291 214.694 223.723 214.707 224.446C214.694 225.195 215.672 225.602 217.322 225.614C218.96 225.602 219.912 225.195 219.912 224.446C219.912 223.723 218.96 223.291 217.322 223.291ZM228.913 217.083V218.061H223.264V217.083H225.498V215.534H226.691V217.083H228.913ZM226.095 218.746C227.542 218.746 228.558 219.825 228.57 221.361C228.558 222.91 227.542 224.002 226.095 224.002C224.673 224.002 223.619 222.91 223.632 221.361C223.619 219.825 224.673 218.746 226.095 218.746ZM226.095 219.749C225.27 219.749 224.698 220.422 224.698 221.361C224.698 222.326 225.27 222.974 226.095 222.974C226.907 222.974 227.504 222.326 227.504 221.361C227.504 220.422 226.907 219.749 226.095 219.749ZM233.026 215.204V226.579H231.884V220.93H230.576V226.046H229.434V215.458H230.576V219.939H231.884V215.204H233.026ZM25.6357 240.6V241.59H17.7139V236.22H25.5342V237.21H18.9072V240.6H25.6357ZM26.8291 244.078V245.081H16.4189V244.078H26.8291ZM37.125 235.204V246.604H35.9316V241.844H33.71V240.841H35.9316V238.733H33.7734V237.743H35.9316V235.204H37.125ZM33.0879 236.207V240.358H29.2793V242.974C30.8916 242.967 32.2373 242.891 33.8623 242.656L33.9639 243.646C32.1865 243.926 30.7393 243.977 28.9365 243.977H28.0732V239.406H31.9072V237.185H28.0479V236.207H33.0879ZM49.2998 244.154V245.157H38.8896V244.154H41.3779V241.184C40.4448 240.669 39.8799 239.851 39.8799 238.835C39.8799 237.045 41.6318 235.864 44.0693 235.864C46.5195 235.864 48.2715 237.045 48.2715 238.835C48.2715 239.838 47.7256 240.644 46.8115 241.158V244.154H49.2998ZM44.0693 236.829C42.2793 236.829 41.0479 237.604 41.0479 238.835C41.0479 240.054 42.2793 240.854 44.0693 240.854C45.8467 240.854 47.1035 240.054 47.1035 238.835C47.1035 237.604 45.8467 236.829 44.0693 236.829ZM42.5713 244.154H45.5928V241.615C45.1294 241.736 44.6152 241.793 44.0693 241.793C43.5361 241.793 43.0283 241.736 42.5713 241.628V244.154ZM51.4199 245.589C50.9248 245.589 50.5059 245.183 50.5186 244.688C50.5059 244.192 50.9248 243.786 51.4199 243.786C51.9023 243.786 52.3213 244.192 52.3213 244.688C52.3213 245.183 51.9023 245.589 51.4199 245.589Z" fill="#505050"/>
<path d="M0 300C0 286.193 11.1929 275 25 275H227C240.807 275 252 286.193 252 300V355C252 368.807 240.807 380 227 380H0V300Z" fill="#EEEEEE"/>
<path d="M22.1953 296.254V297.79H26.791V298.78H16.4189V297.79H21.002V296.254H22.1953ZM21.5986 299.605C24.0615 299.605 25.5215 300.304 25.5215 301.586C25.5215 302.855 24.0615 303.566 21.5986 303.554C19.123 303.566 17.6504 302.855 17.6504 301.586C17.6504 300.304 19.123 299.605 21.5986 299.605ZM21.5986 300.532C19.8467 300.532 18.8691 300.9 18.8691 301.586C18.8691 302.271 19.8467 302.64 21.5986 302.64C23.3252 302.64 24.3154 302.271 24.3154 301.586C24.3154 300.9 23.3252 300.532 21.5986 300.532ZM25.8643 292.725V293.689H22.4111C22.5825 294.775 24.1948 295.695 26.2578 295.898L25.8262 296.851C23.8457 296.622 22.2207 295.81 21.5986 294.604C20.9766 295.81 19.3516 296.622 17.3838 296.851L16.9521 295.898C19.0024 295.695 20.6147 294.788 20.7861 293.689H17.3711V292.725H25.8643ZM36.5918 292.204V295.061H38.2422V296.076H36.5918V298.831H35.3857V292.204H36.5918ZM30.5107 299.301V300.405H35.3857V299.301H36.5918V303.439H29.3174V299.301H30.5107ZM30.5107 302.475H35.3857V301.345H30.5107V302.475ZM34.4463 293.321V294.286H27.667V293.321H30.46V292.103H31.666V293.321H34.4463ZM31.0566 294.756C32.6943 294.756 33.8115 295.53 33.8115 296.749C33.8115 297.955 32.6943 298.755 31.0566 298.742C29.3936 298.755 28.2891 297.955 28.2891 296.749C28.2891 295.53 29.3936 294.756 31.0566 294.756ZM31.0566 295.657C30.0918 295.645 29.4443 296.089 29.457 296.749C29.4443 297.422 30.0918 297.854 31.0566 297.854C32.0215 297.854 32.6689 297.422 32.6816 296.749C32.6689 296.089 32.0215 295.645 31.0566 295.657ZM49.2998 301.167V302.17H38.8896V301.167H43.4727V298.831H40.083V292.979H41.2891V294.934H46.875V292.979H48.0684V298.831H44.666V301.167H49.2998ZM41.2891 297.854H46.875V295.911H41.2891V297.854ZM59.6084 292.204V299.098H58.4023V296.622H56.625V295.619H58.4023V292.204H59.6084ZM59.6084 299.656V303.439H52.1055V299.656H59.6084ZM53.2988 300.608V302.462H58.4277V300.608H53.2988ZM56.8027 293.334V294.299H50.1377V293.334H52.8799V292.103H54.0732V293.334H56.8027ZM53.4766 294.819C55.0381 294.819 56.1426 295.657 56.1426 296.851C56.1426 298.082 55.0381 298.882 53.4766 298.895C51.915 298.882 50.7979 298.082 50.7979 296.851C50.7979 295.657 51.915 294.819 53.4766 294.819ZM53.4766 295.746C52.5625 295.733 51.9531 296.178 51.9531 296.851C51.9531 297.549 52.5625 297.98 53.4766 297.98C54.3779 297.98 54.9873 297.549 54.9873 296.851C54.9873 296.178 54.3779 295.733 53.4766 295.746ZM71.7324 298.146V299.11H61.3604V298.146H71.7324ZM70.5645 302.36V303.338H62.668V300.037H63.8867V302.36H70.5645ZM66.54 292.585C69.0029 292.572 70.6025 293.436 70.6025 294.857C70.6025 296.292 69.0029 297.155 66.54 297.168C64.0645 297.155 62.4775 296.292 62.4775 294.857C62.4775 293.436 64.0645 292.572 66.54 292.585ZM66.54 293.55C64.8008 293.55 63.709 294.045 63.7217 294.857C63.709 295.695 64.8008 296.178 66.54 296.178C68.2793 296.178 69.3584 295.695 69.3584 294.857C69.3584 294.045 68.2793 293.55 66.54 293.55ZM84.6309 292.204V296.609H86.459V297.6H84.6309V303.604H83.4248V292.204H84.6309ZM81.5713 293.296V294.273H77.458V299.771C79.3687 299.764 80.8032 299.682 82.4219 299.39L82.5742 300.405C80.7969 300.723 79.2861 300.786 77.166 300.773H76.252V293.296H81.5713ZM97.5547 293.816V294.807H95.9424V296.254H97.5547V297.257H95.9424V298.92H94.7363V292.204H95.9424V293.816H97.5547ZM90.2041 292.864C91.9434 292.864 93.2256 293.969 93.2383 295.568C93.2256 297.155 91.9434 298.26 90.2041 298.272C88.4648 298.26 87.1699 297.155 87.1826 295.568C87.1699 293.969 88.4648 292.864 90.2041 292.864ZM90.2041 293.88C89.1377 293.88 88.3506 294.565 88.3633 295.568C88.3506 296.584 89.1377 297.244 90.2041 297.257C91.2705 297.244 92.0576 296.584 92.0576 295.568C92.0576 294.565 91.2705 293.88 90.2041 293.88ZM92.2734 299.225C94.5967 299.225 96.0439 300.024 96.0439 301.396C96.0439 302.754 94.5967 303.566 92.2734 303.554C89.9248 303.566 88.4521 302.754 88.4521 301.396C88.4521 300.024 89.9248 299.225 92.2734 299.225ZM92.2734 300.202C90.623 300.202 89.6455 300.634 89.6582 301.396C89.6455 302.17 90.623 302.589 92.2734 302.589C93.9111 302.589 94.8633 302.17 94.8633 301.396C94.8633 300.634 93.9111 300.202 92.2734 300.202ZM107.178 292.217V295.873H108.828V296.876H107.178V300.723H105.972V292.217H107.178ZM105.032 293.537V294.515H98.2529V293.537H101.046V292.204H102.252V293.537H105.032ZM101.643 295.061C103.28 295.061 104.397 295.911 104.397 297.206C104.397 298.501 103.28 299.339 101.643 299.339C99.9922 299.339 98.875 298.501 98.875 297.206C98.875 295.911 99.9922 295.061 101.643 295.061ZM101.643 295.987C100.678 295.987 100.03 296.457 100.043 297.206C100.03 297.942 100.678 298.399 101.643 298.399C102.607 298.399 103.255 297.942 103.268 297.206C103.255 296.457 102.607 295.987 101.643 295.987ZM107.66 302.36V303.338H99.9668V300.05H101.173V302.36H107.66ZM123.06 301.167V302.17H112.649V301.167H117.232V298.831H113.843V292.979H115.049V294.934H120.635V292.979H121.828V298.831H118.426V301.167H123.06ZM115.049 297.854H120.635V295.911H115.049V297.854ZM127.858 294.299C127.858 295.746 128.861 297.066 130.588 297.612L130.017 298.552C128.722 298.139 127.776 297.282 127.274 296.203C126.779 297.447 125.783 298.431 124.418 298.907L123.796 297.942C125.573 297.358 126.64 295.886 126.652 294.312V293.994H124.151V293.017H130.309V293.994H127.858V294.299ZM132.822 292.204V295.022H134.473V296.013H132.822V299.034H131.616V292.204H132.822ZM129.153 299.313C131.502 299.313 132.924 300.088 132.924 301.421C132.924 302.767 131.502 303.566 129.153 303.554C126.779 303.566 125.332 302.767 125.332 301.421C125.332 300.088 126.779 299.313 129.153 299.313ZM129.153 300.266C127.503 300.266 126.525 300.685 126.538 301.421C126.525 302.183 127.503 302.602 129.153 302.602C130.791 302.602 131.743 302.183 131.743 301.421C131.743 300.685 130.791 300.266 129.153 300.266ZM148.031 292.204V303.579H146.876V297.752H145.416V302.995H144.286V292.433H145.416V296.762H146.876V292.204H148.031ZM140.033 293.55V299.618C141.087 299.612 142.236 299.529 143.524 299.275L143.651 300.329C142.09 300.608 140.782 300.685 139.563 300.685H138.827V293.55H140.033ZM159.901 297.752V298.729H149.529V297.752H152.018V296.216C151.142 295.86 150.646 295.289 150.646 294.54C150.646 293.194 152.208 292.407 154.709 292.407C157.197 292.407 158.771 293.194 158.771 294.54C158.771 295.289 158.27 295.867 157.388 296.216V297.752H159.901ZM154.709 299.504C157.159 299.504 158.632 300.228 158.632 301.522C158.632 302.843 157.159 303.554 154.709 303.554C152.233 303.554 150.761 302.843 150.761 301.522C150.761 300.228 152.233 299.504 154.709 299.504ZM154.709 300.431C152.97 300.431 151.979 300.824 151.979 301.522C151.979 302.233 152.97 302.64 154.709 302.627C156.423 302.64 157.426 302.233 157.426 301.522C157.426 300.824 156.423 300.431 154.709 300.431ZM154.709 293.334C152.944 293.334 151.878 293.778 151.891 294.54C151.878 295.302 152.944 295.733 154.709 295.733C156.474 295.733 157.527 295.302 157.527 294.54C157.527 293.778 156.474 293.334 154.709 293.334ZM153.236 297.752H156.194V296.533C155.75 296.609 155.249 296.647 154.709 296.647C154.176 296.647 153.681 296.609 153.236 296.546V297.752ZM165.944 292.395C168.509 292.395 170.007 293.08 170.007 294.35C170.007 295.619 168.509 296.317 165.944 296.317C163.38 296.317 161.882 295.619 161.882 294.35C161.882 293.08 163.38 292.395 165.944 292.395ZM165.944 293.283C164.129 293.283 163.126 293.677 163.139 294.35C163.126 295.048 164.129 295.416 165.944 295.416C167.76 295.416 168.763 295.048 168.763 294.35C168.763 293.677 167.76 293.283 165.944 293.283ZM171.137 297.016V297.98H160.765V297.016H171.137ZM169.829 298.856V301.522H163.202V302.538H170.146V303.465H162.021V300.646H168.636V299.758H162.009V298.856H169.829ZM185.584 301.192V302.221H175.174V301.192H179.744V298.768H176.088V297.815H177.789V294.235H176.062V293.258H184.632V294.235H182.893V297.815H184.594V298.768H180.938V301.192H185.584ZM178.982 297.815H181.712V294.235H178.982V297.815ZM195.347 292.204V295.149H196.997V296.178H195.347V299.06H194.141V292.204H195.347ZM195.347 299.656V303.439H188.085V299.656H195.347ZM189.266 300.608V302.462H194.153V300.608H189.266ZM193.201 293.359V294.324H186.422V293.359H189.215V292.115H190.421V293.359H193.201ZM189.812 294.819C191.449 294.819 192.566 295.632 192.566 296.851C192.566 298.082 191.449 298.882 189.812 298.895C188.148 298.882 187.044 298.082 187.044 296.851C187.044 295.632 188.148 294.819 189.812 294.819ZM189.812 295.746C188.847 295.733 188.199 296.165 188.212 296.851C188.199 297.562 188.847 297.98 189.812 297.98C190.776 297.98 191.424 297.562 191.437 296.851C191.424 296.165 190.776 295.733 189.812 295.746ZM206.582 292.217V295.873H208.232V296.876H206.582V300.723H205.376V292.217H206.582ZM204.437 293.537V294.515H197.657V293.537H200.45V292.204H201.656V293.537H204.437ZM201.047 295.061C202.685 295.061 203.802 295.911 203.802 297.206C203.802 298.501 202.685 299.339 201.047 299.339C199.396 299.339 198.279 298.501 198.279 297.206C198.279 295.911 199.396 295.061 201.047 295.061ZM201.047 295.987C200.082 295.987 199.435 296.457 199.447 297.206C199.435 297.942 200.082 298.399 201.047 298.399C202.012 298.399 202.659 297.942 202.672 297.206C202.659 296.457 202.012 295.987 201.047 295.987ZM207.064 302.36V303.338H199.371V300.05H200.577V302.36H207.064ZM217.83 296.254V297.79H222.426V298.78H212.054V297.79H216.637V296.254H217.83ZM217.233 299.605C219.696 299.605 221.156 300.304 221.156 301.586C221.156 302.855 219.696 303.566 217.233 303.554C214.758 303.566 213.285 302.855 213.285 301.586C213.285 300.304 214.758 299.605 217.233 299.605ZM217.233 300.532C215.481 300.532 214.504 300.9 214.504 301.586C214.504 302.271 215.481 302.64 217.233 302.64C218.96 302.64 219.95 302.271 219.95 301.586C219.95 300.9 218.96 300.532 217.233 300.532ZM221.499 292.725V293.689H218.046C218.217 294.775 219.83 295.695 221.893 295.898L221.461 296.851C219.48 296.622 217.855 295.81 217.233 294.604C216.611 295.81 214.986 296.622 213.019 296.851L212.587 295.898C214.637 295.695 216.25 294.788 216.421 293.689H213.006V292.725H221.499ZM232.227 292.204V295.061H233.877V296.076H232.227V298.831H231.021V292.204H232.227ZM226.146 299.301V300.405H231.021V299.301H232.227V303.439H224.952V299.301H226.146ZM226.146 302.475H231.021V301.345H226.146V302.475ZM230.081 293.321V294.286H223.302V293.321H226.095V292.103H227.301V293.321H230.081ZM226.691 294.756C228.329 294.756 229.446 295.53 229.446 296.749C229.446 297.955 228.329 298.755 226.691 298.742C225.028 298.755 223.924 297.955 223.924 296.749C223.924 295.53 225.028 294.756 226.691 294.756ZM226.691 295.657C225.727 295.645 225.079 296.089 225.092 296.749C225.079 297.422 225.727 297.854 226.691 297.854C227.656 297.854 228.304 297.422 228.316 296.749C228.304 296.089 227.656 295.645 226.691 295.657ZM20.4941 314.223C20.4941 315.657 21.5225 317.066 23.2363 317.65L22.6143 318.59C21.3384 318.146 20.3926 317.238 19.8975 316.114C19.4023 317.365 18.4058 318.368 17.0537 318.844L16.4316 317.892C18.1836 317.295 19.2627 315.771 19.2627 314.235V313.918H16.7998V312.94H22.9316V313.918H20.4941V314.223ZM25.9023 319.58V323.579H24.6963V320.558H18.1963V319.58H25.9023ZM25.9023 312.204V319.009H24.6963V316.089H22.5889V315.099H24.6963V312.204H25.9023ZM37.0869 312.217V320.481H35.8809V312.217H37.0869ZM37.4297 322.36V323.338H29.6475V319.644H30.8662V322.36H37.4297ZM30.917 312.979C32.6309 312.979 33.9385 314.146 33.9385 315.797C33.9385 317.473 32.6309 318.628 30.917 318.628C29.2031 318.628 27.8828 317.473 27.8828 315.797C27.8828 314.146 29.2031 312.979 30.917 312.979ZM30.917 314.032C29.8506 314.032 29.0635 314.756 29.0635 315.797C29.0635 316.863 29.8506 317.574 30.917 317.574C31.958 317.574 32.7578 316.863 32.7578 315.797C32.7578 314.756 31.958 314.032 30.917 314.032ZM52.4736 321.167V322.17H42.0635V321.167H46.6465V318.831H43.2568V312.979H44.4629V314.934H50.0488V312.979H51.2422V318.831H47.8398V321.167H52.4736ZM44.4629 317.854H50.0488V315.911H44.4629V317.854ZM62.7822 312.204V319.098H61.5762V316.622H59.7988V315.619H61.5762V312.204H62.7822ZM62.7822 319.656V323.439H55.2793V319.656H62.7822ZM56.4727 320.608V322.462H61.6016V320.608H56.4727ZM59.9766 313.334V314.299H53.3115V313.334H56.0537V312.103H57.2471V313.334H59.9766ZM56.6504 314.819C58.2119 314.819 59.3164 315.657 59.3164 316.851C59.3164 318.082 58.2119 318.882 56.6504 318.895C55.0889 318.882 53.9717 318.082 53.9717 316.851C53.9717 315.657 55.0889 314.819 56.6504 314.819ZM56.6504 315.746C55.7363 315.733 55.127 316.178 55.127 316.851C55.127 317.549 55.7363 317.98 56.6504 317.98C57.5518 317.98 58.1611 317.549 58.1611 316.851C58.1611 316.178 57.5518 315.733 56.6504 315.746ZM71.6309 314.02C71.6309 315.518 72.6719 316.901 74.373 317.46L73.7256 318.412C72.4814 317.974 71.5483 317.085 71.0596 315.962C70.5581 317.238 69.5933 318.234 68.2666 318.729L67.6191 317.765C69.3965 317.13 70.4248 315.619 70.4375 313.918V312.801H71.6309V314.02ZM76.6455 312.204V315.061H78.2959V316.076H76.6455V319.072H75.4395V312.204H76.6455ZM72.9766 319.339C75.3125 319.339 76.7471 320.113 76.7471 321.446C76.7471 322.792 75.3125 323.566 72.9766 323.554C70.6152 323.566 69.1553 322.792 69.1553 321.446C69.1553 320.113 70.6152 319.339 72.9766 319.339ZM72.9766 320.291C71.3262 320.291 70.3486 320.723 70.3613 321.446C70.3486 322.195 71.3262 322.602 72.9766 322.614C74.6143 322.602 75.5664 322.195 75.5664 321.446C75.5664 320.723 74.6143 320.291 72.9766 320.291ZM89.3154 317.65V318.615H84.7197V319.834H88.0459V323.439H80.1875V319.834H83.5264V318.615H78.9434V317.65H89.3154ZM88.3379 312.56V313.537H86.6875V315.708H88.2871V316.686H79.9463V315.708H81.5586V313.537H79.8955V312.56H88.3379ZM81.3809 320.786V322.462H86.8779V320.786H81.3809ZM82.752 315.708H85.4814V313.537H82.752V315.708ZM99.5986 312.204V323.604H98.3926V312.204H99.5986ZM93.5176 313.055C95.2061 313.055 96.4502 314.604 96.4502 317.041C96.4502 319.491 95.2061 321.04 93.5176 321.04C91.8037 321.04 90.5723 319.491 90.5723 317.041C90.5723 314.604 91.8037 313.055 93.5176 313.055ZM93.5176 314.134C92.4639 314.134 91.7402 315.251 91.7402 317.041C91.7402 318.844 92.4639 319.961 93.5176 319.961C94.5586 319.961 95.2822 318.844 95.2822 317.041C95.2822 315.251 94.5586 314.134 93.5176 314.134ZM111.202 312.204V323.579H110.047V312.204H111.202ZM108.892 312.42V323.021H107.736V317.536H106.454C106.353 319.758 105.4 321.142 103.991 321.129C102.506 321.142 101.541 319.58 101.541 317.117C101.541 314.654 102.506 313.105 103.991 313.118C105.375 313.105 106.314 314.419 106.454 316.559H107.736V312.42H108.892ZM103.991 314.248C103.166 314.248 102.658 315.302 102.658 317.117C102.658 318.933 103.166 319.986 103.991 319.986C104.829 319.986 105.35 318.933 105.35 317.117C105.35 315.302 104.829 314.248 103.991 314.248ZM123.06 321.154V322.157H112.649V321.154H115.138V318.184C114.205 317.669 113.64 316.851 113.64 315.835C113.64 314.045 115.392 312.864 117.829 312.864C120.279 312.864 122.031 314.045 122.031 315.835C122.031 316.838 121.485 317.644 120.571 318.158V321.154H123.06ZM117.829 313.829C116.039 313.829 114.808 314.604 114.808 315.835C114.808 317.054 116.039 317.854 117.829 317.854C119.606 317.854 120.863 317.054 120.863 315.835C120.863 314.604 119.606 313.829 117.829 313.829ZM116.331 321.154H119.353V318.615C118.889 318.736 118.375 318.793 117.829 318.793C117.296 318.793 116.788 318.736 116.331 318.628V321.154ZM125.18 322.589C124.685 322.589 124.266 322.183 124.278 321.688C124.266 321.192 124.685 320.786 125.18 320.786C125.662 320.786 126.081 321.192 126.081 321.688C126.081 322.183 125.662 322.589 125.18 322.589ZM136.11 316.254V317.79H140.706V318.78H130.334V317.79H134.917V316.254H136.11ZM135.514 319.605C137.977 319.605 139.437 320.304 139.437 321.586C139.437 322.855 137.977 323.566 135.514 323.554C133.038 323.566 131.565 322.855 131.565 321.586C131.565 320.304 133.038 319.605 135.514 319.605ZM135.514 320.532C133.762 320.532 132.784 320.9 132.784 321.586C132.784 322.271 133.762 322.64 135.514 322.64C137.24 322.64 138.23 322.271 138.23 321.586C138.23 320.9 137.24 320.532 135.514 320.532ZM139.779 312.725V313.689H136.326C136.498 314.775 138.11 315.695 140.173 315.898L139.741 316.851C137.761 316.622 136.136 315.81 135.514 314.604C134.892 315.81 133.267 316.622 131.299 316.851L130.867 315.898C132.917 315.695 134.53 314.788 134.701 313.689H131.286V312.725H139.779ZM150.507 312.204V315.061H152.157V316.076H150.507V318.831H149.301V312.204H150.507ZM144.426 319.301V320.405H149.301V319.301H150.507V323.439H143.232V319.301H144.426ZM144.426 322.475H149.301V321.345H144.426V322.475ZM148.361 313.321V314.286H141.582V313.321H144.375V312.103H145.581V313.321H148.361ZM144.972 314.756C146.609 314.756 147.727 315.53 147.727 316.749C147.727 317.955 146.609 318.755 144.972 318.742C143.309 318.755 142.204 317.955 142.204 316.749C142.204 315.53 143.309 314.756 144.972 314.756ZM144.972 315.657C144.007 315.645 143.359 316.089 143.372 316.749C143.359 317.422 144.007 317.854 144.972 317.854C145.937 317.854 146.584 317.422 146.597 316.749C146.584 316.089 145.937 315.645 144.972 315.657ZM163.215 321.167V322.17H152.805V321.167H157.388V318.831H153.998V312.979H155.204V314.934H160.79V312.979H161.983V318.831H158.581V321.167H163.215ZM155.204 317.854H160.79V315.911H155.204V317.854ZM173.523 312.204V319.098H172.317V316.622H170.54V315.619H172.317V312.204H173.523ZM173.523 319.656V323.439H166.021V319.656H173.523ZM167.214 320.608V322.462H172.343V320.608H167.214ZM170.718 313.334V314.299H164.053V313.334H166.795V312.103H167.988V313.334H170.718ZM167.392 314.819C168.953 314.819 170.058 315.657 170.058 316.851C170.058 318.082 168.953 318.882 167.392 318.895C165.83 318.882 164.713 318.082 164.713 316.851C164.713 315.657 165.83 314.819 167.392 314.819ZM167.392 315.746C166.478 315.733 165.868 316.178 165.868 316.851C165.868 317.549 166.478 317.98 167.392 317.98C168.293 317.98 168.902 317.549 168.902 316.851C168.902 316.178 168.293 315.733 167.392 315.746ZM185.647 318.146V319.11H175.275V318.146H185.647ZM184.479 322.36V323.338H176.583V320.037H177.802V322.36H184.479ZM180.455 312.585C182.918 312.572 184.518 313.436 184.518 314.857C184.518 316.292 182.918 317.155 180.455 317.168C177.979 317.155 176.393 316.292 176.393 314.857C176.393 313.436 177.979 312.572 180.455 312.585ZM180.455 313.55C178.716 313.55 177.624 314.045 177.637 314.857C177.624 315.695 178.716 316.178 180.455 316.178C182.194 316.178 183.273 315.695 183.273 314.857C183.273 314.045 182.194 313.55 180.455 313.55ZM198.622 312.191V315.492H200.285V316.495H198.622V320.431H197.416V312.191H198.622ZM195.271 313.169V314.146H191.386V317.46C193.601 317.466 194.852 317.396 196.273 317.104L196.413 318.082C194.877 318.387 193.531 318.463 191.094 318.463H190.192V313.169H195.271ZM199.104 322.36V323.338H191.411V319.58H192.617V322.36H199.104ZM211.292 317.815V318.793H200.92V317.815H205.503V316.571H202.215V312.661H210.022V313.626H203.421V315.581H210.137V316.571H206.709V317.815H211.292ZM210.035 319.796V323.643H208.842V320.773H202.075V319.796H210.035ZM218.566 313.397V314.362H212.168V313.397H214.834V312.103H216.027V313.397H218.566ZM215.418 314.883C216.954 314.883 218.033 315.733 218.046 317.003C218.033 318.272 216.954 319.11 215.418 319.11C213.869 319.11 212.803 318.272 212.803 317.003C212.803 315.733 213.869 314.883 215.418 314.883ZM215.418 315.797C214.517 315.797 213.933 316.267 213.933 317.003C213.933 317.739 214.517 318.196 215.418 318.196C216.307 318.196 216.916 317.739 216.929 317.003C216.916 316.267 216.307 315.797 215.418 315.797ZM221.639 312.204V319.529H220.433V318.069H218.592V317.092H220.433V315.835H218.604V314.857H220.433V312.204H221.639ZM217.855 319.644C220.242 319.644 221.702 320.354 221.702 321.599C221.702 322.83 220.242 323.566 217.855 323.554C215.456 323.566 213.996 322.83 213.996 321.599C213.996 320.354 215.456 319.644 217.855 319.644ZM217.855 320.57C216.218 320.57 215.253 320.926 215.253 321.599C215.253 322.259 216.218 322.64 217.855 322.627C219.455 322.64 220.42 322.259 220.42 321.599C220.42 320.926 219.455 320.57 217.855 320.57ZM25.8389 332.204V338.057H24.6455V332.204H25.8389ZM25.8516 338.603V341.446H19.5801V342.5H26.2324V343.465H18.4121V340.532H24.6582V339.555H18.374V338.603H25.8516ZM20.5576 333.385C20.5449 334.908 21.6494 336.292 23.3887 336.838L22.792 337.777C21.4653 337.346 20.4688 336.444 19.9609 335.289C19.4404 336.533 18.4248 337.523 17.0664 337.993L16.457 337.041C18.2344 336.444 19.3262 334.959 19.3262 333.385V332.509H20.5576V333.385ZM37.0742 332.204V343.604H35.8682V332.204H37.0742ZM29.4951 333.156V336.076H32.5547V333.156H33.748V340.875H28.2891V333.156H29.4951ZM29.4951 339.885H32.5547V337.028H29.4951V339.885ZM49.2998 341.167V342.17H38.8896V341.167H43.4727V338.831H40.083V332.979H41.2891V334.934H46.875V332.979H48.0684V338.831H44.666V341.167H49.2998ZM41.2891 337.854H46.875V335.911H41.2891V337.854ZM59.6084 332.204V339.098H58.4023V336.622H56.625V335.619H58.4023V332.204H59.6084ZM59.6084 339.656V343.439H52.1055V339.656H59.6084ZM53.2988 340.608V342.462H58.4277V340.608H53.2988ZM56.8027 333.334V334.299H50.1377V333.334H52.8799V332.103H54.0732V333.334H56.8027ZM53.4766 334.819C55.0381 334.819 56.1426 335.657 56.1426 336.851C56.1426 338.082 55.0381 338.882 53.4766 338.895C51.915 338.882 50.7979 338.082 50.7979 336.851C50.7979 335.657 51.915 334.819 53.4766 334.819ZM53.4766 335.746C52.5625 335.733 51.9531 336.178 51.9531 336.851C51.9531 337.549 52.5625 337.98 53.4766 337.98C54.3779 337.98 54.9873 337.549 54.9873 336.851C54.9873 336.178 54.3779 335.733 53.4766 335.746ZM67.6953 333.423V334.121C67.6953 335.073 67.6953 336.546 67.3652 338.577L66.1719 338.488C66.4575 336.667 66.4893 335.353 66.502 334.4H61.8809V333.423H67.6953ZM64.7754 336.673V340.075C65.9878 340.037 67.2192 339.955 68.3555 339.809L68.4189 340.71C66.0449 341.091 63.4043 341.142 61.3857 341.129L61.2461 340.151C61.957 340.145 62.7505 340.139 63.582 340.113V336.673H64.7754ZM70.2217 332.204V336.901H71.9609V337.93H70.2217V343.579H69.0029V332.204H70.2217ZM84.6309 332.204V336.609H86.459V337.6H84.6309V343.604H83.4248V332.204H84.6309ZM81.5713 333.296V334.273H77.458V339.771C79.3687 339.764 80.8032 339.682 82.4219 339.39L82.5742 340.405C80.7969 340.723 79.2861 340.786 77.166 340.773H76.252V333.296H81.5713ZM97.415 341.192V342.183H87.0049V341.192H97.415ZM96.1455 333.042V336.597H89.4678V338.26H96.4121V339.225H88.2744V335.619H94.9521V334.02H88.249V333.042H96.1455ZM108.016 332.204V343.579H106.873V332.204H108.016ZM105.616 332.496V343.021H104.474V337.739H102.252C101.573 339.06 100.494 340.215 98.8877 341.154L98.2021 340.291C100.614 338.856 101.776 336.946 101.985 334.604H98.7354V333.613H103.179C103.172 334.724 103.02 335.784 102.671 336.774H104.474V332.496H105.616ZM115.734 333.055C116.769 333.055 117.626 333.651 118.134 334.68H120.939V332.204H122.133V343.604H120.939V339.237H118.21C117.721 340.38 116.826 341.04 115.734 341.04C114.033 341.04 112.84 339.491 112.853 337.041C112.84 334.604 114.033 333.055 115.734 333.055ZM115.734 334.134C114.706 334.134 113.995 335.251 113.995 337.041C113.995 338.844 114.706 339.961 115.734 339.961C116.763 339.961 117.474 338.844 117.474 337.041C117.474 335.251 116.763 334.134 115.734 334.134ZM118.477 335.67C118.559 336.089 118.616 336.546 118.616 337.041C118.616 337.473 118.578 337.873 118.502 338.247H120.939V335.67H118.477ZM133.355 332.204V343.604H132.162V337.485H130.08V336.482H132.162V332.204H133.355ZM129.407 333.232V337.295H125.51V339.885C127.325 339.878 128.722 339.815 130.309 339.529L130.41 340.52C128.709 340.824 127.211 340.888 125.205 340.9H124.304V336.317H128.239V334.21H124.278V333.232H129.407ZM147.155 332.204V336.736H148.92V337.739H147.155V343.566H145.949V332.204H147.155ZM144.185 333.397C144.172 336.686 142.725 339.618 138.979 341.472L138.307 340.532C141.157 339.11 142.706 337.054 142.953 334.4H138.878V333.397H144.185ZM153.719 335.556C153.719 337.46 154.963 339.428 156.715 340.177L156.055 341.116C154.715 340.526 153.649 339.275 153.122 337.752C152.595 339.377 151.522 340.761 150.202 341.408L149.504 340.456C151.218 339.656 152.487 337.511 152.5 335.556V334.35H149.897V333.347H156.309V334.35H153.719V335.556ZM158.949 332.204V343.579H157.743V332.204H158.949ZM174.349 341.167V342.17H163.938V341.167H168.521V338.831H165.132V332.979H166.338V334.934H171.924V332.979H173.117V338.831H169.715V341.167H174.349ZM166.338 337.854H171.924V335.911H166.338V337.854ZM179.147 334.299C179.147 335.746 180.15 337.066 181.877 337.612L181.306 338.552C180.011 338.139 179.065 337.282 178.563 336.203C178.068 337.447 177.072 338.431 175.707 338.907L175.085 337.942C176.862 337.358 177.929 335.886 177.941 334.312V333.994H175.44V333.017H181.598V333.994H179.147V334.299ZM184.111 332.204V335.022H185.762V336.013H184.111V339.034H182.905V332.204H184.111ZM180.442 339.313C182.791 339.313 184.213 340.088 184.213 341.421C184.213 342.767 182.791 343.566 180.442 343.554C178.068 343.566 176.621 342.767 176.621 341.421C176.621 340.088 178.068 339.313 180.442 339.313ZM180.442 340.266C178.792 340.266 177.814 340.685 177.827 341.421C177.814 342.183 178.792 342.602 180.442 342.602C182.08 342.602 183.032 342.183 183.032 341.421C183.032 340.685 182.08 340.266 180.442 340.266ZM193.531 335.099C193.519 337.117 194.687 339.174 196.388 339.999L195.639 340.964C194.401 340.323 193.442 339.047 192.947 337.523C192.433 339.148 191.437 340.507 190.142 341.18L189.393 340.202C191.145 339.364 192.325 337.181 192.325 335.099V333.156H193.531V335.099ZM198.444 332.204V336.736H200.272V337.765H198.444V343.579H197.238V332.204H198.444ZM209.756 332.204V335.289H211.406V336.305H209.756V339.504H208.55V332.204H209.756ZM206.125 339.593C208.448 339.593 209.883 340.329 209.883 341.586C209.883 342.817 208.448 343.566 206.125 343.554C203.776 343.566 202.342 342.817 202.354 341.586C202.342 340.329 203.776 339.593 206.125 339.593ZM206.125 340.52C204.487 340.52 203.535 340.888 203.548 341.586C203.535 342.246 204.487 342.64 206.125 342.64C207.737 342.64 208.689 342.246 208.689 341.586C208.689 340.888 207.737 340.52 206.125 340.52ZM207.61 333.423V334.375H200.831V333.423H203.624V332.115H204.83V333.423H207.61ZM204.221 334.896C205.858 334.896 206.976 335.708 206.976 336.927C206.976 338.146 205.858 338.945 204.221 338.933C202.558 338.945 201.453 338.146 201.453 336.927C201.453 335.708 202.558 334.896 204.221 334.896ZM204.221 335.797C203.256 335.797 202.608 336.229 202.621 336.927C202.608 337.6 203.256 338.019 204.221 338.019C205.186 338.019 205.833 337.6 205.846 336.927C205.833 336.229 205.186 335.797 204.221 335.797ZM217.233 332.395C219.798 332.395 221.296 333.08 221.296 334.35C221.296 335.619 219.798 336.317 217.233 336.317C214.669 336.317 213.171 335.619 213.171 334.35C213.171 333.08 214.669 332.395 217.233 332.395ZM217.233 333.283C215.418 333.283 214.415 333.677 214.428 334.35C214.415 335.048 215.418 335.416 217.233 335.416C219.049 335.416 220.052 335.048 220.052 334.35C220.052 333.677 219.049 333.283 217.233 333.283ZM222.426 337.016V337.98H212.054V337.016H222.426ZM221.118 338.856V341.522H214.491V342.538H221.436V343.465H213.311V340.646H219.925V339.758H213.298V338.856H221.118ZM25.2803 352.204V356.812H27.1084V357.815H25.2803V363.579H24.0869V352.204H25.2803ZM23.0967 353.981V354.972H16.3555V353.981H19.1611V352.356H20.3672V353.981H23.0967ZM19.7705 355.81C21.3955 355.81 22.5889 356.901 22.6016 358.45C22.5889 360.012 21.3955 361.091 19.7705 361.104C18.1328 361.091 16.9395 360.012 16.9395 358.45C16.9395 356.901 18.1328 355.81 19.7705 355.81ZM19.7705 356.8C18.8057 356.8 18.082 357.473 18.0947 358.45C18.082 359.44 18.8057 360.101 19.7705 360.088C20.7354 360.101 21.4463 359.44 21.4463 358.45C21.4463 357.473 20.7354 356.8 19.7705 356.8ZM38.2803 356.673V357.663H36.5156V363.566H35.3096V352.204H36.5156V356.673H38.2803ZM29.2793 353.309V359.707C30.8662 359.707 32.5229 359.574 34.332 359.199L34.4717 360.215C32.5293 360.608 30.7266 360.71 29.0254 360.71H28.0859V353.309H29.2793ZM42.5967 353.017C44.3994 353.004 45.6816 354.121 45.6943 355.721C45.6816 357.32 44.3994 358.438 42.5967 358.438C40.8066 358.438 39.4863 357.32 39.499 355.721C39.4863 354.121 40.8066 353.004 42.5967 353.017ZM42.5967 354.058C41.4922 354.058 40.6797 354.718 40.6924 355.721C40.6797 356.724 41.4922 357.384 42.5967 357.384C43.7012 357.384 44.5137 356.724 44.5137 355.721C44.5137 354.718 43.7012 354.058 42.5967 354.058ZM48.2969 352.204V363.604H47.0908V352.204H48.2969ZM38.9531 360.151C41.0225 360.151 43.8916 360.126 46.3799 359.771L46.4688 360.646C43.8916 361.142 41.1367 361.154 39.1055 361.154L38.9531 360.151ZM57.2217 354.02C57.2217 355.518 58.2627 356.901 59.9639 357.46L59.3164 358.412C58.0723 357.974 57.1392 357.085 56.6504 355.962C56.1489 357.238 55.1841 358.234 53.8574 358.729L53.21 357.765C54.9873 357.13 56.0156 355.619 56.0283 353.918V352.801H57.2217V354.02ZM62.2363 352.204V355.061H63.8867V356.076H62.2363V359.072H61.0303V352.204H62.2363ZM58.5674 359.339C60.9033 359.339 62.3379 360.113 62.3379 361.446C62.3379 362.792 60.9033 363.566 58.5674 363.554C56.2061 363.566 54.7461 362.792 54.7461 361.446C54.7461 360.113 56.2061 359.339 58.5674 359.339ZM58.5674 360.291C56.917 360.291 55.9395 360.723 55.9521 361.446C55.9395 362.195 56.917 362.602 58.5674 362.614C60.2051 362.602 61.1572 362.195 61.1572 361.446C61.1572 360.723 60.2051 360.291 58.5674 360.291ZM74.9062 357.65V358.615H70.3105V359.834H73.6367V363.439H65.7783V359.834H69.1172V358.615H64.5342V357.65H74.9062ZM73.9287 352.56V353.537H72.2783V355.708H73.8779V356.686H65.5371V355.708H67.1494V353.537H65.4863V352.56H73.9287ZM66.9717 360.786V362.462H72.4688V360.786H66.9717ZM68.3428 355.708H71.0723V353.537H68.3428V355.708ZM80.9492 352.89C83.3359 352.89 85.1514 354.146 85.1514 356.063C85.1514 357.98 83.3359 359.25 80.9492 359.237C78.5625 359.25 76.7598 357.98 76.7598 356.063C76.7598 354.146 78.5625 352.89 80.9492 352.89ZM80.9492 353.867C79.21 353.854 77.9023 354.743 77.915 356.063C77.9023 357.396 79.21 358.247 80.9492 358.247C82.6885 358.247 83.9834 357.396 83.9834 356.063C83.9834 354.743 82.6885 353.854 80.9492 353.867ZM86.1797 361.104V362.106H75.7695V361.104H86.1797ZM97.415 361.205V362.221H87.0049V361.205H91.5879V359.212H88.2744V355.594H94.9521V353.994H88.249V353.004H96.1455V356.559H89.4678V358.222H96.4121V359.212H92.7812V361.205H97.415ZM111.786 358.184V359.136H101.389V358.184H105.984V357.193H102.747V352.509H110.517V353.461H103.966V354.388H110.225V355.289H103.966V356.254H110.593V357.193H107.19V358.184H111.786ZM106.594 359.885C109.095 359.872 110.517 360.532 110.517 361.726C110.517 362.932 109.095 363.566 106.594 363.554C104.067 363.566 102.646 362.932 102.646 361.726C102.646 360.532 104.067 359.872 106.594 359.885ZM106.594 360.786C104.804 360.786 103.839 361.116 103.852 361.726C103.839 362.335 104.804 362.652 106.594 362.64C108.358 362.652 109.311 362.335 109.311 361.726C109.311 361.116 108.358 360.786 106.594 360.786ZM121.587 352.204V355.061H123.237V356.076H121.587V358.831H120.381V352.204H121.587ZM115.506 359.301V360.405H120.381V359.301H121.587V363.439H114.312V359.301H115.506ZM115.506 362.475H120.381V361.345H115.506V362.475ZM119.441 353.321V354.286H112.662V353.321H115.455V352.103H116.661V353.321H119.441ZM116.052 354.756C117.689 354.756 118.807 355.53 118.807 356.749C118.807 357.955 117.689 358.755 116.052 358.742C114.389 358.755 113.284 357.955 113.284 356.749C113.284 355.53 114.389 354.756 116.052 354.756ZM116.052 355.657C115.087 355.645 114.439 356.089 114.452 356.749C114.439 357.422 115.087 357.854 116.052 357.854C117.017 357.854 117.664 357.422 117.677 356.749C117.664 356.089 117.017 355.645 116.052 355.657ZM132.746 352.204V356.812H134.574V357.815H132.746V363.579H131.553V352.204H132.746ZM130.562 353.981V354.972H123.821V353.981H126.627V352.356H127.833V353.981H130.562ZM127.236 355.81C128.861 355.81 130.055 356.901 130.067 358.45C130.055 360.012 128.861 361.091 127.236 361.104C125.599 361.091 124.405 360.012 124.405 358.45C124.405 356.901 125.599 355.81 127.236 355.81ZM127.236 356.8C126.271 356.8 125.548 357.473 125.561 358.45C125.548 359.44 126.271 360.101 127.236 360.088C128.201 360.101 128.912 359.44 128.912 358.45C128.912 357.473 128.201 356.8 127.236 356.8ZM138.205 353.055C139.24 353.055 140.097 353.651 140.604 354.68H143.41V352.204H144.604V363.604H143.41V359.237H140.681C140.192 360.38 139.297 361.04 138.205 361.04C136.504 361.04 135.311 359.491 135.323 357.041C135.311 354.604 136.504 353.055 138.205 353.055ZM138.205 354.134C137.177 354.134 136.466 355.251 136.466 357.041C136.466 358.844 137.177 359.961 138.205 359.961C139.233 359.961 139.944 358.844 139.944 357.041C139.944 355.251 139.233 354.134 138.205 354.134ZM140.947 355.67C141.03 356.089 141.087 356.546 141.087 357.041C141.087 357.473 141.049 357.873 140.973 358.247H143.41V355.67H140.947ZM159.292 352.204V363.579H158.137V352.204H159.292ZM156.981 352.445V363.008H155.839V357.219H154.074V356.229H155.839V352.445H156.981ZM152.957 355.378C152.957 357.32 153.744 359.263 155.344 360.189L154.62 361.078C153.535 360.431 152.786 359.282 152.398 357.904C151.986 359.39 151.211 360.653 150.101 361.345L149.364 360.443C150.977 359.466 151.802 357.396 151.802 355.378V354.464H149.707V353.486H154.912V354.464H152.957V355.378ZM165.894 359.352C168.356 359.352 169.905 360.126 169.918 361.459C169.905 362.779 168.356 363.566 165.894 363.554C163.456 363.566 161.895 362.779 161.895 361.459C161.895 360.126 163.456 359.352 165.894 359.352ZM165.894 360.266C164.167 360.266 163.088 360.71 163.101 361.459C163.088 362.195 164.167 362.627 165.894 362.627C167.633 362.627 168.712 362.195 168.725 361.459C168.712 360.71 167.633 360.266 165.894 360.266ZM169.829 352.763V353.715C169.829 354.629 169.829 355.568 169.512 356.736L168.331 356.609C168.636 355.448 168.636 354.61 168.636 353.728H161.983V352.763H169.829ZM171.124 357.435V358.412H160.777V357.435H164.929V355.302H166.109V357.435H171.124ZM177.624 354.083V355.061H171.975V354.083H174.209V352.534H175.402V354.083H177.624ZM174.806 355.746C176.253 355.746 177.269 356.825 177.281 358.361C177.269 359.91 176.253 361.002 174.806 361.002C173.384 361.002 172.33 359.91 172.343 358.361C172.33 356.825 173.384 355.746 174.806 355.746ZM174.806 356.749C173.98 356.749 173.409 357.422 173.409 358.361C173.409 359.326 173.98 359.974 174.806 359.974C175.618 359.974 176.215 359.326 176.215 358.361C176.215 357.422 175.618 356.749 174.806 356.749ZM181.737 352.204V363.579H180.595V357.93H179.287V363.046H178.145V352.458H179.287V356.939H180.595V352.204H181.737ZM193.646 361.154V362.157H183.235V361.154H185.724V358.184C184.791 357.669 184.226 356.851 184.226 355.835C184.226 354.045 185.978 352.864 188.415 352.864C190.865 352.864 192.617 354.045 192.617 355.835C192.617 356.838 192.071 357.644 191.157 358.158V361.154H193.646ZM188.415 353.829C186.625 353.829 185.394 354.604 185.394 355.835C185.394 357.054 186.625 357.854 188.415 357.854C190.192 357.854 191.449 357.054 191.449 355.835C191.449 354.604 190.192 353.829 188.415 353.829ZM186.917 361.154H189.938V358.615C189.475 358.736 188.961 358.793 188.415 358.793C187.882 358.793 187.374 358.736 186.917 358.628V361.154ZM195.766 362.589C195.271 362.589 194.852 362.183 194.864 361.688C194.852 361.192 195.271 360.786 195.766 360.786C196.248 360.786 196.667 361.192 196.667 361.688C196.667 362.183 196.248 362.589 195.766 362.589Z" fill="#505050"/>
<path d="M92 117C92 103.193 103.193 92 117 92H320V121C320 134.807 308.807 146 295 146H117C103.193 146 92 134.807 92 121V117Z" fill="#FF7417"/>
<path d="M119.339 113.704V119.557H118.146V113.704H119.339ZM119.352 120.103V122.946H113.08V124H119.732V124.965H111.912V122.032H118.158V121.055H111.874V120.103H119.352ZM114.058 114.885C114.045 116.408 115.149 117.792 116.889 118.338L116.292 119.277C114.965 118.846 113.969 117.944 113.461 116.789C112.94 118.033 111.925 119.023 110.566 119.493L109.957 118.541C111.734 117.944 112.826 116.459 112.826 114.885V114.009H114.058V114.885ZM130.574 113.704V125.104H129.368V113.704H130.574ZM122.995 114.656V117.576H126.055V114.656H127.248V122.375H121.789V114.656H122.995ZM122.995 121.385H126.055V118.528H122.995V121.385ZM142.8 122.667V123.67H132.39V122.667H136.973V120.331H133.583V114.479H134.789V116.434H140.375V114.479H141.568V120.331H138.166V122.667H142.8ZM134.789 119.354H140.375V117.411H134.789V119.354ZM153.108 113.704V120.598H151.902V118.122H150.125V117.119H151.902V113.704H153.108ZM153.108 121.156V124.939H145.605V121.156H153.108ZM146.799 122.108V123.962H151.928V122.108H146.799ZM150.303 114.834V115.799H143.638V114.834H146.38V113.603H147.573V114.834H150.303ZM146.977 116.319C148.538 116.319 149.643 117.157 149.643 118.351C149.643 119.582 148.538 120.382 146.977 120.395C145.415 120.382 144.298 119.582 144.298 118.351C144.298 117.157 145.415 116.319 146.977 116.319ZM146.977 117.246C146.062 117.233 145.453 117.678 145.453 118.351C145.453 119.049 146.062 119.48 146.977 119.48C147.878 119.48 148.487 119.049 148.487 118.351C148.487 117.678 147.878 117.233 146.977 117.246ZM161.195 114.923V115.621C161.195 116.573 161.195 118.046 160.865 120.077L159.672 119.988C159.958 118.167 159.989 116.853 160.002 115.9H155.381V114.923H161.195ZM158.275 118.173V121.575C159.488 121.537 160.719 121.455 161.855 121.309L161.919 122.21C159.545 122.591 156.904 122.642 154.886 122.629L154.746 121.651C155.457 121.645 156.25 121.639 157.082 121.613V118.173H158.275ZM163.722 113.704V118.401H165.461V119.43H163.722V125.079H162.503V113.704H163.722ZM175.046 117.754V119.29H179.642V120.28H169.27V119.29H173.853V117.754H175.046ZM174.449 121.105C176.912 121.105 178.372 121.804 178.372 123.086C178.372 124.355 176.912 125.066 174.449 125.054C171.974 125.066 170.501 124.355 170.501 123.086C170.501 121.804 171.974 121.105 174.449 121.105ZM174.449 122.032C172.697 122.032 171.72 122.4 171.72 123.086C171.72 123.771 172.697 124.14 174.449 124.14C176.176 124.14 177.166 123.771 177.166 123.086C177.166 122.4 176.176 122.032 174.449 122.032ZM178.715 114.225V115.189H175.262C175.433 116.275 177.045 117.195 179.108 117.398L178.677 118.351C176.696 118.122 175.071 117.31 174.449 116.104C173.827 117.31 172.202 118.122 170.234 118.351L169.803 117.398C171.853 117.195 173.465 116.288 173.637 115.189H170.222V114.225H178.715ZM189.442 113.704V116.561H191.093V117.576H189.442V120.331H188.236V113.704H189.442ZM183.361 120.801V121.905H188.236V120.801H189.442V124.939H182.168V120.801H183.361ZM183.361 123.975H188.236V122.845H183.361V123.975ZM187.297 114.821V115.786H180.518V114.821H183.311V113.603H184.517V114.821H187.297ZM183.907 116.256C185.545 116.256 186.662 117.03 186.662 118.249C186.662 119.455 185.545 120.255 183.907 120.242C182.244 120.255 181.14 119.455 181.14 118.249C181.14 117.03 182.244 116.256 183.907 116.256ZM183.907 117.157C182.942 117.145 182.295 117.589 182.308 118.249C182.295 118.922 182.942 119.354 183.907 119.354C184.872 119.354 185.52 118.922 185.532 118.249C185.52 117.589 184.872 117.145 183.907 117.157ZM202.15 122.667V123.67H191.74V122.667H196.323V120.331H192.934V114.479H194.14V116.434H199.726V114.479H200.919V120.331H197.517V122.667H202.15ZM194.14 119.354H199.726V117.411H194.14V119.354ZM212.459 113.704V120.598H211.253V118.122H209.476V117.119H211.253V113.704H212.459ZM212.459 121.156V124.939H204.956V121.156H212.459ZM206.149 122.108V123.962H211.278V122.108H206.149ZM209.653 114.834V115.799H202.988V114.834H205.73V113.603H206.924V114.834H209.653ZM206.327 116.319C207.889 116.319 208.993 117.157 208.993 118.351C208.993 119.582 207.889 120.382 206.327 120.395C204.766 120.382 203.648 119.582 203.648 118.351C203.648 117.157 204.766 116.319 206.327 116.319ZM206.327 117.246C205.413 117.233 204.804 117.678 204.804 118.351C204.804 119.049 205.413 119.48 206.327 119.48C207.229 119.48 207.838 119.049 207.838 118.351C207.838 117.678 207.229 117.233 206.327 117.246ZM217.918 114.517C219.721 114.504 221.003 115.621 221.016 117.221C221.003 118.82 219.721 119.938 217.918 119.938C216.128 119.938 214.808 118.82 214.82 117.221C214.808 115.621 216.128 114.504 217.918 114.517ZM217.918 115.558C216.813 115.558 216.001 116.218 216.014 117.221C216.001 118.224 216.813 118.884 217.918 118.884C219.022 118.884 219.835 118.224 219.835 117.221C219.835 116.218 219.022 115.558 217.918 115.558ZM223.618 113.704V125.104H222.412V113.704H223.618ZM214.274 121.651C216.344 121.651 219.213 121.626 221.701 121.271L221.79 122.146C219.213 122.642 216.458 122.654 214.427 122.654L214.274 121.651ZM232.518 117.36C232.518 119.112 233.584 120.966 235.285 121.778L234.6 122.692C233.362 122.108 232.429 120.921 231.946 119.531C231.445 121.036 230.455 122.292 229.153 122.896L228.48 121.969C230.207 121.182 231.337 119.239 231.337 117.36V116.611H228.823V115.646H231.324V113.933H232.543V115.646H235.019V116.611H232.518V117.36ZM237.481 113.704V118.287H239.31V119.303H237.481V125.079H236.275V113.704H237.481ZM249.275 113.704V125.104H248.069V113.704H249.275ZM243.194 114.555C244.883 114.555 246.127 116.104 246.127 118.541C246.127 120.991 244.883 122.54 243.194 122.54C241.48 122.54 240.249 120.991 240.249 118.541C240.249 116.104 241.48 114.555 243.194 114.555ZM243.194 115.634C242.141 115.634 241.417 116.751 241.417 118.541C241.417 120.344 242.141 121.461 243.194 121.461C244.235 121.461 244.959 120.344 244.959 118.541C244.959 116.751 244.235 115.634 243.194 115.634ZM261.488 118.922V119.849H251.078V118.922H261.488ZM260.206 120.648V123.149H253.528V124.089H260.562V124.939H252.322V122.35H259.013V121.512H252.31V120.648H260.206ZM260.181 113.996V116.459H253.604V117.322H260.371V118.173H252.411V115.659H258.975V114.847H252.386V113.996H260.181ZM274.438 113.704V116.078H276.088V117.081H274.438V119.455H273.231V113.704H274.438ZM274.438 119.976V122.857H268.293V123.975H274.831V124.939H267.112V121.956H273.244V120.915H267.087V119.976H274.438ZM268.661 114.098C270.388 114.098 271.645 115.139 271.645 116.637C271.645 118.135 270.388 119.176 268.661 119.176C266.935 119.176 265.665 118.135 265.678 116.637C265.665 115.139 266.935 114.098 268.661 114.098ZM268.661 115.088C267.607 115.088 266.846 115.71 266.846 116.637C266.846 117.563 267.607 118.211 268.661 118.211C269.702 118.211 270.477 117.563 270.477 116.637C270.477 115.71 269.702 115.088 268.661 115.088ZM286.206 113.704V125.104H285.013V120.344H282.791V119.341H285.013V117.233H282.854V116.243H285.013V113.704H286.206ZM282.169 114.707V118.858H278.36V121.474C279.973 121.467 281.318 121.391 282.943 121.156L283.045 122.146C281.268 122.426 279.82 122.477 278.018 122.477H277.154V117.906H280.988V115.685H277.129V114.707H282.169ZM292.262 115.596C292.262 116.599 293.341 117.5 295.017 117.792L294.521 118.719C293.195 118.452 292.186 117.83 291.678 116.979C291.164 117.9 290.135 118.585 288.732 118.884L288.225 117.957C289.964 117.627 291.03 116.675 291.043 115.596V115.469H288.644V114.504H294.687V115.469H292.262V115.596ZM297.479 113.717V125.079H296.261V122.426H293.747V121.499H296.261V113.717H297.479ZM287.92 119.709C290.04 119.709 292.922 119.684 295.41 119.341L295.486 120.242C294.407 120.433 293.29 120.541 292.198 120.61V124.724H290.992V120.674C289.945 120.712 288.955 120.718 288.085 120.725L287.92 119.709ZM300.501 124.089C300.006 124.089 299.587 123.683 299.6 123.188C299.587 122.692 300.006 122.286 300.501 122.286C300.983 122.286 301.402 122.692 301.402 123.188C301.402 123.683 300.983 124.089 300.501 124.089Z" fill="white"/>
</svg>
